M48
;DRILL file {KiCad 4.0.7-e2-6376~58~ubuntu16.04.1} date Wed Jun 27 11:11:39 2018
;FORMAT={-:-/ absolute / inch / decimal}
FMAT,2
INCH,TZ
T1C0.020
T2C0.031
T3C0.035
T4C0.039
T5C0.043
T6C0.062
T7C0.120
%
G90
G05
M72
T1
X1.6603Y-4.4797
X1.6787Y-5.4293
X1.83Y-4.4
X2.0083Y-4.33
X2.1087Y-5.3768
X2.16Y-5.1375
X2.21Y-3.93
X2.29Y-4.48
X2.3487Y-5.3768
X2.4803Y-4.6654
X2.58Y-3.8849
X2.6587Y-5.388
X2.6601Y-4.33
X2.6601Y-4.48
X2.6601Y-4.73
X2.6601Y-4.78
X2.6601Y-4.98
X2.8559Y-3.654
X2.96Y-5.3575
X2.98Y-3.84
X2.98Y-6.0609
X3.07Y-4.4113
X3.07Y-4.8387
X3.1584Y-3.654
X3.22Y-6.2787
X3.23Y-5.05
X3.35Y-4.1074
X3.35Y-4.32
X3.35Y-4.54
X3.4Y-4.1074
X3.42Y-6.2787
X3.45Y-4.1074
X3.45Y-4.32
X3.52Y-5.43
X3.52Y-6.45
X3.57Y-4.6225
X3.57Y-5.0475
X3.62Y-4.0425
X3.62Y-4.0425
X3.63Y-4.51
X3.65Y-3.76
X3.74Y-6.1602
X3.75Y-3.8
X3.75Y-4.0425
X3.75Y-4.3525
X3.75Y-4.51
X3.86Y-5.12
X3.9Y-5.16
X3.9208Y-3.654
X4.06Y-6.2787
X4.19Y-5.2
X4.1929Y-4.7085
X4.21Y-4.1825
X4.21Y-4.34
X4.26Y-5.2775
X4.26Y-6.2787
X4.58Y-6.1601
X4.6775Y-3.91
X4.6775Y-4.05
X4.7475Y-4.65
X4.7475Y-4.75
X4.8375Y-4.86
T2
X2.9Y-4.5279
X2.9Y-4.72
X3.12Y-5.75
X3.42Y-5.75
X3.44Y-4.51
X3.44Y-4.81
X3.74Y-4.74
X3.74Y-4.9321
X4.06Y-5.75
X4.36Y-5.75
X4.58Y-5.75
X4.88Y-5.75
T3
X1.7787Y-3.46
X1.8287Y-3.36
X1.8787Y-3.46
X1.9287Y-3.36
X1.9787Y-3.46
X2.0287Y-3.36
X2.0787Y-3.46
X2.1287Y-3.36
X2.5268Y-3.46
X2.5768Y-3.36
X2.6268Y-3.46
X2.6768Y-3.36
X2.7268Y-3.46
X2.7768Y-3.36
X2.8268Y-3.46
X2.8768Y-3.36
X3.275Y-3.46
X3.325Y-3.36
X3.375Y-3.46
X3.425Y-3.36
X3.475Y-3.46
X3.525Y-3.36
X3.575Y-3.46
X3.625Y-3.36
X4.0232Y-3.46
X4.0732Y-3.36
X4.1232Y-3.46
X4.1732Y-3.36
X4.2232Y-3.46
X4.2732Y-3.36
X4.3232Y-3.46
X4.3732Y-3.36
X4.7713Y-3.46
X4.8213Y-3.36
X4.8713Y-3.46
X4.9213Y-3.36
X4.9713Y-3.46
X5.0213Y-3.36
X5.0713Y-3.46
X5.1213Y-3.36
T4
X1.9441Y-5.5898
X2.0287Y-5.687
X2.0441Y-5.5898
X2.1087Y-5.687
X2.1886Y-5.687
X2.2685Y-5.687
X2.3484Y-5.687
X2.413Y-5.5898
X2.4283Y-5.687
X2.513Y-5.5898
X2.58Y-4.02
X2.58Y-4.12
X2.68Y-4.02
X2.68Y-4.12
X2.78Y-4.02
X2.78Y-4.12
X2.88Y-4.02
X2.88Y-4.12
X2.93Y-5.59
X2.98Y-4.02
X2.98Y-4.12
X3.03Y-5.59
X3.13Y-5.59
X3.22Y-5.92
X3.23Y-5.59
X3.32Y-5.92
X3.41Y-5.59
X3.42Y-5.92
X3.4884Y-3.654
X3.51Y-5.59
X3.5884Y-3.654
X3.61Y-5.59
X3.71Y-5.59
X3.73Y-5.39
X3.81Y-5.59
X3.83Y-5.39
X3.91Y-5.59
X3.93Y-5.39
X4.01Y-5.59
X4.03Y-5.39
X4.06Y-5.92
X4.11Y-5.59
X4.13Y-5.39
X4.16Y-5.92
X4.26Y-5.92
X4.29Y-5.59
X4.39Y-5.59
X4.49Y-5.59
X4.59Y-5.59
X4.98Y-3.99
X4.98Y-4.09
X4.98Y-4.19
X4.98Y-4.29
X4.98Y-4.39
X4.98Y-4.49
X4.98Y-4.59
X4.98Y-4.69
X4.98Y-4.89
X4.98Y-4.99
X4.98Y-5.09
X4.98Y-5.19
X4.98Y-5.29
X4.98Y-5.39
X4.98Y-5.49
X4.98Y-5.59
T5
X3.1Y-5.2
X3.1Y-5.3772
X3.3559Y-5.2
X3.3559Y-5.3772
T6
X1.9114Y-6.2516
X2.5465Y-6.2516
T7
X1.8504Y-3.7795
X2.7559Y-6.378
X4.5276Y-6.378
X5.0394Y-3.7795
T4
X4.9406Y-5.9843G85X5.0194Y-5.9843
G05
X4.9406Y-6.2205G85X5.0194Y-6.2205
G05
X5.165Y-6.1417G85X5.165Y-6.063
G05
T0
M30
