G04 #@! TF.FileFunction,Legend,Top*
%FSLAX46Y46*%
G04 Gerber Fmt 4.6, Leading zero omitted, Abs format (unit mm)*
G04 Created by KiCad (PCBNEW 4.0.7-e2-6376~58~ubuntu16.04.1) date Wed Jun 27 11:11:34 2018*
%MOMM*%
%LPD*%
G01*
G04 APERTURE LIST*
%ADD10C,0.100000*%
%ADD11C,0.150000*%
%ADD12C,0.120000*%
G04 APERTURE END LIST*
D10*
D11*
X58991000Y-109112000D02*
X58991000Y-109362000D01*
X66741000Y-109112000D02*
X66741000Y-109457000D01*
X66741000Y-127362000D02*
X66741000Y-127017000D01*
X58991000Y-127362000D02*
X58991000Y-127017000D01*
X58991000Y-109112000D02*
X66741000Y-109112000D01*
X58991000Y-127362000D02*
X66741000Y-127362000D01*
X58991000Y-109362000D02*
X57166000Y-109362000D01*
D12*
X90508000Y-164780000D02*
X90508000Y-162880000D01*
X90508000Y-162880000D02*
X85808000Y-162880000D01*
X90508000Y-164780000D02*
X85808000Y-164780000D01*
X81296000Y-164900000D02*
X79296000Y-164900000D01*
X79296000Y-162760000D02*
X81296000Y-162760000D01*
X131092000Y-157000000D02*
X131092000Y-165800000D01*
X131092000Y-165800000D02*
X121892000Y-165800000D01*
X128392000Y-151100000D02*
X131092000Y-151100000D01*
X131092000Y-151100000D02*
X131092000Y-153000000D01*
X121892000Y-165800000D02*
X121892000Y-151100000D01*
X121892000Y-151100000D02*
X124492000Y-151100000D01*
X51864000Y-114754000D02*
X53864000Y-114754000D01*
X53864000Y-116894000D02*
X51864000Y-116894000D01*
X109224000Y-133048000D02*
X109224000Y-131048000D01*
X107184000Y-131048000D02*
X107184000Y-133048000D01*
D11*
X47720000Y-166040000D02*
X47720000Y-161595000D01*
X47720000Y-161595000D02*
X65500000Y-161595000D01*
X65500000Y-148260000D02*
X65500000Y-155245000D01*
X65500000Y-155245000D02*
X65500000Y-166040000D01*
X65500000Y-166040000D02*
X47720000Y-166040000D01*
X47720000Y-166040000D02*
X47720000Y-148260000D01*
X65500000Y-145085000D02*
X65500000Y-140640000D01*
X65500000Y-140640000D02*
X47720000Y-140640000D01*
X47720000Y-140640000D02*
X47720000Y-145085000D01*
X62325000Y-145085000D02*
X62325000Y-148260000D01*
X62325000Y-148260000D02*
X65500000Y-148260000D01*
X65500000Y-148260000D02*
X65500000Y-145085000D01*
X65500000Y-145085000D02*
X62325000Y-145085000D01*
X50895000Y-145085000D02*
X47720000Y-145085000D01*
X47720000Y-145085000D02*
X47720000Y-148260000D01*
X47720000Y-148260000D02*
X50895000Y-148260000D01*
X50895000Y-148260000D02*
X50895000Y-145085000D01*
D12*
X105914000Y-107236000D02*
X105914000Y-109236000D01*
X107954000Y-109236000D02*
X107954000Y-107236000D01*
X97521000Y-119711000D02*
X97521000Y-125961000D01*
X92471000Y-119711000D02*
X92471000Y-125961000D01*
X92471000Y-119711000D02*
G75*
G02X97521000Y-119711000I2525000J0D01*
G01*
X92471000Y-125961000D02*
G75*
G03X97521000Y-125961000I2525000J0D01*
G01*
X57238000Y-71124000D02*
X41998000Y-71124000D01*
X41998000Y-89154000D02*
X42008000Y-80164000D01*
X41998000Y-89154000D02*
X57238000Y-89154000D01*
X57238000Y-89154000D02*
X57238000Y-80154000D01*
X42008000Y-77824000D02*
X41998000Y-71124000D01*
X57238000Y-77834000D02*
X57238000Y-71124000D01*
X90428000Y-136922000D02*
X90428000Y-134922000D01*
X88388000Y-134922000D02*
X88388000Y-136922000D01*
X89658000Y-118412000D02*
X89658000Y-120412000D01*
X91698000Y-120412000D02*
X91698000Y-118412000D01*
X91698000Y-127206000D02*
X91698000Y-125206000D01*
X89658000Y-125206000D02*
X89658000Y-127206000D01*
X119586000Y-117090000D02*
X117586000Y-117090000D01*
X117586000Y-119130000D02*
X119586000Y-119130000D01*
X94230000Y-111554000D02*
X94230000Y-113554000D01*
X96270000Y-113554000D02*
X96270000Y-111554000D01*
X119586000Y-119630000D02*
X117586000Y-119630000D01*
X117586000Y-121670000D02*
X119586000Y-121670000D01*
X78998000Y-121904000D02*
X78998000Y-119904000D01*
X76958000Y-119904000D02*
X76958000Y-121904000D01*
X76958000Y-113046000D02*
X76958000Y-115046000D01*
X78998000Y-115046000D02*
X78998000Y-113046000D01*
X55100000Y-111502000D02*
X55100000Y-111102000D01*
X50520000Y-112272000D02*
X50520000Y-111102000D01*
X50520000Y-107692000D02*
X50520000Y-108862000D01*
X55100000Y-108462000D02*
X55100000Y-108862000D01*
X54330000Y-107692000D02*
X50520000Y-107692000D01*
X54330000Y-107692000D02*
X55100000Y-108462000D01*
X54330000Y-112272000D02*
X50520000Y-112272000D01*
X54330000Y-112272000D02*
X55100000Y-111502000D01*
X112142000Y-157606000D02*
X114822000Y-157606000D01*
X120522000Y-157606000D02*
X117842000Y-157606000D01*
X119762000Y-149226000D02*
X117842000Y-149226000D01*
X112902000Y-149226000D02*
X114822000Y-149226000D01*
X112142000Y-157606000D02*
X112142000Y-149986000D01*
X112142000Y-149986000D02*
X112902000Y-149226000D01*
X119762000Y-149226000D02*
X120522000Y-149986000D01*
X120522000Y-149986000D02*
X120522000Y-157606000D01*
X109224000Y-158480000D02*
X109224000Y-156480000D01*
X107184000Y-156480000D02*
X107184000Y-158480000D01*
X66512000Y-137856000D02*
X66512000Y-139856000D01*
X68552000Y-139856000D02*
X68552000Y-137856000D01*
X41620000Y-138904000D02*
X41620000Y-140904000D01*
X43660000Y-140904000D02*
X43660000Y-138904000D01*
X87888000Y-158480000D02*
X87888000Y-156480000D01*
X85848000Y-156480000D02*
X85848000Y-158480000D01*
X90806000Y-157608000D02*
X93486000Y-157608000D01*
X99186000Y-157608000D02*
X96506000Y-157608000D01*
X98426000Y-149228000D02*
X96506000Y-149228000D01*
X91566000Y-149228000D02*
X93486000Y-149228000D01*
X90806000Y-157608000D02*
X90806000Y-149988000D01*
X90806000Y-149988000D02*
X91566000Y-149228000D01*
X98426000Y-149228000D02*
X99186000Y-149988000D01*
X99186000Y-149988000D02*
X99186000Y-157608000D01*
X104144000Y-158480000D02*
X104144000Y-156480000D01*
X102104000Y-156480000D02*
X102104000Y-158480000D01*
X77212000Y-149856000D02*
X76812000Y-149856000D01*
X77982000Y-154436000D02*
X76812000Y-154436000D01*
X73402000Y-154436000D02*
X74572000Y-154436000D01*
X74172000Y-149856000D02*
X74572000Y-149856000D01*
X73402000Y-150626000D02*
X73402000Y-154436000D01*
X73402000Y-150626000D02*
X74172000Y-149856000D01*
X77982000Y-150626000D02*
X77982000Y-154436000D01*
X77982000Y-150626000D02*
X77212000Y-149856000D01*
X82808000Y-158480000D02*
X82808000Y-156480000D01*
X80768000Y-156480000D02*
X80768000Y-158480000D01*
X64202000Y-100778000D02*
X64202000Y-105978000D01*
X74422000Y-100778000D02*
X64202000Y-100778000D01*
X77022000Y-105978000D02*
X64202000Y-105978000D01*
X74422000Y-100778000D02*
X74422000Y-103378000D01*
X74422000Y-103378000D02*
X77022000Y-103378000D01*
X77022000Y-103378000D02*
X77022000Y-105978000D01*
X75692000Y-100778000D02*
X77022000Y-100778000D01*
X77022000Y-100778000D02*
X77022000Y-102108000D01*
X88436000Y-116304000D02*
X86316000Y-116304000D01*
X86316000Y-116304000D02*
X86316000Y-120424000D01*
X86316000Y-120424000D02*
X88436000Y-120424000D01*
X88436000Y-120424000D02*
X88436000Y-116304000D01*
X87376000Y-115534000D02*
X87376000Y-116304000D01*
X87376000Y-121194000D02*
X87376000Y-120424000D01*
X88436000Y-116964000D02*
X86316000Y-116964000D01*
X119908000Y-103820000D02*
X119908000Y-101920000D01*
X119908000Y-101920000D02*
X115208000Y-101920000D01*
X119908000Y-103820000D02*
X115208000Y-103820000D01*
X119908000Y-100264000D02*
X119908000Y-98364000D01*
X119908000Y-98364000D02*
X115208000Y-98364000D01*
X119908000Y-100264000D02*
X115208000Y-100264000D01*
X118082000Y-144990000D02*
X118082000Y-147110000D01*
X118082000Y-147110000D02*
X122202000Y-147110000D01*
X122202000Y-147110000D02*
X122202000Y-144990000D01*
X122202000Y-144990000D02*
X118082000Y-144990000D01*
X117312000Y-146050000D02*
X118082000Y-146050000D01*
X122972000Y-146050000D02*
X122202000Y-146050000D01*
X118742000Y-144990000D02*
X118742000Y-147110000D01*
X108994000Y-147110000D02*
X108994000Y-144990000D01*
X108994000Y-144990000D02*
X104874000Y-144990000D01*
X104874000Y-144990000D02*
X104874000Y-147110000D01*
X104874000Y-147110000D02*
X108994000Y-147110000D01*
X109764000Y-146050000D02*
X108994000Y-146050000D01*
X104104000Y-146050000D02*
X104874000Y-146050000D01*
X108334000Y-147110000D02*
X108334000Y-144990000D01*
X85118000Y-147110000D02*
X85118000Y-144990000D01*
X85118000Y-144990000D02*
X80998000Y-144990000D01*
X80998000Y-144990000D02*
X80998000Y-147110000D01*
X80998000Y-147110000D02*
X85118000Y-147110000D01*
X85888000Y-146050000D02*
X85118000Y-146050000D01*
X80228000Y-146050000D02*
X80998000Y-146050000D01*
X84458000Y-147110000D02*
X84458000Y-144990000D01*
X125162000Y-120456000D02*
X127822000Y-120456000D01*
X125162000Y-102616000D02*
X125162000Y-120456000D01*
X127822000Y-102616000D02*
X127822000Y-120456000D01*
X125162000Y-102616000D02*
X127822000Y-102616000D01*
X125162000Y-101346000D02*
X125162000Y-100016000D01*
X125162000Y-100016000D02*
X126492000Y-100016000D01*
X127822000Y-122876000D02*
X125162000Y-122876000D01*
X127822000Y-140716000D02*
X127822000Y-122876000D01*
X125162000Y-140716000D02*
X125162000Y-122876000D01*
X127822000Y-140716000D02*
X125162000Y-140716000D01*
X127822000Y-141986000D02*
X127822000Y-143316000D01*
X127822000Y-143316000D02*
X126492000Y-143316000D01*
X106232000Y-138236000D02*
X106232000Y-135576000D01*
X96012000Y-138236000D02*
X106232000Y-138236000D01*
X96012000Y-135576000D02*
X106232000Y-135576000D01*
X96012000Y-138236000D02*
X96012000Y-135576000D01*
X94742000Y-138236000D02*
X93412000Y-138236000D01*
X93412000Y-138236000D02*
X93412000Y-136906000D01*
X114248500Y-71124000D02*
X99008500Y-71124000D01*
X99008500Y-89154000D02*
X99018500Y-80164000D01*
X99008500Y-89154000D02*
X114248500Y-89154000D01*
X114248500Y-89154000D02*
X114248500Y-80154000D01*
X99018500Y-77824000D02*
X99008500Y-71124000D01*
X114248500Y-77834000D02*
X114248500Y-71124000D01*
X105724000Y-143316000D02*
X105724000Y-140656000D01*
X87884000Y-143316000D02*
X105724000Y-143316000D01*
X87884000Y-140656000D02*
X105724000Y-140656000D01*
X87884000Y-143316000D02*
X87884000Y-140656000D01*
X86614000Y-143316000D02*
X85284000Y-143316000D01*
X85284000Y-143316000D02*
X85284000Y-141986000D01*
X95245000Y-71124000D02*
X80005000Y-71124000D01*
X80005000Y-89154000D02*
X80015000Y-80164000D01*
X80005000Y-89154000D02*
X95245000Y-89154000D01*
X95245000Y-89154000D02*
X95245000Y-80154000D01*
X80015000Y-77824000D02*
X80005000Y-71124000D01*
X95245000Y-77834000D02*
X95245000Y-71124000D01*
X133252000Y-71124000D02*
X118012000Y-71124000D01*
X118012000Y-89154000D02*
X118022000Y-80164000D01*
X118012000Y-89154000D02*
X133252000Y-89154000D01*
X133252000Y-89154000D02*
X133252000Y-80154000D01*
X118022000Y-77824000D02*
X118012000Y-71124000D01*
X133252000Y-77834000D02*
X133252000Y-71124000D01*
X117916000Y-143316000D02*
X117916000Y-140656000D01*
X110236000Y-143316000D02*
X117916000Y-143316000D01*
X110236000Y-140656000D02*
X117916000Y-140656000D01*
X110236000Y-143316000D02*
X110236000Y-140656000D01*
X108966000Y-143316000D02*
X107636000Y-143316000D01*
X107636000Y-143316000D02*
X107636000Y-141986000D01*
X76241500Y-71124000D02*
X61001500Y-71124000D01*
X61001500Y-89154000D02*
X61011500Y-80164000D01*
X61001500Y-89154000D02*
X76241500Y-89154000D01*
X76241500Y-89154000D02*
X76241500Y-80154000D01*
X61011500Y-77824000D02*
X61001500Y-71124000D01*
X76241500Y-77834000D02*
X76241500Y-71124000D01*
X83372000Y-143316000D02*
X83372000Y-140656000D01*
X75692000Y-143316000D02*
X83372000Y-143316000D01*
X75692000Y-140656000D02*
X83372000Y-140656000D01*
X75692000Y-143316000D02*
X75692000Y-140656000D01*
X74422000Y-143316000D02*
X73092000Y-143316000D01*
X73092000Y-143316000D02*
X73092000Y-141986000D01*
X92474420Y-94140780D02*
X92474420Y-91480780D01*
X89874420Y-94140780D02*
X92474420Y-94140780D01*
X89874420Y-91480780D02*
X92474420Y-91480780D01*
X89874420Y-94140780D02*
X89874420Y-91480780D01*
X88604420Y-94140780D02*
X87274420Y-94140780D01*
X87274420Y-94140780D02*
X87274420Y-92810780D01*
X119872000Y-122374000D02*
X121872000Y-122374000D01*
X121872000Y-124514000D02*
X119872000Y-124514000D01*
X69510000Y-139824000D02*
X69510000Y-137824000D01*
X71650000Y-137824000D02*
X71650000Y-139824000D01*
X74114000Y-135080000D02*
X74114000Y-133080000D01*
X76254000Y-133080000D02*
X76254000Y-135080000D01*
X91132000Y-113554000D02*
X91132000Y-111554000D01*
X93272000Y-111554000D02*
X93272000Y-113554000D01*
X108188000Y-101800000D02*
X110188000Y-101800000D01*
X110188000Y-103940000D02*
X108188000Y-103940000D01*
X108188000Y-98244000D02*
X110188000Y-98244000D01*
X110188000Y-100384000D02*
X108188000Y-100384000D01*
X75539420Y-93880780D02*
X73539420Y-93880780D01*
X73539420Y-91740780D02*
X75539420Y-91740780D01*
X83222420Y-93880780D02*
X81222420Y-93880780D01*
X81222420Y-91740780D02*
X83222420Y-91740780D01*
X98589420Y-93880780D02*
X96589420Y-93880780D01*
X96589420Y-91740780D02*
X98589420Y-91740780D01*
X96320000Y-103680000D02*
X96320000Y-105680000D01*
X94180000Y-105680000D02*
X94180000Y-103680000D01*
X93018000Y-103680000D02*
X93018000Y-105680000D01*
X90878000Y-105680000D02*
X90878000Y-103680000D01*
X53794000Y-129492000D02*
X53794000Y-127492000D01*
X55934000Y-127492000D02*
X55934000Y-129492000D01*
X68602000Y-145476000D02*
X68602000Y-147476000D01*
X66462000Y-147476000D02*
X66462000Y-145476000D01*
X69510000Y-147476000D02*
X69510000Y-145476000D01*
X71650000Y-145476000D02*
X71650000Y-147476000D01*
X43710000Y-146460000D02*
X43710000Y-148460000D01*
X41570000Y-148460000D02*
X41570000Y-146460000D01*
X44618000Y-148460000D02*
X44618000Y-146460000D01*
X46758000Y-146460000D02*
X46758000Y-148460000D01*
X61166000Y-137532000D02*
X63166000Y-137532000D01*
X63166000Y-139672000D02*
X61166000Y-139672000D01*
X46758000Y-138904000D02*
X46758000Y-140904000D01*
X44618000Y-140904000D02*
X44618000Y-138904000D01*
X79740000Y-137580000D02*
X84240000Y-137580000D01*
X78490000Y-133580000D02*
X78490000Y-135080000D01*
X84240000Y-131080000D02*
X79740000Y-131080000D01*
X85490000Y-135080000D02*
X85490000Y-133580000D01*
D11*
X101378000Y-114421000D02*
X101378000Y-114996000D01*
X111728000Y-114421000D02*
X111728000Y-115096000D01*
X111728000Y-124771000D02*
X111728000Y-124096000D01*
X101378000Y-124771000D02*
X101378000Y-124096000D01*
X101378000Y-114421000D02*
X102053000Y-114421000D01*
X101378000Y-124771000D02*
X102053000Y-124771000D01*
X111728000Y-124771000D02*
X111053000Y-124771000D01*
X111728000Y-114421000D02*
X111053000Y-114421000D01*
X101378000Y-114996000D02*
X100103000Y-114996000D01*
X83150000Y-109103000D02*
X83200000Y-109103000D01*
X83150000Y-104953000D02*
X83295000Y-104953000D01*
X88300000Y-104953000D02*
X88155000Y-104953000D01*
X88300000Y-109103000D02*
X88155000Y-109103000D01*
X83150000Y-109103000D02*
X83150000Y-104953000D01*
X88300000Y-109103000D02*
X88300000Y-104953000D01*
X83200000Y-109103000D02*
X83200000Y-110503000D01*
D12*
X110784000Y-152988000D02*
X100544000Y-152988000D01*
X110784000Y-148347000D02*
X100544000Y-148347000D01*
X110784000Y-152988000D02*
X110784000Y-148347000D01*
X100544000Y-152988000D02*
X100544000Y-148347000D01*
X110784000Y-151478000D02*
X100544000Y-151478000D01*
X107514000Y-152988000D02*
X107514000Y-151478000D01*
X103813000Y-152988000D02*
X103813000Y-151478000D01*
X89448000Y-152988000D02*
X79208000Y-152988000D01*
X89448000Y-148347000D02*
X79208000Y-148347000D01*
X89448000Y-152988000D02*
X89448000Y-148347000D01*
X79208000Y-152988000D02*
X79208000Y-148347000D01*
X89448000Y-151478000D02*
X79208000Y-151478000D01*
X86178000Y-152988000D02*
X86178000Y-151478000D01*
X82477000Y-152988000D02*
X82477000Y-151478000D01*
X71135000Y-120573000D02*
X71135000Y-114323000D01*
X76185000Y-120573000D02*
X76185000Y-114323000D01*
X76185000Y-120573000D02*
G75*
G02X71135000Y-120573000I-2525000J0D01*
G01*
X76185000Y-114323000D02*
G75*
G03X71135000Y-114323000I-2525000J0D01*
G01*
X130286000Y-96000000D02*
G75*
G03X130286000Y-96000000I-2286000J0D01*
G01*
X49286000Y-96000000D02*
G75*
G03X49286000Y-96000000I-2286000J0D01*
G01*
X117286000Y-162000000D02*
G75*
G03X117286000Y-162000000I-2286000J0D01*
G01*
X72286000Y-162000000D02*
G75*
G03X72286000Y-162000000I-2286000J0D01*
G01*
D11*
X62104095Y-117816381D02*
X62104095Y-118625905D01*
X62151714Y-118721143D01*
X62199333Y-118768762D01*
X62294571Y-118816381D01*
X62485048Y-118816381D01*
X62580286Y-118768762D01*
X62627905Y-118721143D01*
X62675524Y-118625905D01*
X62675524Y-117816381D01*
X63056476Y-117816381D02*
X63675524Y-117816381D01*
X63342190Y-118197333D01*
X63485048Y-118197333D01*
X63580286Y-118244952D01*
X63627905Y-118292571D01*
X63675524Y-118387810D01*
X63675524Y-118625905D01*
X63627905Y-118721143D01*
X63580286Y-118768762D01*
X63485048Y-118816381D01*
X63199333Y-118816381D01*
X63104095Y-118768762D01*
X63056476Y-118721143D01*
X86669905Y-164282381D02*
X86669905Y-163282381D01*
X86908000Y-163282381D01*
X87050858Y-163330000D01*
X87146096Y-163425238D01*
X87193715Y-163520476D01*
X87241334Y-163710952D01*
X87241334Y-163853810D01*
X87193715Y-164044286D01*
X87146096Y-164139524D01*
X87050858Y-164234762D01*
X86908000Y-164282381D01*
X86669905Y-164282381D01*
X87574667Y-163282381D02*
X88241334Y-163282381D01*
X87812762Y-164282381D01*
X79621143Y-164282381D02*
X79287809Y-163806190D01*
X79049714Y-164282381D02*
X79049714Y-163282381D01*
X79430667Y-163282381D01*
X79525905Y-163330000D01*
X79573524Y-163377619D01*
X79621143Y-163472857D01*
X79621143Y-163615714D01*
X79573524Y-163710952D01*
X79525905Y-163758571D01*
X79430667Y-163806190D01*
X79049714Y-163806190D01*
X80573524Y-164282381D02*
X80002095Y-164282381D01*
X80287809Y-164282381D02*
X80287809Y-163282381D01*
X80192571Y-163425238D01*
X80097333Y-163520476D01*
X80002095Y-163568095D01*
X81144952Y-163710952D02*
X81049714Y-163663333D01*
X81002095Y-163615714D01*
X80954476Y-163520476D01*
X80954476Y-163472857D01*
X81002095Y-163377619D01*
X81049714Y-163330000D01*
X81144952Y-163282381D01*
X81335429Y-163282381D01*
X81430667Y-163330000D01*
X81478286Y-163377619D01*
X81525905Y-163472857D01*
X81525905Y-163520476D01*
X81478286Y-163615714D01*
X81430667Y-163663333D01*
X81335429Y-163710952D01*
X81144952Y-163710952D01*
X81049714Y-163758571D01*
X81002095Y-163806190D01*
X80954476Y-163901429D01*
X80954476Y-164091905D01*
X81002095Y-164187143D01*
X81049714Y-164234762D01*
X81144952Y-164282381D01*
X81335429Y-164282381D01*
X81430667Y-164234762D01*
X81478286Y-164187143D01*
X81525905Y-164091905D01*
X81525905Y-163901429D01*
X81478286Y-163806190D01*
X81430667Y-163758571D01*
X81335429Y-163710952D01*
X131694381Y-160783333D02*
X132408667Y-160783333D01*
X132551524Y-160830953D01*
X132646762Y-160926191D01*
X132694381Y-161069048D01*
X132694381Y-161164286D01*
X131694381Y-159878571D02*
X131694381Y-160069048D01*
X131742000Y-160164286D01*
X131789619Y-160211905D01*
X131932476Y-160307143D01*
X132122952Y-160354762D01*
X132503905Y-160354762D01*
X132599143Y-160307143D01*
X132646762Y-160259524D01*
X132694381Y-160164286D01*
X132694381Y-159973809D01*
X132646762Y-159878571D01*
X132599143Y-159830952D01*
X132503905Y-159783333D01*
X132265810Y-159783333D01*
X132170571Y-159830952D01*
X132122952Y-159878571D01*
X132075333Y-159973809D01*
X132075333Y-160164286D01*
X132122952Y-160259524D01*
X132170571Y-160307143D01*
X132265810Y-160354762D01*
X52221143Y-116276381D02*
X51887809Y-115800190D01*
X51649714Y-116276381D02*
X51649714Y-115276381D01*
X52030667Y-115276381D01*
X52125905Y-115324000D01*
X52173524Y-115371619D01*
X52221143Y-115466857D01*
X52221143Y-115609714D01*
X52173524Y-115704952D01*
X52125905Y-115752571D01*
X52030667Y-115800190D01*
X51649714Y-115800190D01*
X53173524Y-116276381D02*
X52602095Y-116276381D01*
X52887809Y-116276381D02*
X52887809Y-115276381D01*
X52792571Y-115419238D01*
X52697333Y-115514476D01*
X52602095Y-115562095D01*
X53792571Y-115276381D02*
X53887810Y-115276381D01*
X53983048Y-115324000D01*
X54030667Y-115371619D01*
X54078286Y-115466857D01*
X54125905Y-115657333D01*
X54125905Y-115895429D01*
X54078286Y-116085905D01*
X54030667Y-116181143D01*
X53983048Y-116228762D01*
X53887810Y-116276381D01*
X53792571Y-116276381D01*
X53697333Y-116228762D01*
X53649714Y-116181143D01*
X53602095Y-116085905D01*
X53554476Y-115895429D01*
X53554476Y-115657333D01*
X53602095Y-115466857D01*
X53649714Y-115371619D01*
X53697333Y-115324000D01*
X53792571Y-115276381D01*
X108561143Y-132214666D02*
X108608762Y-132262285D01*
X108656381Y-132405142D01*
X108656381Y-132500380D01*
X108608762Y-132643238D01*
X108513524Y-132738476D01*
X108418286Y-132786095D01*
X108227810Y-132833714D01*
X108084952Y-132833714D01*
X107894476Y-132786095D01*
X107799238Y-132738476D01*
X107704000Y-132643238D01*
X107656381Y-132500380D01*
X107656381Y-132405142D01*
X107704000Y-132262285D01*
X107751619Y-132214666D01*
X107656381Y-131357523D02*
X107656381Y-131548000D01*
X107704000Y-131643238D01*
X107751619Y-131690857D01*
X107894476Y-131786095D01*
X108084952Y-131833714D01*
X108465905Y-131833714D01*
X108561143Y-131786095D01*
X108608762Y-131738476D01*
X108656381Y-131643238D01*
X108656381Y-131452761D01*
X108608762Y-131357523D01*
X108561143Y-131309904D01*
X108465905Y-131262285D01*
X108227810Y-131262285D01*
X108132571Y-131309904D01*
X108084952Y-131357523D01*
X108037333Y-131452761D01*
X108037333Y-131643238D01*
X108084952Y-131738476D01*
X108132571Y-131786095D01*
X108227810Y-131833714D01*
X55800477Y-162952381D02*
X55800477Y-163666667D01*
X55752857Y-163809524D01*
X55657619Y-163904762D01*
X55514762Y-163952381D01*
X55419524Y-163952381D01*
X56800477Y-163952381D02*
X56229048Y-163952381D01*
X56514762Y-163952381D02*
X56514762Y-162952381D01*
X56419524Y-163095238D01*
X56324286Y-163190476D01*
X56229048Y-163238095D01*
X57133810Y-162952381D02*
X57752858Y-162952381D01*
X57419524Y-163333333D01*
X57562382Y-163333333D01*
X57657620Y-163380952D01*
X57705239Y-163428571D01*
X57752858Y-163523810D01*
X57752858Y-163761905D01*
X57705239Y-163857143D01*
X57657620Y-163904762D01*
X57562382Y-163952381D01*
X57276667Y-163952381D01*
X57181429Y-163904762D01*
X57133810Y-163857143D01*
X107291143Y-108402666D02*
X107338762Y-108450285D01*
X107386381Y-108593142D01*
X107386381Y-108688380D01*
X107338762Y-108831238D01*
X107243524Y-108926476D01*
X107148286Y-108974095D01*
X106957810Y-109021714D01*
X106814952Y-109021714D01*
X106624476Y-108974095D01*
X106529238Y-108926476D01*
X106434000Y-108831238D01*
X106386381Y-108688380D01*
X106386381Y-108593142D01*
X106434000Y-108450285D01*
X106481619Y-108402666D01*
X106386381Y-108069333D02*
X106386381Y-107402666D01*
X107386381Y-107831238D01*
X94972190Y-123312191D02*
X95448381Y-123312191D01*
X94448381Y-123645524D02*
X94972190Y-123312191D01*
X94448381Y-122978857D01*
X95448381Y-122121714D02*
X95448381Y-122693143D01*
X95448381Y-122407429D02*
X94448381Y-122407429D01*
X94591238Y-122502667D01*
X94686476Y-122597905D01*
X94734095Y-122693143D01*
X49034667Y-73616381D02*
X49034667Y-74330667D01*
X48987047Y-74473524D01*
X48891809Y-74568762D01*
X48748952Y-74616381D01*
X48653714Y-74616381D01*
X49939429Y-73949714D02*
X49939429Y-74616381D01*
X49701333Y-73568762D02*
X49463238Y-74283048D01*
X50082286Y-74283048D01*
X89765143Y-136088666D02*
X89812762Y-136136285D01*
X89860381Y-136279142D01*
X89860381Y-136374380D01*
X89812762Y-136517238D01*
X89717524Y-136612476D01*
X89622286Y-136660095D01*
X89431810Y-136707714D01*
X89288952Y-136707714D01*
X89098476Y-136660095D01*
X89003238Y-136612476D01*
X88908000Y-136517238D01*
X88860381Y-136374380D01*
X88860381Y-136279142D01*
X88908000Y-136136285D01*
X88955619Y-136088666D01*
X89860381Y-135136285D02*
X89860381Y-135707714D01*
X89860381Y-135422000D02*
X88860381Y-135422000D01*
X89003238Y-135517238D01*
X89098476Y-135612476D01*
X89146095Y-135707714D01*
X91035143Y-119578666D02*
X91082762Y-119626285D01*
X91130381Y-119769142D01*
X91130381Y-119864380D01*
X91082762Y-120007238D01*
X90987524Y-120102476D01*
X90892286Y-120150095D01*
X90701810Y-120197714D01*
X90558952Y-120197714D01*
X90368476Y-120150095D01*
X90273238Y-120102476D01*
X90178000Y-120007238D01*
X90130381Y-119864380D01*
X90130381Y-119769142D01*
X90178000Y-119626285D01*
X90225619Y-119578666D01*
X90225619Y-119197714D02*
X90178000Y-119150095D01*
X90130381Y-119054857D01*
X90130381Y-118816761D01*
X90178000Y-118721523D01*
X90225619Y-118673904D01*
X90320857Y-118626285D01*
X90416095Y-118626285D01*
X90558952Y-118673904D01*
X91130381Y-119245333D01*
X91130381Y-118626285D01*
X91035143Y-126404666D02*
X91082762Y-126452285D01*
X91130381Y-126595142D01*
X91130381Y-126690380D01*
X91082762Y-126833238D01*
X90987524Y-126928476D01*
X90892286Y-126976095D01*
X90701810Y-127023714D01*
X90558952Y-127023714D01*
X90368476Y-126976095D01*
X90273238Y-126928476D01*
X90178000Y-126833238D01*
X90130381Y-126690380D01*
X90130381Y-126595142D01*
X90178000Y-126452285D01*
X90225619Y-126404666D01*
X90130381Y-126071333D02*
X90130381Y-125452285D01*
X90511333Y-125785619D01*
X90511333Y-125642761D01*
X90558952Y-125547523D01*
X90606571Y-125499904D01*
X90701810Y-125452285D01*
X90939905Y-125452285D01*
X91035143Y-125499904D01*
X91082762Y-125547523D01*
X91130381Y-125642761D01*
X91130381Y-125928476D01*
X91082762Y-126023714D01*
X91035143Y-126071333D01*
X118451334Y-118467143D02*
X118403715Y-118514762D01*
X118260858Y-118562381D01*
X118165620Y-118562381D01*
X118022762Y-118514762D01*
X117927524Y-118419524D01*
X117879905Y-118324286D01*
X117832286Y-118133810D01*
X117832286Y-117990952D01*
X117879905Y-117800476D01*
X117927524Y-117705238D01*
X118022762Y-117610000D01*
X118165620Y-117562381D01*
X118260858Y-117562381D01*
X118403715Y-117610000D01*
X118451334Y-117657619D01*
X119308477Y-117895714D02*
X119308477Y-118562381D01*
X119070381Y-117514762D02*
X118832286Y-118229048D01*
X119451334Y-118229048D01*
X95607143Y-112720666D02*
X95654762Y-112768285D01*
X95702381Y-112911142D01*
X95702381Y-113006380D01*
X95654762Y-113149238D01*
X95559524Y-113244476D01*
X95464286Y-113292095D01*
X95273810Y-113339714D01*
X95130952Y-113339714D01*
X94940476Y-113292095D01*
X94845238Y-113244476D01*
X94750000Y-113149238D01*
X94702381Y-113006380D01*
X94702381Y-112911142D01*
X94750000Y-112768285D01*
X94797619Y-112720666D01*
X94702381Y-111815904D02*
X94702381Y-112292095D01*
X95178571Y-112339714D01*
X95130952Y-112292095D01*
X95083333Y-112196857D01*
X95083333Y-111958761D01*
X95130952Y-111863523D01*
X95178571Y-111815904D01*
X95273810Y-111768285D01*
X95511905Y-111768285D01*
X95607143Y-111815904D01*
X95654762Y-111863523D01*
X95702381Y-111958761D01*
X95702381Y-112196857D01*
X95654762Y-112292095D01*
X95607143Y-112339714D01*
X118451334Y-121007143D02*
X118403715Y-121054762D01*
X118260858Y-121102381D01*
X118165620Y-121102381D01*
X118022762Y-121054762D01*
X117927524Y-120959524D01*
X117879905Y-120864286D01*
X117832286Y-120673810D01*
X117832286Y-120530952D01*
X117879905Y-120340476D01*
X117927524Y-120245238D01*
X118022762Y-120150000D01*
X118165620Y-120102381D01*
X118260858Y-120102381D01*
X118403715Y-120150000D01*
X118451334Y-120197619D01*
X119022762Y-120530952D02*
X118927524Y-120483333D01*
X118879905Y-120435714D01*
X118832286Y-120340476D01*
X118832286Y-120292857D01*
X118879905Y-120197619D01*
X118927524Y-120150000D01*
X119022762Y-120102381D01*
X119213239Y-120102381D01*
X119308477Y-120150000D01*
X119356096Y-120197619D01*
X119403715Y-120292857D01*
X119403715Y-120340476D01*
X119356096Y-120435714D01*
X119308477Y-120483333D01*
X119213239Y-120530952D01*
X119022762Y-120530952D01*
X118927524Y-120578571D01*
X118879905Y-120626190D01*
X118832286Y-120721429D01*
X118832286Y-120911905D01*
X118879905Y-121007143D01*
X118927524Y-121054762D01*
X119022762Y-121102381D01*
X119213239Y-121102381D01*
X119308477Y-121054762D01*
X119356096Y-121007143D01*
X119403715Y-120911905D01*
X119403715Y-120721429D01*
X119356096Y-120626190D01*
X119308477Y-120578571D01*
X119213239Y-120530952D01*
X78335143Y-121070666D02*
X78382762Y-121118285D01*
X78430381Y-121261142D01*
X78430381Y-121356380D01*
X78382762Y-121499238D01*
X78287524Y-121594476D01*
X78192286Y-121642095D01*
X78001810Y-121689714D01*
X77858952Y-121689714D01*
X77668476Y-121642095D01*
X77573238Y-121594476D01*
X77478000Y-121499238D01*
X77430381Y-121356380D01*
X77430381Y-121261142D01*
X77478000Y-121118285D01*
X77525619Y-121070666D01*
X78430381Y-120594476D02*
X78430381Y-120404000D01*
X78382762Y-120308761D01*
X78335143Y-120261142D01*
X78192286Y-120165904D01*
X78001810Y-120118285D01*
X77620857Y-120118285D01*
X77525619Y-120165904D01*
X77478000Y-120213523D01*
X77430381Y-120308761D01*
X77430381Y-120499238D01*
X77478000Y-120594476D01*
X77525619Y-120642095D01*
X77620857Y-120689714D01*
X77858952Y-120689714D01*
X77954190Y-120642095D01*
X78001810Y-120594476D01*
X78049429Y-120499238D01*
X78049429Y-120308761D01*
X78001810Y-120213523D01*
X77954190Y-120165904D01*
X77858952Y-120118285D01*
X78335143Y-114688857D02*
X78382762Y-114736476D01*
X78430381Y-114879333D01*
X78430381Y-114974571D01*
X78382762Y-115117429D01*
X78287524Y-115212667D01*
X78192286Y-115260286D01*
X78001810Y-115307905D01*
X77858952Y-115307905D01*
X77668476Y-115260286D01*
X77573238Y-115212667D01*
X77478000Y-115117429D01*
X77430381Y-114974571D01*
X77430381Y-114879333D01*
X77478000Y-114736476D01*
X77525619Y-114688857D01*
X78430381Y-113736476D02*
X78430381Y-114307905D01*
X78430381Y-114022191D02*
X77430381Y-114022191D01*
X77573238Y-114117429D01*
X77668476Y-114212667D01*
X77716095Y-114307905D01*
X77430381Y-113117429D02*
X77430381Y-113022190D01*
X77478000Y-112926952D01*
X77525619Y-112879333D01*
X77620857Y-112831714D01*
X77811333Y-112784095D01*
X78049429Y-112784095D01*
X78239905Y-112831714D01*
X78335143Y-112879333D01*
X78382762Y-112926952D01*
X78430381Y-113022190D01*
X78430381Y-113117429D01*
X78382762Y-113212667D01*
X78335143Y-113260286D01*
X78239905Y-113307905D01*
X78049429Y-113355524D01*
X77811333Y-113355524D01*
X77620857Y-113307905D01*
X77525619Y-113260286D01*
X77478000Y-113212667D01*
X77430381Y-113117429D01*
X52189143Y-110339143D02*
X52141524Y-110386762D01*
X51998667Y-110434381D01*
X51903429Y-110434381D01*
X51760571Y-110386762D01*
X51665333Y-110291524D01*
X51617714Y-110196286D01*
X51570095Y-110005810D01*
X51570095Y-109862952D01*
X51617714Y-109672476D01*
X51665333Y-109577238D01*
X51760571Y-109482000D01*
X51903429Y-109434381D01*
X51998667Y-109434381D01*
X52141524Y-109482000D01*
X52189143Y-109529619D01*
X53141524Y-110434381D02*
X52570095Y-110434381D01*
X52855809Y-110434381D02*
X52855809Y-109434381D01*
X52760571Y-109577238D01*
X52665333Y-109672476D01*
X52570095Y-109720095D01*
X54093905Y-110434381D02*
X53522476Y-110434381D01*
X53808190Y-110434381D02*
X53808190Y-109434381D01*
X53712952Y-109577238D01*
X53617714Y-109672476D01*
X53522476Y-109720095D01*
X55199048Y-108043429D02*
X55960953Y-108043429D01*
X55580001Y-108424381D02*
X55580001Y-107662476D01*
X116689143Y-154058857D02*
X116736762Y-154106476D01*
X116784381Y-154249333D01*
X116784381Y-154344571D01*
X116736762Y-154487429D01*
X116641524Y-154582667D01*
X116546286Y-154630286D01*
X116355810Y-154677905D01*
X116212952Y-154677905D01*
X116022476Y-154630286D01*
X115927238Y-154582667D01*
X115832000Y-154487429D01*
X115784381Y-154344571D01*
X115784381Y-154249333D01*
X115832000Y-154106476D01*
X115879619Y-154058857D01*
X116784381Y-153106476D02*
X116784381Y-153677905D01*
X116784381Y-153392191D02*
X115784381Y-153392191D01*
X115927238Y-153487429D01*
X116022476Y-153582667D01*
X116070095Y-153677905D01*
X115879619Y-152725524D02*
X115832000Y-152677905D01*
X115784381Y-152582667D01*
X115784381Y-152344571D01*
X115832000Y-152249333D01*
X115879619Y-152201714D01*
X115974857Y-152154095D01*
X116070095Y-152154095D01*
X116212952Y-152201714D01*
X116784381Y-152773143D01*
X116784381Y-152154095D01*
X112503429Y-149016952D02*
X112503429Y-148255047D01*
X112884381Y-148635999D02*
X112122476Y-148635999D01*
X108561143Y-158122857D02*
X108608762Y-158170476D01*
X108656381Y-158313333D01*
X108656381Y-158408571D01*
X108608762Y-158551429D01*
X108513524Y-158646667D01*
X108418286Y-158694286D01*
X108227810Y-158741905D01*
X108084952Y-158741905D01*
X107894476Y-158694286D01*
X107799238Y-158646667D01*
X107704000Y-158551429D01*
X107656381Y-158408571D01*
X107656381Y-158313333D01*
X107704000Y-158170476D01*
X107751619Y-158122857D01*
X108656381Y-157170476D02*
X108656381Y-157741905D01*
X108656381Y-157456191D02*
X107656381Y-157456191D01*
X107799238Y-157551429D01*
X107894476Y-157646667D01*
X107942095Y-157741905D01*
X107656381Y-156837143D02*
X107656381Y-156218095D01*
X108037333Y-156551429D01*
X108037333Y-156408571D01*
X108084952Y-156313333D01*
X108132571Y-156265714D01*
X108227810Y-156218095D01*
X108465905Y-156218095D01*
X108561143Y-156265714D01*
X108608762Y-156313333D01*
X108656381Y-156408571D01*
X108656381Y-156694286D01*
X108608762Y-156789524D01*
X108561143Y-156837143D01*
X67921143Y-139498857D02*
X67968762Y-139546476D01*
X68016381Y-139689333D01*
X68016381Y-139784571D01*
X67968762Y-139927429D01*
X67873524Y-140022667D01*
X67778286Y-140070286D01*
X67587810Y-140117905D01*
X67444952Y-140117905D01*
X67254476Y-140070286D01*
X67159238Y-140022667D01*
X67064000Y-139927429D01*
X67016381Y-139784571D01*
X67016381Y-139689333D01*
X67064000Y-139546476D01*
X67111619Y-139498857D01*
X68016381Y-138546476D02*
X68016381Y-139117905D01*
X68016381Y-138832191D02*
X67016381Y-138832191D01*
X67159238Y-138927429D01*
X67254476Y-139022667D01*
X67302095Y-139117905D01*
X67349714Y-137689333D02*
X68016381Y-137689333D01*
X66968762Y-137927429D02*
X67683048Y-138165524D01*
X67683048Y-137546476D01*
X43029143Y-140546857D02*
X43076762Y-140594476D01*
X43124381Y-140737333D01*
X43124381Y-140832571D01*
X43076762Y-140975429D01*
X42981524Y-141070667D01*
X42886286Y-141118286D01*
X42695810Y-141165905D01*
X42552952Y-141165905D01*
X42362476Y-141118286D01*
X42267238Y-141070667D01*
X42172000Y-140975429D01*
X42124381Y-140832571D01*
X42124381Y-140737333D01*
X42172000Y-140594476D01*
X42219619Y-140546857D01*
X43124381Y-139594476D02*
X43124381Y-140165905D01*
X43124381Y-139880191D02*
X42124381Y-139880191D01*
X42267238Y-139975429D01*
X42362476Y-140070667D01*
X42410095Y-140165905D01*
X42124381Y-138689714D02*
X42124381Y-139165905D01*
X42600571Y-139213524D01*
X42552952Y-139165905D01*
X42505333Y-139070667D01*
X42505333Y-138832571D01*
X42552952Y-138737333D01*
X42600571Y-138689714D01*
X42695810Y-138642095D01*
X42933905Y-138642095D01*
X43029143Y-138689714D01*
X43076762Y-138737333D01*
X43124381Y-138832571D01*
X43124381Y-139070667D01*
X43076762Y-139165905D01*
X43029143Y-139213524D01*
X87225143Y-158122857D02*
X87272762Y-158170476D01*
X87320381Y-158313333D01*
X87320381Y-158408571D01*
X87272762Y-158551429D01*
X87177524Y-158646667D01*
X87082286Y-158694286D01*
X86891810Y-158741905D01*
X86748952Y-158741905D01*
X86558476Y-158694286D01*
X86463238Y-158646667D01*
X86368000Y-158551429D01*
X86320381Y-158408571D01*
X86320381Y-158313333D01*
X86368000Y-158170476D01*
X86415619Y-158122857D01*
X87320381Y-157170476D02*
X87320381Y-157741905D01*
X87320381Y-157456191D02*
X86320381Y-157456191D01*
X86463238Y-157551429D01*
X86558476Y-157646667D01*
X86606095Y-157741905D01*
X86320381Y-156313333D02*
X86320381Y-156503810D01*
X86368000Y-156599048D01*
X86415619Y-156646667D01*
X86558476Y-156741905D01*
X86748952Y-156789524D01*
X87129905Y-156789524D01*
X87225143Y-156741905D01*
X87272762Y-156694286D01*
X87320381Y-156599048D01*
X87320381Y-156408571D01*
X87272762Y-156313333D01*
X87225143Y-156265714D01*
X87129905Y-156218095D01*
X86891810Y-156218095D01*
X86796571Y-156265714D01*
X86748952Y-156313333D01*
X86701333Y-156408571D01*
X86701333Y-156599048D01*
X86748952Y-156694286D01*
X86796571Y-156741905D01*
X86891810Y-156789524D01*
X95353143Y-154058857D02*
X95400762Y-154106476D01*
X95448381Y-154249333D01*
X95448381Y-154344571D01*
X95400762Y-154487429D01*
X95305524Y-154582667D01*
X95210286Y-154630286D01*
X95019810Y-154677905D01*
X94876952Y-154677905D01*
X94686476Y-154630286D01*
X94591238Y-154582667D01*
X94496000Y-154487429D01*
X94448381Y-154344571D01*
X94448381Y-154249333D01*
X94496000Y-154106476D01*
X94543619Y-154058857D01*
X95448381Y-153106476D02*
X95448381Y-153677905D01*
X95448381Y-153392191D02*
X94448381Y-153392191D01*
X94591238Y-153487429D01*
X94686476Y-153582667D01*
X94734095Y-153677905D01*
X94448381Y-152773143D02*
X94448381Y-152106476D01*
X95448381Y-152535048D01*
X91167429Y-149018952D02*
X91167429Y-148257047D01*
X91548381Y-148637999D02*
X90786476Y-148637999D01*
X103481143Y-158122857D02*
X103528762Y-158170476D01*
X103576381Y-158313333D01*
X103576381Y-158408571D01*
X103528762Y-158551429D01*
X103433524Y-158646667D01*
X103338286Y-158694286D01*
X103147810Y-158741905D01*
X103004952Y-158741905D01*
X102814476Y-158694286D01*
X102719238Y-158646667D01*
X102624000Y-158551429D01*
X102576381Y-158408571D01*
X102576381Y-158313333D01*
X102624000Y-158170476D01*
X102671619Y-158122857D01*
X103576381Y-157170476D02*
X103576381Y-157741905D01*
X103576381Y-157456191D02*
X102576381Y-157456191D01*
X102719238Y-157551429D01*
X102814476Y-157646667D01*
X102862095Y-157741905D01*
X103004952Y-156599048D02*
X102957333Y-156694286D01*
X102909714Y-156741905D01*
X102814476Y-156789524D01*
X102766857Y-156789524D01*
X102671619Y-156741905D01*
X102624000Y-156694286D01*
X102576381Y-156599048D01*
X102576381Y-156408571D01*
X102624000Y-156313333D01*
X102671619Y-156265714D01*
X102766857Y-156218095D01*
X102814476Y-156218095D01*
X102909714Y-156265714D01*
X102957333Y-156313333D01*
X103004952Y-156408571D01*
X103004952Y-156599048D01*
X103052571Y-156694286D01*
X103100190Y-156741905D01*
X103195429Y-156789524D01*
X103385905Y-156789524D01*
X103481143Y-156741905D01*
X103528762Y-156694286D01*
X103576381Y-156599048D01*
X103576381Y-156408571D01*
X103528762Y-156313333D01*
X103481143Y-156265714D01*
X103385905Y-156218095D01*
X103195429Y-156218095D01*
X103100190Y-156265714D01*
X103052571Y-156313333D01*
X103004952Y-156408571D01*
X76049143Y-152788857D02*
X76096762Y-152836476D01*
X76144381Y-152979333D01*
X76144381Y-153074571D01*
X76096762Y-153217429D01*
X76001524Y-153312667D01*
X75906286Y-153360286D01*
X75715810Y-153407905D01*
X75572952Y-153407905D01*
X75382476Y-153360286D01*
X75287238Y-153312667D01*
X75192000Y-153217429D01*
X75144381Y-153074571D01*
X75144381Y-152979333D01*
X75192000Y-152836476D01*
X75239619Y-152788857D01*
X76144381Y-151836476D02*
X76144381Y-152407905D01*
X76144381Y-152122191D02*
X75144381Y-152122191D01*
X75287238Y-152217429D01*
X75382476Y-152312667D01*
X75430095Y-152407905D01*
X76144381Y-151360286D02*
X76144381Y-151169810D01*
X76096762Y-151074571D01*
X76049143Y-151026952D01*
X75906286Y-150931714D01*
X75715810Y-150884095D01*
X75334857Y-150884095D01*
X75239619Y-150931714D01*
X75192000Y-150979333D01*
X75144381Y-151074571D01*
X75144381Y-151265048D01*
X75192000Y-151360286D01*
X75239619Y-151407905D01*
X75334857Y-151455524D01*
X75572952Y-151455524D01*
X75668190Y-151407905D01*
X75715810Y-151360286D01*
X75763429Y-151265048D01*
X75763429Y-151074571D01*
X75715810Y-150979333D01*
X75668190Y-150931714D01*
X75572952Y-150884095D01*
X73753429Y-149756952D02*
X73753429Y-148995047D01*
X74134381Y-149375999D02*
X73372476Y-149375999D01*
X82145143Y-158122857D02*
X82192762Y-158170476D01*
X82240381Y-158313333D01*
X82240381Y-158408571D01*
X82192762Y-158551429D01*
X82097524Y-158646667D01*
X82002286Y-158694286D01*
X81811810Y-158741905D01*
X81668952Y-158741905D01*
X81478476Y-158694286D01*
X81383238Y-158646667D01*
X81288000Y-158551429D01*
X81240381Y-158408571D01*
X81240381Y-158313333D01*
X81288000Y-158170476D01*
X81335619Y-158122857D01*
X81335619Y-157741905D02*
X81288000Y-157694286D01*
X81240381Y-157599048D01*
X81240381Y-157360952D01*
X81288000Y-157265714D01*
X81335619Y-157218095D01*
X81430857Y-157170476D01*
X81526095Y-157170476D01*
X81668952Y-157218095D01*
X82240381Y-157789524D01*
X82240381Y-157170476D01*
X81240381Y-156551429D02*
X81240381Y-156456190D01*
X81288000Y-156360952D01*
X81335619Y-156313333D01*
X81430857Y-156265714D01*
X81621333Y-156218095D01*
X81859429Y-156218095D01*
X82049905Y-156265714D01*
X82145143Y-156313333D01*
X82192762Y-156360952D01*
X82240381Y-156456190D01*
X82240381Y-156551429D01*
X82192762Y-156646667D01*
X82145143Y-156694286D01*
X82049905Y-156741905D01*
X81859429Y-156789524D01*
X81621333Y-156789524D01*
X81430857Y-156741905D01*
X81335619Y-156694286D01*
X81288000Y-156646667D01*
X81240381Y-156551429D01*
X78379143Y-104592285D02*
X78426762Y-104639904D01*
X78474381Y-104782761D01*
X78474381Y-104877999D01*
X78426762Y-105020857D01*
X78331524Y-105116095D01*
X78236286Y-105163714D01*
X78045810Y-105211333D01*
X77902952Y-105211333D01*
X77712476Y-105163714D01*
X77617238Y-105116095D01*
X77522000Y-105020857D01*
X77474381Y-104877999D01*
X77474381Y-104782761D01*
X77522000Y-104639904D01*
X77569619Y-104592285D01*
X77474381Y-103973238D02*
X77474381Y-103782761D01*
X77522000Y-103687523D01*
X77617238Y-103592285D01*
X77807714Y-103544666D01*
X78141048Y-103544666D01*
X78331524Y-103592285D01*
X78426762Y-103687523D01*
X78474381Y-103782761D01*
X78474381Y-103973238D01*
X78426762Y-104068476D01*
X78331524Y-104163714D01*
X78141048Y-104211333D01*
X77807714Y-104211333D01*
X77617238Y-104163714D01*
X77522000Y-104068476D01*
X77474381Y-103973238D01*
X78474381Y-103116095D02*
X77474381Y-103116095D01*
X78474381Y-102544666D01*
X77474381Y-102544666D01*
X78474381Y-101544666D02*
X78474381Y-102116095D01*
X78474381Y-101830381D02*
X77474381Y-101830381D01*
X77617238Y-101925619D01*
X77712476Y-102020857D01*
X77760095Y-102116095D01*
X87828381Y-119102095D02*
X86828381Y-119102095D01*
X86828381Y-118864000D01*
X86876000Y-118721142D01*
X86971238Y-118625904D01*
X87066476Y-118578285D01*
X87256952Y-118530666D01*
X87399810Y-118530666D01*
X87590286Y-118578285D01*
X87685524Y-118625904D01*
X87780762Y-118721142D01*
X87828381Y-118864000D01*
X87828381Y-119102095D01*
X87828381Y-117578285D02*
X87828381Y-118149714D01*
X87828381Y-117864000D02*
X86828381Y-117864000D01*
X86971238Y-117959238D01*
X87066476Y-118054476D01*
X87114095Y-118149714D01*
X116069905Y-103322381D02*
X116069905Y-102322381D01*
X116308000Y-102322381D01*
X116450858Y-102370000D01*
X116546096Y-102465238D01*
X116593715Y-102560476D01*
X116641334Y-102750952D01*
X116641334Y-102893810D01*
X116593715Y-103084286D01*
X116546096Y-103179524D01*
X116450858Y-103274762D01*
X116308000Y-103322381D01*
X116069905Y-103322381D01*
X117022286Y-102417619D02*
X117069905Y-102370000D01*
X117165143Y-102322381D01*
X117403239Y-102322381D01*
X117498477Y-102370000D01*
X117546096Y-102417619D01*
X117593715Y-102512857D01*
X117593715Y-102608095D01*
X117546096Y-102750952D01*
X116974667Y-103322381D01*
X117593715Y-103322381D01*
X116069905Y-99766381D02*
X116069905Y-98766381D01*
X116308000Y-98766381D01*
X116450858Y-98814000D01*
X116546096Y-98909238D01*
X116593715Y-99004476D01*
X116641334Y-99194952D01*
X116641334Y-99337810D01*
X116593715Y-99528286D01*
X116546096Y-99623524D01*
X116450858Y-99718762D01*
X116308000Y-99766381D01*
X116069905Y-99766381D01*
X116974667Y-98766381D02*
X117593715Y-98766381D01*
X117260381Y-99147333D01*
X117403239Y-99147333D01*
X117498477Y-99194952D01*
X117546096Y-99242571D01*
X117593715Y-99337810D01*
X117593715Y-99575905D01*
X117546096Y-99671143D01*
X117498477Y-99718762D01*
X117403239Y-99766381D01*
X117117524Y-99766381D01*
X117022286Y-99718762D01*
X116974667Y-99671143D01*
X119657905Y-146502381D02*
X119657905Y-145502381D01*
X119896000Y-145502381D01*
X120038858Y-145550000D01*
X120134096Y-145645238D01*
X120181715Y-145740476D01*
X120229334Y-145930952D01*
X120229334Y-146073810D01*
X120181715Y-146264286D01*
X120134096Y-146359524D01*
X120038858Y-146454762D01*
X119896000Y-146502381D01*
X119657905Y-146502381D01*
X121086477Y-145835714D02*
X121086477Y-146502381D01*
X120848381Y-145454762D02*
X120610286Y-146169048D01*
X121229334Y-146169048D01*
X105941905Y-146502381D02*
X105941905Y-145502381D01*
X106180000Y-145502381D01*
X106322858Y-145550000D01*
X106418096Y-145645238D01*
X106465715Y-145740476D01*
X106513334Y-145930952D01*
X106513334Y-146073810D01*
X106465715Y-146264286D01*
X106418096Y-146359524D01*
X106322858Y-146454762D01*
X106180000Y-146502381D01*
X105941905Y-146502381D01*
X107418096Y-145502381D02*
X106941905Y-145502381D01*
X106894286Y-145978571D01*
X106941905Y-145930952D01*
X107037143Y-145883333D01*
X107275239Y-145883333D01*
X107370477Y-145930952D01*
X107418096Y-145978571D01*
X107465715Y-146073810D01*
X107465715Y-146311905D01*
X107418096Y-146407143D01*
X107370477Y-146454762D01*
X107275239Y-146502381D01*
X107037143Y-146502381D01*
X106941905Y-146454762D01*
X106894286Y-146407143D01*
X82065905Y-146502381D02*
X82065905Y-145502381D01*
X82304000Y-145502381D01*
X82446858Y-145550000D01*
X82542096Y-145645238D01*
X82589715Y-145740476D01*
X82637334Y-145930952D01*
X82637334Y-146073810D01*
X82589715Y-146264286D01*
X82542096Y-146359524D01*
X82446858Y-146454762D01*
X82304000Y-146502381D01*
X82065905Y-146502381D01*
X83494477Y-145502381D02*
X83304000Y-145502381D01*
X83208762Y-145550000D01*
X83161143Y-145597619D01*
X83065905Y-145740476D01*
X83018286Y-145930952D01*
X83018286Y-146311905D01*
X83065905Y-146407143D01*
X83113524Y-146454762D01*
X83208762Y-146502381D01*
X83399239Y-146502381D01*
X83494477Y-146454762D01*
X83542096Y-146407143D01*
X83589715Y-146311905D01*
X83589715Y-146073810D01*
X83542096Y-145978571D01*
X83494477Y-145930952D01*
X83399239Y-145883333D01*
X83208762Y-145883333D01*
X83113524Y-145930952D01*
X83065905Y-145978571D01*
X83018286Y-146073810D01*
X126158667Y-98468381D02*
X126158667Y-99182667D01*
X126111047Y-99325524D01*
X126015809Y-99420762D01*
X125872952Y-99468381D01*
X125777714Y-99468381D01*
X127158667Y-99468381D02*
X126587238Y-99468381D01*
X126872952Y-99468381D02*
X126872952Y-98468381D01*
X126777714Y-98611238D01*
X126682476Y-98706476D01*
X126587238Y-98754095D01*
X126158667Y-143768381D02*
X126158667Y-144482667D01*
X126111047Y-144625524D01*
X126015809Y-144720762D01*
X125872952Y-144768381D01*
X125777714Y-144768381D01*
X126587238Y-143863619D02*
X126634857Y-143816000D01*
X126730095Y-143768381D01*
X126968191Y-143768381D01*
X127063429Y-143816000D01*
X127111048Y-143863619D01*
X127158667Y-143958857D01*
X127158667Y-144054095D01*
X127111048Y-144196952D01*
X126539619Y-144768381D01*
X127158667Y-144768381D01*
X91864381Y-137239333D02*
X92578667Y-137239333D01*
X92721524Y-137286953D01*
X92816762Y-137382191D01*
X92864381Y-137525048D01*
X92864381Y-137620286D01*
X91864381Y-136858381D02*
X91864381Y-136239333D01*
X92245333Y-136572667D01*
X92245333Y-136429809D01*
X92292952Y-136334571D01*
X92340571Y-136286952D01*
X92435810Y-136239333D01*
X92673905Y-136239333D01*
X92769143Y-136286952D01*
X92816762Y-136334571D01*
X92864381Y-136429809D01*
X92864381Y-136715524D01*
X92816762Y-136810762D01*
X92769143Y-136858381D01*
X106045167Y-73616381D02*
X106045167Y-74330667D01*
X105997547Y-74473524D01*
X105902309Y-74568762D01*
X105759452Y-74616381D01*
X105664214Y-74616381D01*
X106997548Y-73616381D02*
X106521357Y-73616381D01*
X106473738Y-74092571D01*
X106521357Y-74044952D01*
X106616595Y-73997333D01*
X106854691Y-73997333D01*
X106949929Y-74044952D01*
X106997548Y-74092571D01*
X107045167Y-74187810D01*
X107045167Y-74425905D01*
X106997548Y-74521143D01*
X106949929Y-74568762D01*
X106854691Y-74616381D01*
X106616595Y-74616381D01*
X106521357Y-74568762D01*
X106473738Y-74521143D01*
X83736381Y-142319333D02*
X84450667Y-142319333D01*
X84593524Y-142366953D01*
X84688762Y-142462191D01*
X84736381Y-142605048D01*
X84736381Y-142700286D01*
X83736381Y-141938381D02*
X83736381Y-141271714D01*
X84736381Y-141700286D01*
X87041667Y-73616381D02*
X87041667Y-74330667D01*
X86994047Y-74473524D01*
X86898809Y-74568762D01*
X86755952Y-74616381D01*
X86660714Y-74616381D01*
X87660714Y-74044952D02*
X87565476Y-73997333D01*
X87517857Y-73949714D01*
X87470238Y-73854476D01*
X87470238Y-73806857D01*
X87517857Y-73711619D01*
X87565476Y-73664000D01*
X87660714Y-73616381D01*
X87851191Y-73616381D01*
X87946429Y-73664000D01*
X87994048Y-73711619D01*
X88041667Y-73806857D01*
X88041667Y-73854476D01*
X87994048Y-73949714D01*
X87946429Y-73997333D01*
X87851191Y-74044952D01*
X87660714Y-74044952D01*
X87565476Y-74092571D01*
X87517857Y-74140190D01*
X87470238Y-74235429D01*
X87470238Y-74425905D01*
X87517857Y-74521143D01*
X87565476Y-74568762D01*
X87660714Y-74616381D01*
X87851191Y-74616381D01*
X87946429Y-74568762D01*
X87994048Y-74521143D01*
X88041667Y-74425905D01*
X88041667Y-74235429D01*
X87994048Y-74140190D01*
X87946429Y-74092571D01*
X87851191Y-74044952D01*
X125048667Y-73616381D02*
X125048667Y-74330667D01*
X125001047Y-74473524D01*
X124905809Y-74568762D01*
X124762952Y-74616381D01*
X124667714Y-74616381D01*
X125572476Y-74616381D02*
X125762952Y-74616381D01*
X125858191Y-74568762D01*
X125905810Y-74521143D01*
X126001048Y-74378286D01*
X126048667Y-74187810D01*
X126048667Y-73806857D01*
X126001048Y-73711619D01*
X125953429Y-73664000D01*
X125858191Y-73616381D01*
X125667714Y-73616381D01*
X125572476Y-73664000D01*
X125524857Y-73711619D01*
X125477238Y-73806857D01*
X125477238Y-74044952D01*
X125524857Y-74140190D01*
X125572476Y-74187810D01*
X125667714Y-74235429D01*
X125858191Y-74235429D01*
X125953429Y-74187810D01*
X126001048Y-74140190D01*
X126048667Y-74044952D01*
X106088381Y-142795523D02*
X106802667Y-142795523D01*
X106945524Y-142843143D01*
X107040762Y-142938381D01*
X107088381Y-143081238D01*
X107088381Y-143176476D01*
X107088381Y-141795523D02*
X107088381Y-142366952D01*
X107088381Y-142081238D02*
X106088381Y-142081238D01*
X106231238Y-142176476D01*
X106326476Y-142271714D01*
X106374095Y-142366952D01*
X106088381Y-141176476D02*
X106088381Y-141081237D01*
X106136000Y-140985999D01*
X106183619Y-140938380D01*
X106278857Y-140890761D01*
X106469333Y-140843142D01*
X106707429Y-140843142D01*
X106897905Y-140890761D01*
X106993143Y-140938380D01*
X107040762Y-140985999D01*
X107088381Y-141081237D01*
X107088381Y-141176476D01*
X107040762Y-141271714D01*
X106993143Y-141319333D01*
X106897905Y-141366952D01*
X106707429Y-141414571D01*
X106469333Y-141414571D01*
X106278857Y-141366952D01*
X106183619Y-141319333D01*
X106136000Y-141271714D01*
X106088381Y-141176476D01*
X67561977Y-73616381D02*
X67561977Y-74330667D01*
X67514357Y-74473524D01*
X67419119Y-74568762D01*
X67276262Y-74616381D01*
X67181024Y-74616381D01*
X68561977Y-74616381D02*
X67990548Y-74616381D01*
X68276262Y-74616381D02*
X68276262Y-73616381D01*
X68181024Y-73759238D01*
X68085786Y-73854476D01*
X67990548Y-73902095D01*
X69514358Y-74616381D02*
X68942929Y-74616381D01*
X69228643Y-74616381D02*
X69228643Y-73616381D01*
X69133405Y-73759238D01*
X69038167Y-73854476D01*
X68942929Y-73902095D01*
X71544381Y-142795523D02*
X72258667Y-142795523D01*
X72401524Y-142843143D01*
X72496762Y-142938381D01*
X72544381Y-143081238D01*
X72544381Y-143176476D01*
X72544381Y-141795523D02*
X72544381Y-142366952D01*
X72544381Y-142081238D02*
X71544381Y-142081238D01*
X71687238Y-142176476D01*
X71782476Y-142271714D01*
X71830095Y-142366952D01*
X71639619Y-141414571D02*
X71592000Y-141366952D01*
X71544381Y-141271714D01*
X71544381Y-141033618D01*
X71592000Y-140938380D01*
X71639619Y-140890761D01*
X71734857Y-140843142D01*
X71830095Y-140843142D01*
X71972952Y-140890761D01*
X72544381Y-141462190D01*
X72544381Y-140843142D01*
X85726801Y-93644113D02*
X86441087Y-93644113D01*
X86583944Y-93691733D01*
X86679182Y-93786971D01*
X86726801Y-93929828D01*
X86726801Y-94025066D01*
X86726801Y-93167923D02*
X85726801Y-93167923D01*
X85726801Y-92786970D01*
X85774420Y-92691732D01*
X85822039Y-92644113D01*
X85917277Y-92596494D01*
X86060134Y-92596494D01*
X86155372Y-92644113D01*
X86202991Y-92691732D01*
X86250610Y-92786970D01*
X86250610Y-93167923D01*
X86726801Y-91644113D02*
X86726801Y-92215542D01*
X86726801Y-91929828D02*
X85726801Y-91929828D01*
X85869658Y-92025066D01*
X85964896Y-92120304D01*
X86012515Y-92215542D01*
X120737334Y-123896381D02*
X120261143Y-123896381D01*
X120261143Y-122896381D01*
X121594477Y-123896381D02*
X121023048Y-123896381D01*
X121308762Y-123896381D02*
X121308762Y-122896381D01*
X121213524Y-123039238D01*
X121118286Y-123134476D01*
X121023048Y-123182095D01*
X71064381Y-138990666D02*
X71064381Y-139466857D01*
X70064381Y-139466857D01*
X70159619Y-138704952D02*
X70112000Y-138657333D01*
X70064381Y-138562095D01*
X70064381Y-138323999D01*
X70112000Y-138228761D01*
X70159619Y-138181142D01*
X70254857Y-138133523D01*
X70350095Y-138133523D01*
X70492952Y-138181142D01*
X71064381Y-138752571D01*
X71064381Y-138133523D01*
X75636381Y-134278666D02*
X75160190Y-134612000D01*
X75636381Y-134850095D02*
X74636381Y-134850095D01*
X74636381Y-134469142D01*
X74684000Y-134373904D01*
X74731619Y-134326285D01*
X74826857Y-134278666D01*
X74969714Y-134278666D01*
X75064952Y-134326285D01*
X75112571Y-134373904D01*
X75160190Y-134469142D01*
X75160190Y-134850095D01*
X75636381Y-133326285D02*
X75636381Y-133897714D01*
X75636381Y-133612000D02*
X74636381Y-133612000D01*
X74779238Y-133707238D01*
X74874476Y-133802476D01*
X74922095Y-133897714D01*
X92654381Y-112720666D02*
X92178190Y-113054000D01*
X92654381Y-113292095D02*
X91654381Y-113292095D01*
X91654381Y-112911142D01*
X91702000Y-112815904D01*
X91749619Y-112768285D01*
X91844857Y-112720666D01*
X91987714Y-112720666D01*
X92082952Y-112768285D01*
X92130571Y-112815904D01*
X92178190Y-112911142D01*
X92178190Y-113292095D01*
X91749619Y-112339714D02*
X91702000Y-112292095D01*
X91654381Y-112196857D01*
X91654381Y-111958761D01*
X91702000Y-111863523D01*
X91749619Y-111815904D01*
X91844857Y-111768285D01*
X91940095Y-111768285D01*
X92082952Y-111815904D01*
X92654381Y-112387333D01*
X92654381Y-111768285D01*
X109053334Y-103322381D02*
X108720000Y-102846190D01*
X108481905Y-103322381D02*
X108481905Y-102322381D01*
X108862858Y-102322381D01*
X108958096Y-102370000D01*
X109005715Y-102417619D01*
X109053334Y-102512857D01*
X109053334Y-102655714D01*
X109005715Y-102750952D01*
X108958096Y-102798571D01*
X108862858Y-102846190D01*
X108481905Y-102846190D01*
X109386667Y-102322381D02*
X110005715Y-102322381D01*
X109672381Y-102703333D01*
X109815239Y-102703333D01*
X109910477Y-102750952D01*
X109958096Y-102798571D01*
X110005715Y-102893810D01*
X110005715Y-103131905D01*
X109958096Y-103227143D01*
X109910477Y-103274762D01*
X109815239Y-103322381D01*
X109529524Y-103322381D01*
X109434286Y-103274762D01*
X109386667Y-103227143D01*
X109053334Y-99766381D02*
X108720000Y-99290190D01*
X108481905Y-99766381D02*
X108481905Y-98766381D01*
X108862858Y-98766381D01*
X108958096Y-98814000D01*
X109005715Y-98861619D01*
X109053334Y-98956857D01*
X109053334Y-99099714D01*
X109005715Y-99194952D01*
X108958096Y-99242571D01*
X108862858Y-99290190D01*
X108481905Y-99290190D01*
X109910477Y-99099714D02*
X109910477Y-99766381D01*
X109672381Y-98718762D02*
X109434286Y-99433048D01*
X110053334Y-99433048D01*
X74372754Y-93416381D02*
X74039420Y-92940190D01*
X73801325Y-93416381D02*
X73801325Y-92416381D01*
X74182278Y-92416381D01*
X74277516Y-92464000D01*
X74325135Y-92511619D01*
X74372754Y-92606857D01*
X74372754Y-92749714D01*
X74325135Y-92844952D01*
X74277516Y-92892571D01*
X74182278Y-92940190D01*
X73801325Y-92940190D01*
X75277516Y-92416381D02*
X74801325Y-92416381D01*
X74753706Y-92892571D01*
X74801325Y-92844952D01*
X74896563Y-92797333D01*
X75134659Y-92797333D01*
X75229897Y-92844952D01*
X75277516Y-92892571D01*
X75325135Y-92987810D01*
X75325135Y-93225905D01*
X75277516Y-93321143D01*
X75229897Y-93368762D01*
X75134659Y-93416381D01*
X74896563Y-93416381D01*
X74801325Y-93368762D01*
X74753706Y-93321143D01*
X82129334Y-93416381D02*
X81796000Y-92940190D01*
X81557905Y-93416381D02*
X81557905Y-92416381D01*
X81938858Y-92416381D01*
X82034096Y-92464000D01*
X82081715Y-92511619D01*
X82129334Y-92606857D01*
X82129334Y-92749714D01*
X82081715Y-92844952D01*
X82034096Y-92892571D01*
X81938858Y-92940190D01*
X81557905Y-92940190D01*
X82986477Y-92416381D02*
X82796000Y-92416381D01*
X82700762Y-92464000D01*
X82653143Y-92511619D01*
X82557905Y-92654476D01*
X82510286Y-92844952D01*
X82510286Y-93225905D01*
X82557905Y-93321143D01*
X82605524Y-93368762D01*
X82700762Y-93416381D01*
X82891239Y-93416381D01*
X82986477Y-93368762D01*
X83034096Y-93321143D01*
X83081715Y-93225905D01*
X83081715Y-92987810D01*
X83034096Y-92892571D01*
X82986477Y-92844952D01*
X82891239Y-92797333D01*
X82700762Y-92797333D01*
X82605524Y-92844952D01*
X82557905Y-92892571D01*
X82510286Y-92987810D01*
X97422754Y-93416381D02*
X97089420Y-92940190D01*
X96851325Y-93416381D02*
X96851325Y-92416381D01*
X97232278Y-92416381D01*
X97327516Y-92464000D01*
X97375135Y-92511619D01*
X97422754Y-92606857D01*
X97422754Y-92749714D01*
X97375135Y-92844952D01*
X97327516Y-92892571D01*
X97232278Y-92940190D01*
X96851325Y-92940190D01*
X97756087Y-92416381D02*
X98422754Y-92416381D01*
X97994182Y-93416381D01*
X95702381Y-104814666D02*
X95226190Y-105148000D01*
X95702381Y-105386095D02*
X94702381Y-105386095D01*
X94702381Y-105005142D01*
X94750000Y-104909904D01*
X94797619Y-104862285D01*
X94892857Y-104814666D01*
X95035714Y-104814666D01*
X95130952Y-104862285D01*
X95178571Y-104909904D01*
X95226190Y-105005142D01*
X95226190Y-105386095D01*
X95130952Y-104243238D02*
X95083333Y-104338476D01*
X95035714Y-104386095D01*
X94940476Y-104433714D01*
X94892857Y-104433714D01*
X94797619Y-104386095D01*
X94750000Y-104338476D01*
X94702381Y-104243238D01*
X94702381Y-104052761D01*
X94750000Y-103957523D01*
X94797619Y-103909904D01*
X94892857Y-103862285D01*
X94940476Y-103862285D01*
X95035714Y-103909904D01*
X95083333Y-103957523D01*
X95130952Y-104052761D01*
X95130952Y-104243238D01*
X95178571Y-104338476D01*
X95226190Y-104386095D01*
X95321429Y-104433714D01*
X95511905Y-104433714D01*
X95607143Y-104386095D01*
X95654762Y-104338476D01*
X95702381Y-104243238D01*
X95702381Y-104052761D01*
X95654762Y-103957523D01*
X95607143Y-103909904D01*
X95511905Y-103862285D01*
X95321429Y-103862285D01*
X95226190Y-103909904D01*
X95178571Y-103957523D01*
X95130952Y-104052761D01*
X92400381Y-104846666D02*
X91924190Y-105180000D01*
X92400381Y-105418095D02*
X91400381Y-105418095D01*
X91400381Y-105037142D01*
X91448000Y-104941904D01*
X91495619Y-104894285D01*
X91590857Y-104846666D01*
X91733714Y-104846666D01*
X91828952Y-104894285D01*
X91876571Y-104941904D01*
X91924190Y-105037142D01*
X91924190Y-105418095D01*
X92400381Y-104370476D02*
X92400381Y-104180000D01*
X92352762Y-104084761D01*
X92305143Y-104037142D01*
X92162286Y-103941904D01*
X91971810Y-103894285D01*
X91590857Y-103894285D01*
X91495619Y-103941904D01*
X91448000Y-103989523D01*
X91400381Y-104084761D01*
X91400381Y-104275238D01*
X91448000Y-104370476D01*
X91495619Y-104418095D01*
X91590857Y-104465714D01*
X91828952Y-104465714D01*
X91924190Y-104418095D01*
X91971810Y-104370476D01*
X92019429Y-104275238D01*
X92019429Y-104084761D01*
X91971810Y-103989523D01*
X91924190Y-103941904D01*
X91828952Y-103894285D01*
X55316381Y-129134857D02*
X54840190Y-129468191D01*
X55316381Y-129706286D02*
X54316381Y-129706286D01*
X54316381Y-129325333D01*
X54364000Y-129230095D01*
X54411619Y-129182476D01*
X54506857Y-129134857D01*
X54649714Y-129134857D01*
X54744952Y-129182476D01*
X54792571Y-129230095D01*
X54840190Y-129325333D01*
X54840190Y-129706286D01*
X55316381Y-128182476D02*
X55316381Y-128753905D01*
X55316381Y-128468191D02*
X54316381Y-128468191D01*
X54459238Y-128563429D01*
X54554476Y-128658667D01*
X54602095Y-128753905D01*
X55316381Y-127230095D02*
X55316381Y-127801524D01*
X55316381Y-127515810D02*
X54316381Y-127515810D01*
X54459238Y-127611048D01*
X54554476Y-127706286D01*
X54602095Y-127801524D01*
X68016381Y-147118857D02*
X67540190Y-147452191D01*
X68016381Y-147690286D02*
X67016381Y-147690286D01*
X67016381Y-147309333D01*
X67064000Y-147214095D01*
X67111619Y-147166476D01*
X67206857Y-147118857D01*
X67349714Y-147118857D01*
X67444952Y-147166476D01*
X67492571Y-147214095D01*
X67540190Y-147309333D01*
X67540190Y-147690286D01*
X68016381Y-146166476D02*
X68016381Y-146737905D01*
X68016381Y-146452191D02*
X67016381Y-146452191D01*
X67159238Y-146547429D01*
X67254476Y-146642667D01*
X67302095Y-146737905D01*
X67111619Y-145785524D02*
X67064000Y-145737905D01*
X67016381Y-145642667D01*
X67016381Y-145404571D01*
X67064000Y-145309333D01*
X67111619Y-145261714D01*
X67206857Y-145214095D01*
X67302095Y-145214095D01*
X67444952Y-145261714D01*
X68016381Y-145833143D01*
X68016381Y-145214095D01*
X71064381Y-147118857D02*
X70588190Y-147452191D01*
X71064381Y-147690286D02*
X70064381Y-147690286D01*
X70064381Y-147309333D01*
X70112000Y-147214095D01*
X70159619Y-147166476D01*
X70254857Y-147118857D01*
X70397714Y-147118857D01*
X70492952Y-147166476D01*
X70540571Y-147214095D01*
X70588190Y-147309333D01*
X70588190Y-147690286D01*
X71064381Y-146166476D02*
X71064381Y-146737905D01*
X71064381Y-146452191D02*
X70064381Y-146452191D01*
X70207238Y-146547429D01*
X70302476Y-146642667D01*
X70350095Y-146737905D01*
X70064381Y-145833143D02*
X70064381Y-145214095D01*
X70445333Y-145547429D01*
X70445333Y-145404571D01*
X70492952Y-145309333D01*
X70540571Y-145261714D01*
X70635810Y-145214095D01*
X70873905Y-145214095D01*
X70969143Y-145261714D01*
X71016762Y-145309333D01*
X71064381Y-145404571D01*
X71064381Y-145690286D01*
X71016762Y-145785524D01*
X70969143Y-145833143D01*
X43124381Y-148102857D02*
X42648190Y-148436191D01*
X43124381Y-148674286D02*
X42124381Y-148674286D01*
X42124381Y-148293333D01*
X42172000Y-148198095D01*
X42219619Y-148150476D01*
X42314857Y-148102857D01*
X42457714Y-148102857D01*
X42552952Y-148150476D01*
X42600571Y-148198095D01*
X42648190Y-148293333D01*
X42648190Y-148674286D01*
X43124381Y-147150476D02*
X43124381Y-147721905D01*
X43124381Y-147436191D02*
X42124381Y-147436191D01*
X42267238Y-147531429D01*
X42362476Y-147626667D01*
X42410095Y-147721905D01*
X42457714Y-146293333D02*
X43124381Y-146293333D01*
X42076762Y-146531429D02*
X42791048Y-146769524D01*
X42791048Y-146150476D01*
X46172381Y-148102857D02*
X45696190Y-148436191D01*
X46172381Y-148674286D02*
X45172381Y-148674286D01*
X45172381Y-148293333D01*
X45220000Y-148198095D01*
X45267619Y-148150476D01*
X45362857Y-148102857D01*
X45505714Y-148102857D01*
X45600952Y-148150476D01*
X45648571Y-148198095D01*
X45696190Y-148293333D01*
X45696190Y-148674286D01*
X46172381Y-147150476D02*
X46172381Y-147721905D01*
X46172381Y-147436191D02*
X45172381Y-147436191D01*
X45315238Y-147531429D01*
X45410476Y-147626667D01*
X45458095Y-147721905D01*
X45172381Y-146245714D02*
X45172381Y-146721905D01*
X45648571Y-146769524D01*
X45600952Y-146721905D01*
X45553333Y-146626667D01*
X45553333Y-146388571D01*
X45600952Y-146293333D01*
X45648571Y-146245714D01*
X45743810Y-146198095D01*
X45981905Y-146198095D01*
X46077143Y-146245714D01*
X46124762Y-146293333D01*
X46172381Y-146388571D01*
X46172381Y-146626667D01*
X46124762Y-146721905D01*
X46077143Y-146769524D01*
X61587143Y-139136381D02*
X61253809Y-138660190D01*
X61015714Y-139136381D02*
X61015714Y-138136381D01*
X61396667Y-138136381D01*
X61491905Y-138184000D01*
X61539524Y-138231619D01*
X61587143Y-138326857D01*
X61587143Y-138469714D01*
X61539524Y-138564952D01*
X61491905Y-138612571D01*
X61396667Y-138660190D01*
X61015714Y-138660190D01*
X62539524Y-139136381D02*
X61968095Y-139136381D01*
X62253809Y-139136381D02*
X62253809Y-138136381D01*
X62158571Y-138279238D01*
X62063333Y-138374476D01*
X61968095Y-138422095D01*
X63396667Y-138136381D02*
X63206190Y-138136381D01*
X63110952Y-138184000D01*
X63063333Y-138231619D01*
X62968095Y-138374476D01*
X62920476Y-138564952D01*
X62920476Y-138945905D01*
X62968095Y-139041143D01*
X63015714Y-139088762D01*
X63110952Y-139136381D01*
X63301429Y-139136381D01*
X63396667Y-139088762D01*
X63444286Y-139041143D01*
X63491905Y-138945905D01*
X63491905Y-138707810D01*
X63444286Y-138612571D01*
X63396667Y-138564952D01*
X63301429Y-138517333D01*
X63110952Y-138517333D01*
X63015714Y-138564952D01*
X62968095Y-138612571D01*
X62920476Y-138707810D01*
X46172381Y-140546857D02*
X45696190Y-140880191D01*
X46172381Y-141118286D02*
X45172381Y-141118286D01*
X45172381Y-140737333D01*
X45220000Y-140642095D01*
X45267619Y-140594476D01*
X45362857Y-140546857D01*
X45505714Y-140546857D01*
X45600952Y-140594476D01*
X45648571Y-140642095D01*
X45696190Y-140737333D01*
X45696190Y-141118286D01*
X46172381Y-139594476D02*
X46172381Y-140165905D01*
X46172381Y-139880191D02*
X45172381Y-139880191D01*
X45315238Y-139975429D01*
X45410476Y-140070667D01*
X45458095Y-140165905D01*
X45172381Y-139261143D02*
X45172381Y-138594476D01*
X46172381Y-139023048D01*
X80656667Y-130484762D02*
X80799524Y-130532381D01*
X81037620Y-130532381D01*
X81132858Y-130484762D01*
X81180477Y-130437143D01*
X81228096Y-130341905D01*
X81228096Y-130246667D01*
X81180477Y-130151429D01*
X81132858Y-130103810D01*
X81037620Y-130056190D01*
X80847143Y-130008571D01*
X80751905Y-129960952D01*
X80704286Y-129913333D01*
X80656667Y-129818095D01*
X80656667Y-129722857D01*
X80704286Y-129627619D01*
X80751905Y-129580000D01*
X80847143Y-129532381D01*
X81085239Y-129532381D01*
X81228096Y-129580000D01*
X81561429Y-129532381D02*
X81799524Y-130532381D01*
X81990001Y-129818095D01*
X82180477Y-130532381D01*
X82418572Y-129532381D01*
X83323334Y-130532381D02*
X82751905Y-130532381D01*
X83037619Y-130532381D02*
X83037619Y-129532381D01*
X82942381Y-129675238D01*
X82847143Y-129770476D01*
X82751905Y-129818095D01*
X105791095Y-119086381D02*
X105791095Y-119895905D01*
X105838714Y-119991143D01*
X105886333Y-120038762D01*
X105981571Y-120086381D01*
X106172048Y-120086381D01*
X106267286Y-120038762D01*
X106314905Y-119991143D01*
X106362524Y-119895905D01*
X106362524Y-119086381D01*
X107362524Y-120086381D02*
X106791095Y-120086381D01*
X107076809Y-120086381D02*
X107076809Y-119086381D01*
X106981571Y-119229238D01*
X106886333Y-119324476D01*
X106791095Y-119372095D01*
X85304381Y-107789905D02*
X86113905Y-107789905D01*
X86209143Y-107742286D01*
X86256762Y-107694667D01*
X86304381Y-107599429D01*
X86304381Y-107408952D01*
X86256762Y-107313714D01*
X86209143Y-107266095D01*
X86113905Y-107218476D01*
X85304381Y-107218476D01*
X85399619Y-106789905D02*
X85352000Y-106742286D01*
X85304381Y-106647048D01*
X85304381Y-106408952D01*
X85352000Y-106313714D01*
X85399619Y-106266095D01*
X85494857Y-106218476D01*
X85590095Y-106218476D01*
X85732952Y-106266095D01*
X86304381Y-106837524D01*
X86304381Y-106218476D01*
X104902095Y-153440381D02*
X104902095Y-154249905D01*
X104949714Y-154345143D01*
X104997333Y-154392762D01*
X105092571Y-154440381D01*
X105283048Y-154440381D01*
X105378286Y-154392762D01*
X105425905Y-154345143D01*
X105473524Y-154249905D01*
X105473524Y-153440381D01*
X106378286Y-153773714D02*
X106378286Y-154440381D01*
X106140190Y-153392762D02*
X105902095Y-154107048D01*
X106521143Y-154107048D01*
X83566095Y-153440381D02*
X83566095Y-154249905D01*
X83613714Y-154345143D01*
X83661333Y-154392762D01*
X83756571Y-154440381D01*
X83947048Y-154440381D01*
X84042286Y-154392762D01*
X84089905Y-154345143D01*
X84137524Y-154249905D01*
X84137524Y-153440381D01*
X85089905Y-153440381D02*
X84613714Y-153440381D01*
X84566095Y-153916571D01*
X84613714Y-153868952D01*
X84708952Y-153821333D01*
X84947048Y-153821333D01*
X85042286Y-153868952D01*
X85089905Y-153916571D01*
X85137524Y-154011810D01*
X85137524Y-154249905D01*
X85089905Y-154345143D01*
X85042286Y-154392762D01*
X84947048Y-154440381D01*
X84708952Y-154440381D01*
X84613714Y-154392762D01*
X84566095Y-154345143D01*
X73636190Y-117924191D02*
X74112381Y-117924191D01*
X73112381Y-118257524D02*
X73636190Y-117924191D01*
X73112381Y-117590857D01*
X73207619Y-117305143D02*
X73160000Y-117257524D01*
X73112381Y-117162286D01*
X73112381Y-116924190D01*
X73160000Y-116828952D01*
X73207619Y-116781333D01*
X73302857Y-116733714D01*
X73398095Y-116733714D01*
X73540952Y-116781333D01*
X74112381Y-117352762D01*
X74112381Y-116733714D01*
X126666667Y-93404381D02*
X126333333Y-92928190D01*
X126095238Y-93404381D02*
X126095238Y-92404381D01*
X126476191Y-92404381D01*
X126571429Y-92452000D01*
X126619048Y-92499619D01*
X126666667Y-92594857D01*
X126666667Y-92737714D01*
X126619048Y-92832952D01*
X126571429Y-92880571D01*
X126476191Y-92928190D01*
X126095238Y-92928190D01*
X127095238Y-92880571D02*
X127428572Y-92880571D01*
X127571429Y-93404381D02*
X127095238Y-93404381D01*
X127095238Y-92404381D01*
X127571429Y-92404381D01*
X128333334Y-92880571D02*
X128000000Y-92880571D01*
X128000000Y-93404381D02*
X128000000Y-92404381D01*
X128476191Y-92404381D01*
X129000000Y-92404381D02*
X129000000Y-92642476D01*
X128761905Y-92547238D02*
X129000000Y-92642476D01*
X129238096Y-92547238D01*
X128857143Y-92832952D02*
X129000000Y-92642476D01*
X129142858Y-92832952D01*
X129761905Y-92404381D02*
X129761905Y-92642476D01*
X129523810Y-92547238D02*
X129761905Y-92642476D01*
X130000001Y-92547238D01*
X129619048Y-92832952D02*
X129761905Y-92642476D01*
X129904763Y-92832952D01*
X45666667Y-93404381D02*
X45333333Y-92928190D01*
X45095238Y-93404381D02*
X45095238Y-92404381D01*
X45476191Y-92404381D01*
X45571429Y-92452000D01*
X45619048Y-92499619D01*
X45666667Y-92594857D01*
X45666667Y-92737714D01*
X45619048Y-92832952D01*
X45571429Y-92880571D01*
X45476191Y-92928190D01*
X45095238Y-92928190D01*
X46095238Y-92880571D02*
X46428572Y-92880571D01*
X46571429Y-93404381D02*
X46095238Y-93404381D01*
X46095238Y-92404381D01*
X46571429Y-92404381D01*
X47333334Y-92880571D02*
X47000000Y-92880571D01*
X47000000Y-93404381D02*
X47000000Y-92404381D01*
X47476191Y-92404381D01*
X48000000Y-92404381D02*
X48000000Y-92642476D01*
X47761905Y-92547238D02*
X48000000Y-92642476D01*
X48238096Y-92547238D01*
X47857143Y-92832952D02*
X48000000Y-92642476D01*
X48142858Y-92832952D01*
X48761905Y-92404381D02*
X48761905Y-92642476D01*
X48523810Y-92547238D02*
X48761905Y-92642476D01*
X49000001Y-92547238D01*
X48619048Y-92832952D02*
X48761905Y-92642476D01*
X48904763Y-92832952D01*
X113666667Y-159404381D02*
X113333333Y-158928190D01*
X113095238Y-159404381D02*
X113095238Y-158404381D01*
X113476191Y-158404381D01*
X113571429Y-158452000D01*
X113619048Y-158499619D01*
X113666667Y-158594857D01*
X113666667Y-158737714D01*
X113619048Y-158832952D01*
X113571429Y-158880571D01*
X113476191Y-158928190D01*
X113095238Y-158928190D01*
X114095238Y-158880571D02*
X114428572Y-158880571D01*
X114571429Y-159404381D02*
X114095238Y-159404381D01*
X114095238Y-158404381D01*
X114571429Y-158404381D01*
X115333334Y-158880571D02*
X115000000Y-158880571D01*
X115000000Y-159404381D02*
X115000000Y-158404381D01*
X115476191Y-158404381D01*
X116000000Y-158404381D02*
X116000000Y-158642476D01*
X115761905Y-158547238D02*
X116000000Y-158642476D01*
X116238096Y-158547238D01*
X115857143Y-158832952D02*
X116000000Y-158642476D01*
X116142858Y-158832952D01*
X116761905Y-158404381D02*
X116761905Y-158642476D01*
X116523810Y-158547238D02*
X116761905Y-158642476D01*
X117000001Y-158547238D01*
X116619048Y-158832952D02*
X116761905Y-158642476D01*
X116904763Y-158832952D01*
X68666667Y-159404381D02*
X68333333Y-158928190D01*
X68095238Y-159404381D02*
X68095238Y-158404381D01*
X68476191Y-158404381D01*
X68571429Y-158452000D01*
X68619048Y-158499619D01*
X68666667Y-158594857D01*
X68666667Y-158737714D01*
X68619048Y-158832952D01*
X68571429Y-158880571D01*
X68476191Y-158928190D01*
X68095238Y-158928190D01*
X69095238Y-158880571D02*
X69428572Y-158880571D01*
X69571429Y-159404381D02*
X69095238Y-159404381D01*
X69095238Y-158404381D01*
X69571429Y-158404381D01*
X70333334Y-158880571D02*
X70000000Y-158880571D01*
X70000000Y-159404381D02*
X70000000Y-158404381D01*
X70476191Y-158404381D01*
X71000000Y-158404381D02*
X71000000Y-158642476D01*
X70761905Y-158547238D02*
X71000000Y-158642476D01*
X71238096Y-158547238D01*
X70857143Y-158832952D02*
X71000000Y-158642476D01*
X71142858Y-158832952D01*
X71761905Y-158404381D02*
X71761905Y-158642476D01*
X71523810Y-158547238D02*
X71761905Y-158642476D01*
X72000001Y-158547238D01*
X71619048Y-158832952D02*
X71761905Y-158642476D01*
X71904763Y-158832952D01*
M02*
