G04 #@! TF.FileFunction,Copper,L1,Top,Signal*
%FSLAX46Y46*%
G04 Gerber Fmt 4.6, Leading zero omitted, Abs format (unit mm)*
G04 Created by KiCad (PCBNEW 4.0.7-e2-6376~58~ubuntu16.04.1) date Wed Jun 27 11:11:34 2018*
%MOMM*%
%LPD*%
G01*
G04 APERTURE LIST*
%ADD10C,0.100000*%
%ADD11R,2.000000X0.600000*%
%ADD12R,2.000000X1.700000*%
%ADD13R,3.500000X3.500000*%
%ADD14R,1.600000X2.000000*%
%ADD15C,1.540000*%
%ADD16C,1.270000*%
%ADD17C,1.790000*%
%ADD18C,1.500000*%
%ADD19C,3.650000*%
%ADD20R,1.500000X1.500000*%
%ADD21R,2.000000X1.600000*%
%ADD22R,2.600000X1.600000*%
%ADD23R,2.500000X4.000000*%
%ADD24R,1.600000X2.600000*%
%ADD25R,1.700000X1.700000*%
%ADD26O,1.700000X1.700000*%
%ADD27R,1.600000X1.600000*%
%ADD28O,1.600000X1.600000*%
%ADD29R,1.700000X2.000000*%
%ADD30C,2.000000*%
%ADD31R,1.500000X0.550000*%
%ADD32R,0.550000X1.500000*%
%ADD33R,0.600000X1.550000*%
%ADD34R,1.800000X1.800000*%
%ADD35O,1.800000X1.800000*%
%ADD36C,4.064000*%
%ADD37C,1.000000*%
%ADD38C,0.400000*%
%ADD39C,0.500000*%
%ADD40C,1.000000*%
%ADD41C,0.254000*%
G04 APERTURE END LIST*
D10*
D11*
X58166000Y-109982000D03*
X58166000Y-111252000D03*
X58166000Y-112522000D03*
X58166000Y-113792000D03*
X58166000Y-115062000D03*
X58166000Y-116332000D03*
X58166000Y-117602000D03*
X58166000Y-118872000D03*
X58166000Y-120142000D03*
X58166000Y-121412000D03*
X58166000Y-122682000D03*
X58166000Y-123952000D03*
X58166000Y-125222000D03*
X58166000Y-126492000D03*
X67566000Y-126492000D03*
X67566000Y-125222000D03*
X67566000Y-123952000D03*
X67566000Y-122682000D03*
X67566000Y-121412000D03*
X67566000Y-120142000D03*
X67566000Y-118872000D03*
X67566000Y-117602000D03*
X67566000Y-116332000D03*
X67566000Y-115062000D03*
X67566000Y-113792000D03*
X67566000Y-112522000D03*
X67566000Y-111252000D03*
X67566000Y-109982000D03*
D12*
X89408000Y-163830000D03*
X85408000Y-163830000D03*
X78296000Y-163830000D03*
X82296000Y-163830000D03*
D13*
X126492000Y-152000000D03*
X126492000Y-158000000D03*
X131192000Y-155000000D03*
D12*
X54864000Y-115824000D03*
X50864000Y-115824000D03*
D14*
X108204000Y-130048000D03*
X108204000Y-134048000D03*
D15*
X63830000Y-141980000D03*
X61290000Y-141980000D03*
D16*
X61680000Y-144450000D03*
X59650000Y-144450000D03*
X57620000Y-144450000D03*
X55590000Y-144450000D03*
X53560000Y-144450000D03*
X51530000Y-144450000D03*
D15*
X49380000Y-141980000D03*
X51920000Y-141980000D03*
D17*
X48550000Y-158790000D03*
X64680000Y-158790000D03*
D14*
X106934000Y-110236000D03*
X106934000Y-106236000D03*
D18*
X94996000Y-120396000D03*
X94996000Y-125276000D03*
D19*
X43688000Y-78994000D03*
X55558000Y-78994000D03*
D20*
X54068000Y-85344000D03*
D18*
X52798000Y-87884000D03*
X51528000Y-85344000D03*
X50258000Y-87884000D03*
X48988000Y-85344000D03*
X47718000Y-87884000D03*
X46448000Y-85344000D03*
X45178000Y-87884000D03*
D14*
X89408000Y-133922000D03*
X89408000Y-137922000D03*
X90678000Y-121412000D03*
X90678000Y-117412000D03*
X90678000Y-124206000D03*
X90678000Y-128206000D03*
D21*
X116586000Y-118110000D03*
X120586000Y-118110000D03*
D14*
X95250000Y-114554000D03*
X95250000Y-110554000D03*
D21*
X116586000Y-120650000D03*
X120586000Y-120650000D03*
D14*
X77978000Y-118904000D03*
X77978000Y-122904000D03*
X77978000Y-116046000D03*
X77978000Y-112046000D03*
D22*
X54610000Y-109982000D03*
X51010000Y-109982000D03*
D23*
X116332000Y-150366000D03*
X116332000Y-156466000D03*
D14*
X108204000Y-155480000D03*
X108204000Y-159480000D03*
X67532000Y-140856000D03*
X67532000Y-136856000D03*
X42640000Y-141904000D03*
X42640000Y-137904000D03*
X86868000Y-155480000D03*
X86868000Y-159480000D03*
D23*
X94996000Y-150368000D03*
X94996000Y-156468000D03*
D14*
X103124000Y-155480000D03*
X103124000Y-159480000D03*
D24*
X75692000Y-150346000D03*
X75692000Y-153946000D03*
D14*
X81788000Y-155480000D03*
X81788000Y-159480000D03*
D25*
X75692000Y-102108000D03*
D26*
X75692000Y-104648000D03*
X73152000Y-102108000D03*
X73152000Y-104648000D03*
X70612000Y-102108000D03*
X70612000Y-104648000D03*
X68072000Y-102108000D03*
X68072000Y-104648000D03*
X65532000Y-102108000D03*
X65532000Y-104648000D03*
D27*
X87376000Y-114554000D03*
D28*
X87376000Y-122174000D03*
D12*
X118808000Y-102870000D03*
X114808000Y-102870000D03*
X118808000Y-99314000D03*
X114808000Y-99314000D03*
D27*
X116332000Y-146050000D03*
D28*
X123952000Y-146050000D03*
D27*
X110744000Y-146050000D03*
D28*
X103124000Y-146050000D03*
D27*
X86868000Y-146050000D03*
D28*
X79248000Y-146050000D03*
D25*
X126492000Y-101346000D03*
D26*
X126492000Y-103886000D03*
X126492000Y-106426000D03*
X126492000Y-108966000D03*
X126492000Y-111506000D03*
X126492000Y-114046000D03*
X126492000Y-116586000D03*
X126492000Y-119126000D03*
D25*
X126492000Y-141986000D03*
D26*
X126492000Y-139446000D03*
X126492000Y-136906000D03*
X126492000Y-134366000D03*
X126492000Y-131826000D03*
X126492000Y-129286000D03*
X126492000Y-126746000D03*
X126492000Y-124206000D03*
D25*
X94742000Y-136906000D03*
D26*
X97282000Y-136906000D03*
X99822000Y-136906000D03*
X102362000Y-136906000D03*
X104902000Y-136906000D03*
D19*
X100698500Y-78994000D03*
X112568500Y-78994000D03*
D20*
X111078500Y-85344000D03*
D18*
X109808500Y-87884000D03*
X108538500Y-85344000D03*
X107268500Y-87884000D03*
X105998500Y-85344000D03*
X104728500Y-87884000D03*
X103458500Y-85344000D03*
X102188500Y-87884000D03*
D25*
X86614000Y-141986000D03*
D26*
X89154000Y-141986000D03*
X91694000Y-141986000D03*
X94234000Y-141986000D03*
X96774000Y-141986000D03*
X99314000Y-141986000D03*
X101854000Y-141986000D03*
X104394000Y-141986000D03*
D19*
X81695000Y-78994000D03*
X93565000Y-78994000D03*
D20*
X92075000Y-85344000D03*
D18*
X90805000Y-87884000D03*
X89535000Y-85344000D03*
X88265000Y-87884000D03*
X86995000Y-85344000D03*
X85725000Y-87884000D03*
X84455000Y-85344000D03*
X83185000Y-87884000D03*
D19*
X119702000Y-78994000D03*
X131572000Y-78994000D03*
D20*
X130082000Y-85344000D03*
D18*
X128812000Y-87884000D03*
X127542000Y-85344000D03*
X126272000Y-87884000D03*
X125002000Y-85344000D03*
X123732000Y-87884000D03*
X122462000Y-85344000D03*
X121192000Y-87884000D03*
D25*
X108966000Y-141986000D03*
D26*
X111506000Y-141986000D03*
X114046000Y-141986000D03*
X116586000Y-141986000D03*
D19*
X62691500Y-78994000D03*
X74561500Y-78994000D03*
D20*
X73071500Y-85344000D03*
D18*
X71801500Y-87884000D03*
X70531500Y-85344000D03*
X69261500Y-87884000D03*
X67991500Y-85344000D03*
X66721500Y-87884000D03*
X65451500Y-85344000D03*
X64181500Y-87884000D03*
D25*
X74422000Y-141986000D03*
D26*
X76962000Y-141986000D03*
X79502000Y-141986000D03*
X82042000Y-141986000D03*
D25*
X88604420Y-92810780D03*
D26*
X91144420Y-92810780D03*
D12*
X122872000Y-123444000D03*
X118872000Y-123444000D03*
D29*
X70580000Y-136824000D03*
X70580000Y-140824000D03*
X75184000Y-132080000D03*
X75184000Y-136080000D03*
X92202000Y-110554000D03*
X92202000Y-114554000D03*
D12*
X111188000Y-102870000D03*
X107188000Y-102870000D03*
X111188000Y-99314000D03*
X107188000Y-99314000D03*
X72539420Y-92810780D03*
X76539420Y-92810780D03*
X80222420Y-92810780D03*
X84222420Y-92810780D03*
X95589420Y-92810780D03*
X99589420Y-92810780D03*
D29*
X95250000Y-106680000D03*
X95250000Y-102680000D03*
X91948000Y-106680000D03*
X91948000Y-102680000D03*
X54864000Y-126492000D03*
X54864000Y-130492000D03*
X67532000Y-148476000D03*
X67532000Y-144476000D03*
X70580000Y-144476000D03*
X70580000Y-148476000D03*
X42640000Y-149460000D03*
X42640000Y-145460000D03*
X45688000Y-145460000D03*
X45688000Y-149460000D03*
D12*
X64166000Y-138602000D03*
X60166000Y-138602000D03*
D29*
X45688000Y-141904000D03*
X45688000Y-137904000D03*
D30*
X78740000Y-136580000D03*
X78740000Y-132080000D03*
X85240000Y-136580000D03*
X85240000Y-132080000D03*
D31*
X100853000Y-115596000D03*
X100853000Y-116396000D03*
X100853000Y-117196000D03*
X100853000Y-117996000D03*
X100853000Y-118796000D03*
X100853000Y-119596000D03*
X100853000Y-120396000D03*
X100853000Y-121196000D03*
X100853000Y-121996000D03*
X100853000Y-122796000D03*
X100853000Y-123596000D03*
D32*
X102553000Y-125296000D03*
X103353000Y-125296000D03*
X104153000Y-125296000D03*
X104953000Y-125296000D03*
X105753000Y-125296000D03*
X106553000Y-125296000D03*
X107353000Y-125296000D03*
X108153000Y-125296000D03*
X108953000Y-125296000D03*
X109753000Y-125296000D03*
X110553000Y-125296000D03*
D31*
X112253000Y-123596000D03*
X112253000Y-122796000D03*
X112253000Y-121996000D03*
X112253000Y-121196000D03*
X112253000Y-120396000D03*
X112253000Y-119596000D03*
X112253000Y-118796000D03*
X112253000Y-117996000D03*
X112253000Y-117196000D03*
X112253000Y-116396000D03*
X112253000Y-115596000D03*
D32*
X110553000Y-113896000D03*
X109753000Y-113896000D03*
X108953000Y-113896000D03*
X108153000Y-113896000D03*
X107353000Y-113896000D03*
X106553000Y-113896000D03*
X105753000Y-113896000D03*
X104953000Y-113896000D03*
X104153000Y-113896000D03*
X103353000Y-113896000D03*
X102553000Y-113896000D03*
D33*
X83820000Y-109728000D03*
X85090000Y-109728000D03*
X86360000Y-109728000D03*
X87630000Y-109728000D03*
X87630000Y-104328000D03*
X86360000Y-104328000D03*
X85090000Y-104328000D03*
X83820000Y-104328000D03*
D34*
X108204000Y-150368000D03*
D35*
X105664000Y-150368000D03*
X103124000Y-150368000D03*
D34*
X86868000Y-150368000D03*
D35*
X84328000Y-150368000D03*
X81788000Y-150368000D03*
D18*
X73660000Y-119888000D03*
X73660000Y-115008000D03*
D36*
X128000000Y-96000000D03*
X47000000Y-96000000D03*
X115000000Y-162000000D03*
X70000000Y-162000000D03*
D37*
X120586000Y-120650000D03*
X120586000Y-118110000D03*
X89408000Y-137922000D03*
X63000000Y-118500000D03*
X95250000Y-110554000D03*
X87630000Y-104328000D03*
X72539420Y-92810780D03*
X106934000Y-106236000D03*
X118808000Y-99314000D03*
X118808000Y-102870000D03*
X106500000Y-119596000D03*
X108204000Y-134048000D03*
X75184000Y-136080000D03*
X67532000Y-136856000D03*
X89408000Y-163830000D03*
X75692000Y-153946000D03*
X81788000Y-159480000D03*
X86868000Y-159480000D03*
X94996000Y-156468000D03*
X103124000Y-159480000D03*
X108204000Y-159480000D03*
X116332000Y-156466000D03*
X90678000Y-128206000D03*
X90678000Y-117412000D03*
X77978000Y-122904000D03*
X77978000Y-112046000D03*
X51010000Y-109982000D03*
X42640000Y-137904000D03*
X54864000Y-130492000D03*
X99589420Y-92810780D03*
X122872000Y-123444000D03*
X106934000Y-110236000D03*
X92202000Y-114554000D03*
X95250000Y-114554000D03*
X82042000Y-128270000D03*
X67566000Y-126492000D03*
X67566000Y-120142000D03*
X67566000Y-121412000D03*
X67566000Y-113792000D03*
X67566000Y-109982000D03*
X75692000Y-97536000D03*
X56134000Y-99822000D03*
X46482000Y-111760000D03*
X65532000Y-98675980D03*
X86360000Y-104328000D03*
X80222420Y-92810780D03*
X85090000Y-104328000D03*
X95250000Y-102680000D03*
X95250000Y-96520000D03*
X92710000Y-95504000D03*
X91948000Y-102680000D03*
X91948000Y-102680000D03*
X59658000Y-136570000D03*
X53562000Y-136570000D03*
X85090000Y-115316000D03*
X98044000Y-130048000D03*
X99060000Y-131064000D03*
X87630000Y-109728000D03*
X106426000Y-132080000D03*
X85090000Y-109728000D03*
X42171200Y-113784800D03*
X58166000Y-113792000D03*
D38*
X72136000Y-100584000D02*
X96520000Y-100584000D01*
X96520000Y-100584000D02*
X97467970Y-101531970D01*
X70612000Y-102108000D02*
X72136000Y-100584000D01*
X97467970Y-108712000D02*
X97467970Y-101531970D01*
X92202000Y-110554000D02*
X90952000Y-110554000D01*
X90952000Y-110554000D02*
X89154000Y-112352000D01*
X89154000Y-112352000D02*
X89154000Y-120396000D01*
X89154000Y-120396000D02*
X87376000Y-122174000D01*
X87376000Y-133858000D02*
X87376000Y-134444000D01*
X87376000Y-122174000D02*
X87376000Y-133858000D01*
X87376000Y-133858000D02*
X87440000Y-133922000D01*
X87440000Y-133922000D02*
X89408000Y-133922000D01*
X78740000Y-136580000D02*
X85240000Y-136580000D01*
X87376000Y-134444000D02*
X85240000Y-136580000D01*
X97467970Y-115950933D02*
X97467970Y-108712000D01*
X92644000Y-108712000D02*
X97467970Y-108712000D01*
X92202000Y-110554000D02*
X92202000Y-109154000D01*
X92202000Y-109154000D02*
X92644000Y-108712000D01*
X100853000Y-117996000D02*
X99513038Y-117996000D01*
X99513038Y-117996000D02*
X97467970Y-115950933D01*
D39*
X63372000Y-118872000D02*
X63000000Y-118500000D01*
X63500000Y-118872000D02*
X63372000Y-118872000D01*
X63500000Y-112014000D02*
X63500000Y-117602000D01*
X106500000Y-119596000D02*
X100853000Y-119596000D01*
X106680000Y-119596000D02*
X106500000Y-119596000D01*
X107353000Y-119685000D02*
X107442000Y-119596000D01*
X107353000Y-125296000D02*
X107353000Y-119685000D01*
X66066000Y-117602000D02*
X63500000Y-117602000D01*
X63500000Y-117602000D02*
X63500000Y-118872000D01*
X67566000Y-117602000D02*
X66066000Y-117602000D01*
X63500000Y-118872000D02*
X63500000Y-122682000D01*
X67566000Y-118872000D02*
X63500000Y-118872000D01*
X66066000Y-122682000D02*
X63500000Y-122682000D01*
X63500000Y-122682000D02*
X58166000Y-122682000D01*
X58166000Y-111252000D02*
X62738000Y-111252000D01*
X62738000Y-111252000D02*
X63500000Y-112014000D01*
X67566000Y-122682000D02*
X66066000Y-122682000D01*
X107000000Y-119596000D02*
X106680000Y-119596000D01*
X107442000Y-119596000D02*
X107000000Y-119596000D01*
X112253000Y-119596000D02*
X107442000Y-119596000D01*
X106553000Y-113896000D02*
X106553000Y-119469000D01*
X106553000Y-119469000D02*
X106680000Y-119596000D01*
D38*
X100853000Y-120396000D02*
X94996000Y-120396000D01*
X94996000Y-120396000D02*
X93980000Y-121412000D01*
X93980000Y-121412000D02*
X90678000Y-121412000D01*
X100853000Y-121196000D02*
X99076000Y-121196000D01*
X99076000Y-121196000D02*
X94996000Y-125276000D01*
X90678000Y-124206000D02*
X93926000Y-124206000D01*
X93926000Y-124206000D02*
X94996000Y-125276000D01*
D39*
X116586000Y-118110000D02*
X115086000Y-118110000D01*
X115086000Y-118110000D02*
X114400000Y-118796000D01*
X114400000Y-118796000D02*
X112253000Y-118796000D01*
X106553000Y-128197000D02*
X111506000Y-133150000D01*
X111506000Y-133150000D02*
X111506000Y-141986000D01*
X108204000Y-130048000D02*
X108204000Y-129848000D01*
X108204000Y-129848000D02*
X106553000Y-128197000D01*
X106553000Y-128197000D02*
X106553000Y-126546000D01*
X106553000Y-126546000D02*
X106553000Y-125296000D01*
X94996000Y-150368000D02*
X103124000Y-150368000D01*
X86868000Y-150368000D02*
X94996000Y-150368000D01*
X86868000Y-150368000D02*
X86868000Y-155480000D01*
X86868000Y-150368000D02*
X86868000Y-146050000D01*
X114046000Y-141986000D02*
X116586000Y-141986000D01*
X111506000Y-141986000D02*
X114046000Y-141986000D01*
X108966000Y-141986000D02*
X111506000Y-141986000D01*
X103124000Y-146050000D02*
X103124000Y-144918630D01*
X103124000Y-144918630D02*
X104024630Y-144018000D01*
X104024630Y-144018000D02*
X108284000Y-144018000D01*
X108284000Y-144018000D02*
X108966000Y-143336000D01*
X108966000Y-143336000D02*
X108966000Y-141986000D01*
X103124000Y-150368000D02*
X103124000Y-146050000D01*
X103124000Y-150368000D02*
X103124000Y-155480000D01*
X89662000Y-102870000D02*
X89662000Y-106680000D01*
X89662000Y-106680000D02*
X89662000Y-110490000D01*
X91948000Y-106680000D02*
X89662000Y-106680000D01*
X95250000Y-106680000D02*
X91948000Y-106680000D01*
X83820000Y-104328000D02*
X83820000Y-103053000D01*
X83820000Y-103053000D02*
X84511000Y-102362000D01*
X87376000Y-112776000D02*
X87376000Y-114554000D01*
X84511000Y-102362000D02*
X89154000Y-102362000D01*
X89154000Y-102362000D02*
X89662000Y-102870000D01*
X89662000Y-110490000D02*
X87376000Y-112776000D01*
X100853000Y-118796000D02*
X99292000Y-118796000D01*
X99292000Y-118796000D02*
X95250000Y-114754000D01*
X95250000Y-114754000D02*
X95250000Y-114554000D01*
X107353000Y-113896000D02*
X107353000Y-110655000D01*
X107353000Y-110655000D02*
X106934000Y-110236000D01*
X117602000Y-123444000D02*
X116586000Y-122428000D01*
X116586000Y-122428000D02*
X116586000Y-120650000D01*
X118872000Y-123444000D02*
X117602000Y-123444000D01*
X116586000Y-120650000D02*
X116332000Y-120396000D01*
X116332000Y-120396000D02*
X112253000Y-120396000D01*
D38*
X73660000Y-119888000D02*
X74644000Y-118904000D01*
X74644000Y-118904000D02*
X77978000Y-118904000D01*
X67566000Y-116332000D02*
X70104000Y-116332000D01*
X70104000Y-116332000D02*
X73660000Y-119888000D01*
X73660000Y-115008000D02*
X74698000Y-116046000D01*
X74698000Y-116046000D02*
X77978000Y-116046000D01*
X73660000Y-115008000D02*
X67620000Y-115008000D01*
X67620000Y-115008000D02*
X67566000Y-115062000D01*
X54610000Y-109982000D02*
X58166000Y-109982000D01*
D40*
X116332000Y-146050000D02*
X116332000Y-150366000D01*
X108204000Y-150368000D02*
X110744000Y-150368000D01*
X110744000Y-150368000D02*
X116330000Y-150368000D01*
X110744000Y-146050000D02*
X110744000Y-147850000D01*
X110744000Y-147850000D02*
X110744000Y-150368000D01*
X108204000Y-150368000D02*
X108204000Y-155480000D01*
X116330000Y-150368000D02*
X116332000Y-150366000D01*
D38*
X67532000Y-140856000D02*
X70548000Y-140856000D01*
X70548000Y-140856000D02*
X70580000Y-140824000D01*
X67532000Y-144476000D02*
X67532000Y-140856000D01*
X67532000Y-144476000D02*
X70580000Y-144476000D01*
X61680000Y-144450000D02*
X67506000Y-144450000D01*
X67506000Y-144450000D02*
X67532000Y-144476000D01*
X42640000Y-145460000D02*
X42640000Y-141904000D01*
X42640000Y-145460000D02*
X45688000Y-145460000D01*
D39*
X78296000Y-163830000D02*
X78296000Y-157672000D01*
X78296000Y-157672000D02*
X80488000Y-155480000D01*
X80488000Y-155480000D02*
X81788000Y-155480000D01*
X78296000Y-163830000D02*
X78296000Y-162480000D01*
X72644000Y-139000000D02*
X72644000Y-137538000D01*
X72644000Y-137538000D02*
X71930000Y-136824000D01*
X71930000Y-136824000D02*
X70580000Y-136824000D01*
X72644000Y-141558000D02*
X72644000Y-139000000D01*
X70580000Y-136824000D02*
X70580000Y-136974000D01*
X72606000Y-139000000D02*
X72644000Y-139000000D01*
X79248000Y-146050000D02*
X79248000Y-142240000D01*
X79248000Y-142240000D02*
X79502000Y-141986000D01*
X79502000Y-141986000D02*
X82042000Y-141986000D01*
X76962000Y-141986000D02*
X79502000Y-141986000D01*
X74422000Y-141986000D02*
X76962000Y-141986000D01*
X75692000Y-150346000D02*
X79248000Y-150346000D01*
X79248000Y-146050000D02*
X79248000Y-147181370D01*
X79248000Y-150346000D02*
X81766000Y-150346000D01*
X79248000Y-147181370D02*
X79248000Y-150346000D01*
X81766000Y-150346000D02*
X81788000Y-150368000D01*
X81788000Y-155480000D02*
X81788000Y-150368000D01*
X82042000Y-128270000D02*
X82042000Y-110725363D01*
X69066000Y-109982000D02*
X67566000Y-109982000D01*
X74422000Y-141986000D02*
X73072000Y-141986000D01*
X73072000Y-141986000D02*
X72644000Y-141558000D01*
X82042000Y-110725363D02*
X80102617Y-108785980D01*
X80102617Y-108785980D02*
X70262020Y-108785980D01*
X70262020Y-108785980D02*
X69066000Y-109982000D01*
D38*
X100853000Y-115596000D02*
X100102000Y-115596000D01*
X99568000Y-115062000D02*
X99568000Y-99314000D01*
X100102000Y-115596000D02*
X99568000Y-115062000D01*
X99568000Y-99314000D02*
X97790000Y-97536000D01*
X97790000Y-97536000D02*
X96441889Y-97536000D01*
X96441889Y-97536000D02*
X75692000Y-97536000D01*
X75692000Y-97536000D02*
X54864000Y-97536000D01*
X47944010Y-104455990D02*
X47944010Y-115938086D01*
X54864000Y-97536000D02*
X47944010Y-104455990D01*
X47944010Y-115938086D02*
X49607924Y-117602000D01*
X49607924Y-117602000D02*
X58166000Y-117602000D01*
X100853000Y-115596000D02*
X100304000Y-115596000D01*
X56134000Y-99822000D02*
X68072000Y-99822000D01*
X68072000Y-99822000D02*
X96266000Y-99822000D01*
X68072000Y-102108000D02*
X68072000Y-99822000D01*
X96266000Y-99822000D02*
X96520000Y-99822000D01*
X98167980Y-100707980D02*
X97282000Y-99822000D01*
X97282000Y-99822000D02*
X96266000Y-99822000D01*
X98167980Y-115660980D02*
X98167980Y-100707980D01*
X46482000Y-116586000D02*
X46482000Y-111760000D01*
X48768000Y-118872000D02*
X46482000Y-116586000D01*
X49887962Y-118872000D02*
X48768000Y-118872000D01*
X100853000Y-117196000D02*
X99703000Y-117196000D01*
X99703000Y-117196000D02*
X98167980Y-115660980D01*
X49887962Y-118872000D02*
X50292000Y-118872000D01*
X50292000Y-118872000D02*
X58166000Y-118872000D01*
X56766000Y-118872000D02*
X58166000Y-118872000D01*
X97659980Y-98675980D02*
X75499978Y-98675980D01*
X75499978Y-98675980D02*
X65532000Y-98675980D01*
X55502020Y-98675980D02*
X55675980Y-98675980D01*
X55675980Y-98675980D02*
X65532000Y-98675980D01*
X50864000Y-115824000D02*
X49464000Y-115824000D01*
X49464000Y-115824000D02*
X48644020Y-115004020D01*
X100853000Y-116396000D02*
X99912039Y-116396000D01*
X99912039Y-116396000D02*
X98867990Y-115351953D01*
X98867990Y-115351953D02*
X98867990Y-99883990D01*
X98867990Y-99883990D02*
X97659980Y-98675980D01*
X55502020Y-98675980D02*
X48644020Y-105533980D01*
X48644020Y-105533980D02*
X48644020Y-115004020D01*
X111188000Y-102870000D02*
X114808000Y-102870000D01*
X111188000Y-99314000D02*
X114808000Y-99314000D01*
D40*
X126492000Y-150464000D02*
X126492000Y-148000000D01*
X126492000Y-148000000D02*
X126492000Y-146050000D01*
X126492000Y-152000000D02*
X126492000Y-148000000D01*
X125002000Y-85344000D02*
X125002000Y-86614000D01*
X125002000Y-86614000D02*
X126272000Y-87884000D01*
X130810000Y-82550000D02*
X124968000Y-82550000D01*
X124968000Y-82550000D02*
X105918000Y-82550000D01*
X125002000Y-85344000D02*
X125002000Y-82584000D01*
X125002000Y-82584000D02*
X124968000Y-82550000D01*
X105998500Y-85344000D02*
X105998500Y-86614000D01*
X105998500Y-86614000D02*
X107268500Y-87884000D01*
X105998500Y-85344000D02*
X105998500Y-82630500D01*
X105918000Y-82550000D02*
X87122000Y-82550000D01*
X105998500Y-82630500D02*
X105918000Y-82550000D01*
X86995000Y-85344000D02*
X86995000Y-86614000D01*
X86995000Y-86614000D02*
X88265000Y-87884000D01*
X87122000Y-82550000D02*
X67818000Y-82550000D01*
X86995000Y-85344000D02*
X86995000Y-82677000D01*
X86995000Y-82677000D02*
X87122000Y-82550000D01*
X67991500Y-85344000D02*
X67991500Y-86614000D01*
X67991500Y-86614000D02*
X69261500Y-87884000D01*
X67818000Y-82550000D02*
X52578000Y-82550000D01*
X67991500Y-85344000D02*
X67991500Y-82723500D01*
X67991500Y-82723500D02*
X67818000Y-82550000D01*
X48988000Y-85344000D02*
X48988000Y-86614000D01*
X48988000Y-86614000D02*
X50258000Y-87884000D01*
X48988000Y-85344000D02*
X51782000Y-82550000D01*
X51782000Y-82550000D02*
X52578000Y-82550000D01*
X132153999Y-83893999D02*
X130810000Y-82550000D01*
X132588000Y-84328000D02*
X132153999Y-83893999D01*
X132588000Y-141478000D02*
X132588000Y-84328000D01*
X132080000Y-141986000D02*
X132588000Y-141478000D01*
X128016000Y-146050000D02*
X132080000Y-141986000D01*
X126492000Y-146050000D02*
X128016000Y-146050000D01*
X126492000Y-146050000D02*
X123952000Y-146050000D01*
D38*
X82296000Y-163830000D02*
X85408000Y-163830000D01*
X108153000Y-112523112D02*
X113810141Y-106865970D01*
X113810141Y-106865970D02*
X120972030Y-106865970D01*
X108153000Y-113896000D02*
X108153000Y-112523112D01*
X120972030Y-106865970D02*
X126492000Y-101346000D01*
X108953000Y-112713075D02*
X114100094Y-107565980D01*
X114100094Y-107565980D02*
X122812020Y-107565980D01*
X108953000Y-113896000D02*
X108953000Y-112713075D01*
X122812020Y-107565980D02*
X126492000Y-103886000D01*
X109753000Y-112903038D02*
X114390047Y-108265990D01*
X114390047Y-108265990D02*
X124652010Y-108265990D01*
X109753000Y-113896000D02*
X109753000Y-112903038D01*
X124652010Y-108265990D02*
X126492000Y-106426000D01*
X110553000Y-113093000D02*
X114680000Y-108966000D01*
X114680000Y-108966000D02*
X125289919Y-108966000D01*
X110553000Y-113896000D02*
X110553000Y-113093000D01*
X125289919Y-108966000D02*
X126492000Y-108966000D01*
X123512028Y-114485972D02*
X118872000Y-114485972D01*
X126492000Y-111506000D02*
X123512028Y-114485972D01*
X114540138Y-114485972D02*
X118872000Y-114485972D01*
X112253000Y-115596000D02*
X113403000Y-115596000D01*
X113403000Y-115596000D02*
X114513028Y-114485972D01*
X114513028Y-114485972D02*
X114540138Y-114485972D01*
X126492000Y-114046000D02*
X125289919Y-114046000D01*
X114830091Y-115185982D02*
X113620074Y-116396000D01*
X125289919Y-114046000D02*
X124149937Y-115185982D01*
X124149937Y-115185982D02*
X114830091Y-115185982D01*
X113620074Y-116396000D02*
X112253000Y-116396000D01*
X124241955Y-115885992D02*
X123952000Y-115885992D01*
X123952000Y-115885992D02*
X121122045Y-115885992D01*
X126492000Y-116586000D02*
X125289919Y-116586000D01*
X125289919Y-116586000D02*
X124589911Y-115885992D01*
X124589911Y-115885992D02*
X123952000Y-115885992D01*
X115120044Y-115885992D02*
X121122045Y-115885992D01*
X121122045Y-115885992D02*
X121122047Y-115885990D01*
X112253000Y-117196000D02*
X113810036Y-117196000D01*
X113810036Y-117196000D02*
X115120044Y-115885992D01*
X123952000Y-116586000D02*
X121412000Y-116586000D01*
X126492000Y-119126000D02*
X123952000Y-116586000D01*
X121412000Y-116586000D02*
X121666000Y-116586000D01*
X115409998Y-116586000D02*
X121412000Y-116586000D01*
X112253000Y-117996000D02*
X113999998Y-117996000D01*
X113999998Y-117996000D02*
X115409998Y-116586000D01*
X108153000Y-125296000D02*
X108153000Y-127015888D01*
X108153000Y-127015888D02*
X111093180Y-129956069D01*
X113212069Y-129956069D02*
X125242000Y-141986000D01*
X111093180Y-129956069D02*
X113212069Y-129956069D01*
X125242000Y-141986000D02*
X126492000Y-141986000D01*
X108953000Y-125296000D02*
X108953000Y-126825925D01*
X116302059Y-129256059D02*
X126492000Y-139446000D01*
X108953000Y-126825925D02*
X111383133Y-129256059D01*
X111383133Y-129256059D02*
X116302059Y-129256059D01*
X109753000Y-125296000D02*
X109753000Y-126635962D01*
X109753000Y-126635962D02*
X111673086Y-128556049D01*
X111673086Y-128556049D02*
X118142049Y-128556049D01*
X118142049Y-128556049D02*
X126492000Y-136906000D01*
X110553000Y-125296000D02*
X110553000Y-126446000D01*
X110553000Y-126446000D02*
X111963039Y-127856039D01*
X111963039Y-127856039D02*
X119982039Y-127856039D01*
X119982039Y-127856039D02*
X126492000Y-134366000D01*
X126492000Y-131826000D02*
X121822029Y-127156029D01*
X121822029Y-127156029D02*
X116742029Y-127156029D01*
X116742029Y-127156029D02*
X113182000Y-123596000D01*
X113182000Y-123596000D02*
X112253000Y-123596000D01*
X112253000Y-123596000D02*
X112878000Y-123596000D01*
X126492000Y-129286000D02*
X123662019Y-126456019D01*
X123662019Y-126456019D02*
X117154091Y-126456019D01*
X117154091Y-126456019D02*
X113494074Y-122796001D01*
X113494074Y-122796001D02*
X112253000Y-122796000D01*
X126492000Y-126746000D02*
X125502009Y-125756009D01*
X125502009Y-125756009D02*
X117444044Y-125756009D01*
X117444044Y-125756009D02*
X113684036Y-121996000D01*
X113684036Y-121996000D02*
X112253000Y-121996000D01*
X112253000Y-121196000D02*
X113873998Y-121196000D01*
X113873998Y-121196000D02*
X117733997Y-125055999D01*
X117733997Y-125055999D02*
X125642001Y-125055999D01*
X125642001Y-125055999D02*
X126492000Y-124206000D01*
X100853000Y-123596000D02*
X100853000Y-130795000D01*
X100853000Y-130795000D02*
X94742000Y-136906000D01*
X102553000Y-125296000D02*
X102553000Y-131635000D01*
X102553000Y-131635000D02*
X97282000Y-136906000D01*
X103353000Y-125296000D02*
X103353000Y-133375000D01*
X103353000Y-133375000D02*
X99822000Y-136906000D01*
X104153000Y-125296000D02*
X104153000Y-135115000D01*
X104153000Y-135115000D02*
X102362000Y-136906000D01*
X104953000Y-125296000D02*
X104953000Y-136855000D01*
X104953000Y-136855000D02*
X104902000Y-136906000D01*
X95589420Y-92810780D02*
X91144420Y-92810780D01*
X76539420Y-92810780D02*
X80222420Y-92810780D01*
X80264000Y-89916000D02*
X76708000Y-89916000D01*
X76708000Y-89916000D02*
X71628000Y-89916000D01*
X90678000Y-89916000D02*
X80264000Y-89916000D01*
X80222420Y-92810780D02*
X80222420Y-89957580D01*
X80222420Y-89957580D02*
X80264000Y-89916000D01*
X71628000Y-89916000D02*
X54830000Y-89916000D01*
X71801500Y-87884000D02*
X71801500Y-89742500D01*
X71801500Y-89742500D02*
X71628000Y-89916000D01*
X109728000Y-89916000D02*
X90678000Y-89916000D01*
X90805000Y-87884000D02*
X90805000Y-89789000D01*
X90805000Y-89789000D02*
X90678000Y-89916000D01*
X126746000Y-89916000D02*
X109728000Y-89916000D01*
X109808500Y-87884000D02*
X109808500Y-89835500D01*
X109808500Y-89835500D02*
X109728000Y-89916000D01*
X128812000Y-87884000D02*
X128062001Y-88633999D01*
X128062001Y-88633999D02*
X128028001Y-88633999D01*
X128028001Y-88633999D02*
X126746000Y-89916000D01*
X54830000Y-89916000D02*
X52798000Y-87884000D01*
X60166000Y-138602000D02*
X60166000Y-140856000D01*
X60166000Y-140856000D02*
X61290000Y-141980000D01*
X61174000Y-131826000D02*
X58388000Y-134612000D01*
X58388000Y-134612000D02*
X58388000Y-136000000D01*
X69088000Y-131826000D02*
X61174000Y-131826000D01*
X58388000Y-143174000D02*
X58388000Y-136000000D01*
X58388000Y-136000000D02*
X58388000Y-135808000D01*
X71628000Y-129286000D02*
X69088000Y-131826000D01*
X71628000Y-127000000D02*
X71628000Y-129286000D01*
X67566000Y-123952000D02*
X68966000Y-123952000D01*
X68966000Y-123952000D02*
X71628000Y-126614000D01*
X67532000Y-148476000D02*
X67532000Y-148762000D01*
X67532000Y-148762000D02*
X66708010Y-149585990D01*
X66708010Y-149585990D02*
X60455952Y-149585990D01*
X59650000Y-146976000D02*
X59650000Y-144450000D01*
X60455952Y-149585990D02*
X59650000Y-148780038D01*
X59650000Y-148780038D02*
X59650000Y-146976000D01*
X59650000Y-144450000D02*
X58642000Y-143442000D01*
X58642000Y-143442000D02*
X58642000Y-143428000D01*
X58642000Y-143428000D02*
X58388000Y-143174000D01*
X71628000Y-127000000D02*
X71628000Y-126746000D01*
X71628000Y-126614000D02*
X71628000Y-127000000D01*
X60416047Y-131125990D02*
X58000000Y-133542037D01*
X58000000Y-133542037D02*
X57684037Y-133858000D01*
X57620000Y-144450000D02*
X57620000Y-133922037D01*
X57620000Y-133922037D02*
X58000000Y-133542037D01*
X57652000Y-133890037D02*
X57684037Y-133858000D01*
X68798048Y-131125990D02*
X60416047Y-131125990D01*
X70866000Y-129058038D02*
X68798048Y-131125990D01*
X68966000Y-125222000D02*
X70866000Y-127122000D01*
X70866000Y-127122000D02*
X70866000Y-129058038D01*
X67566000Y-125222000D02*
X68966000Y-125222000D01*
X60166000Y-150286000D02*
X68920000Y-150286000D01*
X68920000Y-150286000D02*
X70580000Y-148626000D01*
X70580000Y-148626000D02*
X70580000Y-148476000D01*
X57626000Y-147746000D02*
X60166000Y-150286000D01*
X57626000Y-145941963D02*
X57626000Y-147746000D01*
X57620000Y-144450000D02*
X57620000Y-145935963D01*
X57620000Y-145935963D02*
X57626000Y-145941963D01*
X55590000Y-144450000D02*
X55590000Y-133830000D01*
X55590000Y-133830000D02*
X53340000Y-131580000D01*
X53891998Y-124714000D02*
X56258000Y-124714000D01*
X53340000Y-131580000D02*
X53340000Y-125265998D01*
X53340000Y-125265998D02*
X53891998Y-124714000D01*
X56258000Y-124714000D02*
X56766000Y-125222000D01*
X56766000Y-125222000D02*
X58166000Y-125222000D01*
X42640000Y-149610000D02*
X44270010Y-151240010D01*
X44270010Y-151240010D02*
X52073953Y-151240010D01*
X42640000Y-149460000D02*
X42640000Y-149610000D01*
X52073953Y-151240010D02*
X55590000Y-147723963D01*
X55590000Y-147723963D02*
X55590000Y-145348025D01*
X55590000Y-145348025D02*
X55590000Y-144450000D01*
X58166000Y-123952000D02*
X53664035Y-123952000D01*
X53664035Y-123952000D02*
X52639990Y-124976045D01*
X52639990Y-124976045D02*
X52639990Y-131869953D01*
X52639990Y-131869953D02*
X54889990Y-134119952D01*
X54889990Y-134119952D02*
X54889990Y-143120010D01*
X54889990Y-143120010D02*
X53560000Y-144450000D01*
X45688000Y-149460000D02*
X45688000Y-149524000D01*
X46704000Y-150540000D02*
X51784000Y-150540000D01*
X45688000Y-149524000D02*
X46704000Y-150540000D01*
X53562000Y-148762000D02*
X53562000Y-145350025D01*
X51784000Y-150540000D02*
X53562000Y-148762000D01*
X53562000Y-145350025D02*
X53560000Y-145348025D01*
X53560000Y-145348025D02*
X53560000Y-144450000D01*
X49380000Y-141980000D02*
X45764000Y-141980000D01*
X45764000Y-141980000D02*
X45688000Y-141904000D01*
X84222420Y-92810780D02*
X88604420Y-92810780D01*
X78740000Y-132080000D02*
X75184000Y-132080000D01*
X85240000Y-132080000D02*
X83825787Y-132080000D01*
X83825787Y-132080000D02*
X78740000Y-132080000D01*
X105410000Y-111232002D02*
X105410000Y-104498000D01*
X105410000Y-104498000D02*
X107038000Y-102870000D01*
X107038000Y-102870000D02*
X107188000Y-102870000D01*
X105753000Y-113896000D02*
X105753000Y-111575002D01*
X105753000Y-111575002D02*
X105410000Y-111232002D01*
X104953000Y-113896000D02*
X104953000Y-111623544D01*
X104953000Y-111623544D02*
X104809990Y-111480534D01*
X104809990Y-111480534D02*
X104809990Y-101542010D01*
X104809990Y-101542010D02*
X107038000Y-99314000D01*
X107038000Y-99314000D02*
X107188000Y-99314000D01*
X95250000Y-96520000D02*
X54102000Y-96520000D01*
X54102000Y-96520000D02*
X45212000Y-105410000D01*
X45212000Y-105410000D02*
X45212000Y-117348000D01*
X45212000Y-117348000D02*
X48006000Y-120142000D01*
X48006000Y-120142000D02*
X51308000Y-120142000D01*
X51308000Y-120142000D02*
X58166000Y-120142000D01*
X98044000Y-96520000D02*
X95250000Y-96520000D01*
X100268010Y-98744010D02*
X98044000Y-96520000D01*
X100268010Y-100372158D02*
X100268010Y-98744010D01*
X100268010Y-110682010D02*
X102553000Y-112967000D01*
X102553000Y-112967000D02*
X102553000Y-113896000D01*
X100268010Y-100372158D02*
X100268010Y-110682010D01*
X59096002Y-120142000D02*
X58166000Y-120142000D01*
X102553000Y-113896000D02*
X102553000Y-113421000D01*
X92710000Y-95504000D02*
X53594000Y-95504000D01*
X98298000Y-95504000D02*
X92710000Y-95504000D01*
X103353000Y-113896000D02*
X103353000Y-112746000D01*
X103275998Y-112668998D02*
X103251000Y-112668998D01*
X103353000Y-112746000D02*
X103275998Y-112668998D01*
X103251000Y-112668998D02*
X100968020Y-110386018D01*
X46482000Y-121412000D02*
X58166000Y-121412000D01*
X100968020Y-110386018D02*
X100968020Y-98174020D01*
X43942000Y-118872000D02*
X46482000Y-121412000D01*
X100968020Y-98174020D02*
X98298000Y-95504000D01*
X53594000Y-95504000D02*
X43942000Y-105156000D01*
X43942000Y-105156000D02*
X43942000Y-118872000D01*
X54864000Y-115824000D02*
X55372000Y-116332000D01*
X55372000Y-116332000D02*
X58166000Y-116332000D01*
X54864000Y-126492000D02*
X58166000Y-126492000D01*
X67566000Y-111252000D02*
X68966000Y-111252000D01*
X80710010Y-110454047D02*
X80710010Y-124401955D01*
X68966000Y-111252000D02*
X70682010Y-109535990D01*
X79791953Y-109535990D02*
X80710010Y-110454047D01*
X74737990Y-125414010D02*
X73090010Y-127061990D01*
X65532000Y-133226020D02*
X64166000Y-134592020D01*
X70682010Y-109535990D02*
X79791953Y-109535990D01*
X80710010Y-124401955D02*
X79697955Y-125414010D01*
X79697955Y-125414010D02*
X74737990Y-125414010D01*
X73090010Y-127061990D02*
X73090010Y-129803916D01*
X73090010Y-129803916D02*
X69667906Y-133226020D01*
X69667906Y-133226020D02*
X65532000Y-133226020D01*
X64166000Y-134592020D02*
X64166000Y-138602000D01*
X67566000Y-112522000D02*
X68966000Y-112522000D01*
X80010000Y-124112002D02*
X79408002Y-124714000D01*
X68966000Y-112522000D02*
X71252000Y-110236000D01*
X71252000Y-110236000D02*
X79502000Y-110236000D01*
X79502000Y-110236000D02*
X80010000Y-110744000D01*
X80010000Y-110744000D02*
X80010000Y-124112002D01*
X59658000Y-134906000D02*
X59658000Y-136570000D01*
X79408002Y-124714000D02*
X74422000Y-124714000D01*
X72390000Y-126746000D02*
X72390000Y-129513963D01*
X74422000Y-124714000D02*
X72390000Y-126746000D01*
X69377953Y-132526010D02*
X62037990Y-132526010D01*
X72390000Y-129513963D02*
X69377953Y-132526010D01*
X62037990Y-132526010D02*
X59658000Y-134906000D01*
X52228000Y-137904000D02*
X53562000Y-136570000D01*
X45688000Y-137904000D02*
X52228000Y-137904000D01*
X85090000Y-115316000D02*
X85090000Y-112173000D01*
X85090000Y-112173000D02*
X83820000Y-110903000D01*
X83820000Y-110903000D02*
X83820000Y-109728000D01*
X98552000Y-129540000D02*
X98044000Y-130048000D01*
X98552000Y-126862000D02*
X98552000Y-129540000D01*
X100853000Y-121996000D02*
X99703000Y-121996000D01*
X99703000Y-121996000D02*
X98552000Y-123147000D01*
X98552000Y-123147000D02*
X98552000Y-126862000D01*
X99568000Y-130556000D02*
X99060000Y-131064000D01*
X99568000Y-128524000D02*
X99568000Y-130556000D01*
X99568000Y-127712239D02*
X99568000Y-128524000D01*
X99568000Y-123135998D02*
X99568000Y-127712239D01*
X100853000Y-122796000D02*
X99907998Y-122796000D01*
X99907998Y-122796000D02*
X99568000Y-123135998D01*
X106426000Y-131572000D02*
X106426000Y-132080000D01*
X106426000Y-129794000D02*
X106426000Y-131572000D01*
X105753000Y-129121000D02*
X106426000Y-129794000D01*
X105753000Y-125296000D02*
X105753000Y-129121000D01*
X85090000Y-109728000D02*
X86360000Y-109728000D01*
X42171200Y-113784800D02*
X42171200Y-108712000D01*
X42171200Y-108712000D02*
X42171200Y-107994874D01*
X53340000Y-94488000D02*
X42171200Y-105656800D01*
X42171200Y-105656800D02*
X42171200Y-108712000D01*
X55678074Y-94488000D02*
X53340000Y-94488000D01*
X104153000Y-113896000D02*
X104153000Y-112581036D01*
X104153000Y-112581036D02*
X101668030Y-110096066D01*
X101668030Y-110096066D02*
X101668030Y-97604030D01*
X101668030Y-97604030D02*
X98552000Y-94488000D01*
X98552000Y-94488000D02*
X55678074Y-94488000D01*
D41*
G36*
X65405000Y-126619000D02*
X60325000Y-126619000D01*
X60325000Y-109855000D01*
X65405000Y-109855000D01*
X65405000Y-126619000D01*
X65405000Y-126619000D01*
G37*
X65405000Y-126619000D02*
X60325000Y-126619000D01*
X60325000Y-109855000D01*
X65405000Y-109855000D01*
X65405000Y-126619000D01*
G36*
X110744000Y-123761500D02*
X102362000Y-123761500D01*
X102362000Y-115443000D01*
X110744000Y-115443000D01*
X110744000Y-123761500D01*
X110744000Y-123761500D01*
G37*
X110744000Y-123761500D02*
X102362000Y-123761500D01*
X102362000Y-115443000D01*
X110744000Y-115443000D01*
X110744000Y-123761500D01*
G36*
X63873000Y-119873000D02*
X61627000Y-119873000D01*
X61627000Y-116627000D01*
X63873000Y-116627000D01*
X63873000Y-119873000D01*
X63873000Y-119873000D01*
G37*
X63873000Y-119873000D02*
X61627000Y-119873000D01*
X61627000Y-116627000D01*
X63873000Y-116627000D01*
X63873000Y-119873000D01*
M02*
