G04 #@! TF.FileFunction,Soldermask,Top*
%FSLAX46Y46*%
G04 Gerber Fmt 4.6, Leading zero omitted, Abs format (unit mm)*
G04 Created by KiCad (PCBNEW 4.0.7-e2-6376~58~ubuntu16.04.1) date Wed Jun 27 11:11:34 2018*
%MOMM*%
%LPD*%
G01*
G04 APERTURE LIST*
%ADD10C,0.100000*%
%ADD11R,2.000000X0.600000*%
%ADD12R,2.000000X1.700000*%
%ADD13R,3.500000X3.500000*%
%ADD14R,1.600000X2.000000*%
%ADD15C,1.540000*%
%ADD16C,1.270000*%
%ADD17C,3.250000*%
%ADD18C,1.790000*%
%ADD19C,1.500000*%
%ADD20C,3.650000*%
%ADD21R,1.500000X1.500000*%
%ADD22R,2.000000X1.600000*%
%ADD23R,2.600000X1.600000*%
%ADD24R,2.500000X4.000000*%
%ADD25R,1.600000X2.600000*%
%ADD26R,1.700000X1.700000*%
%ADD27O,1.700000X1.700000*%
%ADD28R,1.600000X1.600000*%
%ADD29O,1.600000X1.600000*%
%ADD30R,1.700000X2.000000*%
%ADD31C,2.000000*%
%ADD32R,1.500000X0.550000*%
%ADD33R,0.550000X1.500000*%
%ADD34R,0.600000X1.550000*%
%ADD35R,1.800000X1.800000*%
%ADD36O,1.800000X1.800000*%
%ADD37C,4.064000*%
G04 APERTURE END LIST*
D10*
D11*
X58166000Y-109982000D03*
X58166000Y-111252000D03*
X58166000Y-112522000D03*
X58166000Y-113792000D03*
X58166000Y-115062000D03*
X58166000Y-116332000D03*
X58166000Y-117602000D03*
X58166000Y-118872000D03*
X58166000Y-120142000D03*
X58166000Y-121412000D03*
X58166000Y-122682000D03*
X58166000Y-123952000D03*
X58166000Y-125222000D03*
X58166000Y-126492000D03*
X67566000Y-126492000D03*
X67566000Y-125222000D03*
X67566000Y-123952000D03*
X67566000Y-122682000D03*
X67566000Y-121412000D03*
X67566000Y-120142000D03*
X67566000Y-118872000D03*
X67566000Y-117602000D03*
X67566000Y-116332000D03*
X67566000Y-115062000D03*
X67566000Y-113792000D03*
X67566000Y-112522000D03*
X67566000Y-111252000D03*
X67566000Y-109982000D03*
D12*
X89408000Y-163830000D03*
X85408000Y-163830000D03*
X78296000Y-163830000D03*
X82296000Y-163830000D03*
D13*
X126492000Y-152000000D03*
X126492000Y-158000000D03*
X131192000Y-155000000D03*
D12*
X54864000Y-115824000D03*
X50864000Y-115824000D03*
D14*
X108204000Y-130048000D03*
X108204000Y-134048000D03*
D15*
X63830000Y-141980000D03*
X61290000Y-141980000D03*
D16*
X61680000Y-144450000D03*
X59650000Y-144450000D03*
X57620000Y-144450000D03*
X55590000Y-144450000D03*
X53560000Y-144450000D03*
X51530000Y-144450000D03*
D15*
X49380000Y-141980000D03*
X51920000Y-141980000D03*
D17*
X50260000Y-155620000D03*
X62960000Y-155620000D03*
D18*
X48550000Y-158790000D03*
X64680000Y-158790000D03*
D14*
X106934000Y-110236000D03*
X106934000Y-106236000D03*
D19*
X94996000Y-120396000D03*
X94996000Y-125276000D03*
D20*
X43688000Y-78994000D03*
X55558000Y-78994000D03*
D21*
X54068000Y-85344000D03*
D19*
X52798000Y-87884000D03*
X51528000Y-85344000D03*
X50258000Y-87884000D03*
X48988000Y-85344000D03*
X47718000Y-87884000D03*
X46448000Y-85344000D03*
X45178000Y-87884000D03*
D14*
X89408000Y-133922000D03*
X89408000Y-137922000D03*
X90678000Y-121412000D03*
X90678000Y-117412000D03*
X90678000Y-124206000D03*
X90678000Y-128206000D03*
D22*
X116586000Y-118110000D03*
X120586000Y-118110000D03*
D14*
X95250000Y-114554000D03*
X95250000Y-110554000D03*
D22*
X116586000Y-120650000D03*
X120586000Y-120650000D03*
D14*
X77978000Y-118904000D03*
X77978000Y-122904000D03*
X77978000Y-116046000D03*
X77978000Y-112046000D03*
D23*
X54610000Y-109982000D03*
X51010000Y-109982000D03*
D24*
X116332000Y-150366000D03*
X116332000Y-156466000D03*
D14*
X108204000Y-155480000D03*
X108204000Y-159480000D03*
X67532000Y-140856000D03*
X67532000Y-136856000D03*
X42640000Y-141904000D03*
X42640000Y-137904000D03*
X86868000Y-155480000D03*
X86868000Y-159480000D03*
D24*
X94996000Y-150368000D03*
X94996000Y-156468000D03*
D14*
X103124000Y-155480000D03*
X103124000Y-159480000D03*
D25*
X75692000Y-150346000D03*
X75692000Y-153946000D03*
D14*
X81788000Y-155480000D03*
X81788000Y-159480000D03*
D26*
X75692000Y-102108000D03*
D27*
X75692000Y-104648000D03*
X73152000Y-102108000D03*
X73152000Y-104648000D03*
X70612000Y-102108000D03*
X70612000Y-104648000D03*
X68072000Y-102108000D03*
X68072000Y-104648000D03*
X65532000Y-102108000D03*
X65532000Y-104648000D03*
D28*
X87376000Y-114554000D03*
D29*
X87376000Y-122174000D03*
D12*
X118808000Y-102870000D03*
X114808000Y-102870000D03*
X118808000Y-99314000D03*
X114808000Y-99314000D03*
D28*
X116332000Y-146050000D03*
D29*
X123952000Y-146050000D03*
D28*
X110744000Y-146050000D03*
D29*
X103124000Y-146050000D03*
D28*
X86868000Y-146050000D03*
D29*
X79248000Y-146050000D03*
D26*
X126492000Y-101346000D03*
D27*
X126492000Y-103886000D03*
X126492000Y-106426000D03*
X126492000Y-108966000D03*
X126492000Y-111506000D03*
X126492000Y-114046000D03*
X126492000Y-116586000D03*
X126492000Y-119126000D03*
D26*
X126492000Y-141986000D03*
D27*
X126492000Y-139446000D03*
X126492000Y-136906000D03*
X126492000Y-134366000D03*
X126492000Y-131826000D03*
X126492000Y-129286000D03*
X126492000Y-126746000D03*
X126492000Y-124206000D03*
D26*
X94742000Y-136906000D03*
D27*
X97282000Y-136906000D03*
X99822000Y-136906000D03*
X102362000Y-136906000D03*
X104902000Y-136906000D03*
D20*
X100698500Y-78994000D03*
X112568500Y-78994000D03*
D21*
X111078500Y-85344000D03*
D19*
X109808500Y-87884000D03*
X108538500Y-85344000D03*
X107268500Y-87884000D03*
X105998500Y-85344000D03*
X104728500Y-87884000D03*
X103458500Y-85344000D03*
X102188500Y-87884000D03*
D26*
X86614000Y-141986000D03*
D27*
X89154000Y-141986000D03*
X91694000Y-141986000D03*
X94234000Y-141986000D03*
X96774000Y-141986000D03*
X99314000Y-141986000D03*
X101854000Y-141986000D03*
X104394000Y-141986000D03*
D20*
X81695000Y-78994000D03*
X93565000Y-78994000D03*
D21*
X92075000Y-85344000D03*
D19*
X90805000Y-87884000D03*
X89535000Y-85344000D03*
X88265000Y-87884000D03*
X86995000Y-85344000D03*
X85725000Y-87884000D03*
X84455000Y-85344000D03*
X83185000Y-87884000D03*
D20*
X119702000Y-78994000D03*
X131572000Y-78994000D03*
D21*
X130082000Y-85344000D03*
D19*
X128812000Y-87884000D03*
X127542000Y-85344000D03*
X126272000Y-87884000D03*
X125002000Y-85344000D03*
X123732000Y-87884000D03*
X122462000Y-85344000D03*
X121192000Y-87884000D03*
D26*
X108966000Y-141986000D03*
D27*
X111506000Y-141986000D03*
X114046000Y-141986000D03*
X116586000Y-141986000D03*
D20*
X62691500Y-78994000D03*
X74561500Y-78994000D03*
D21*
X73071500Y-85344000D03*
D19*
X71801500Y-87884000D03*
X70531500Y-85344000D03*
X69261500Y-87884000D03*
X67991500Y-85344000D03*
X66721500Y-87884000D03*
X65451500Y-85344000D03*
X64181500Y-87884000D03*
D26*
X74422000Y-141986000D03*
D27*
X76962000Y-141986000D03*
X79502000Y-141986000D03*
X82042000Y-141986000D03*
D26*
X88604420Y-92810780D03*
D27*
X91144420Y-92810780D03*
D12*
X122872000Y-123444000D03*
X118872000Y-123444000D03*
D30*
X70580000Y-136824000D03*
X70580000Y-140824000D03*
X75184000Y-132080000D03*
X75184000Y-136080000D03*
X92202000Y-110554000D03*
X92202000Y-114554000D03*
D12*
X111188000Y-102870000D03*
X107188000Y-102870000D03*
X111188000Y-99314000D03*
X107188000Y-99314000D03*
X72539420Y-92810780D03*
X76539420Y-92810780D03*
X80222420Y-92810780D03*
X84222420Y-92810780D03*
X95589420Y-92810780D03*
X99589420Y-92810780D03*
D30*
X95250000Y-106680000D03*
X95250000Y-102680000D03*
X91948000Y-106680000D03*
X91948000Y-102680000D03*
X54864000Y-126492000D03*
X54864000Y-130492000D03*
X67532000Y-148476000D03*
X67532000Y-144476000D03*
X70580000Y-144476000D03*
X70580000Y-148476000D03*
X42640000Y-149460000D03*
X42640000Y-145460000D03*
X45688000Y-145460000D03*
X45688000Y-149460000D03*
D12*
X64166000Y-138602000D03*
X60166000Y-138602000D03*
D30*
X45688000Y-141904000D03*
X45688000Y-137904000D03*
D31*
X78740000Y-136580000D03*
X78740000Y-132080000D03*
X85240000Y-136580000D03*
X85240000Y-132080000D03*
D32*
X100853000Y-115596000D03*
X100853000Y-116396000D03*
X100853000Y-117196000D03*
X100853000Y-117996000D03*
X100853000Y-118796000D03*
X100853000Y-119596000D03*
X100853000Y-120396000D03*
X100853000Y-121196000D03*
X100853000Y-121996000D03*
X100853000Y-122796000D03*
X100853000Y-123596000D03*
D33*
X102553000Y-125296000D03*
X103353000Y-125296000D03*
X104153000Y-125296000D03*
X104953000Y-125296000D03*
X105753000Y-125296000D03*
X106553000Y-125296000D03*
X107353000Y-125296000D03*
X108153000Y-125296000D03*
X108953000Y-125296000D03*
X109753000Y-125296000D03*
X110553000Y-125296000D03*
D32*
X112253000Y-123596000D03*
X112253000Y-122796000D03*
X112253000Y-121996000D03*
X112253000Y-121196000D03*
X112253000Y-120396000D03*
X112253000Y-119596000D03*
X112253000Y-118796000D03*
X112253000Y-117996000D03*
X112253000Y-117196000D03*
X112253000Y-116396000D03*
X112253000Y-115596000D03*
D33*
X110553000Y-113896000D03*
X109753000Y-113896000D03*
X108953000Y-113896000D03*
X108153000Y-113896000D03*
X107353000Y-113896000D03*
X106553000Y-113896000D03*
X105753000Y-113896000D03*
X104953000Y-113896000D03*
X104153000Y-113896000D03*
X103353000Y-113896000D03*
X102553000Y-113896000D03*
D34*
X83820000Y-109728000D03*
X85090000Y-109728000D03*
X86360000Y-109728000D03*
X87630000Y-109728000D03*
X87630000Y-104328000D03*
X86360000Y-104328000D03*
X85090000Y-104328000D03*
X83820000Y-104328000D03*
D35*
X108204000Y-150368000D03*
D36*
X105664000Y-150368000D03*
X103124000Y-150368000D03*
D35*
X86868000Y-150368000D03*
D36*
X84328000Y-150368000D03*
X81788000Y-150368000D03*
D19*
X73660000Y-119888000D03*
X73660000Y-115008000D03*
D37*
X128000000Y-96000000D03*
X47000000Y-96000000D03*
X115000000Y-162000000D03*
X70000000Y-162000000D03*
M02*
