G04 #@! TF.FileFunction,Soldermask,Top*
%FSLAX46Y46*%
G04 Gerber Fmt 4.6, Leading zero omitted, Abs format (unit mm)*
G04 Created by KiCad (PCBNEW 4.0.7-e2-6376~58~ubuntu16.04.1) date Wed Jun 27 11:01:06 2018*
%MOMM*%
%LPD*%
G01*
G04 APERTURE LIST*
%ADD10C,0.100000*%
%ADD11C,0.200000*%
%ADD12R,2.100000X2.400000*%
%ADD13C,4.050000*%
%ADD14R,1.900000X1.900000*%
%ADD15C,1.900000*%
%ADD16R,2.400000X2.100000*%
%ADD17R,2.400000X2.000000*%
%ADD18R,2.000000X2.000000*%
%ADD19O,2.000000X2.000000*%
%ADD20R,2.000000X2.400000*%
%ADD21C,2.400000*%
%ADD22R,1.200000X1.300000*%
%ADD23R,1.950000X1.000000*%
%ADD24R,2.400000X2.400000*%
%ADD25R,2.000000X3.900000*%
%ADD26R,2.100000X2.100000*%
%ADD27O,2.100000X2.100000*%
%ADD28C,2.020000*%
%ADD29R,0.950000X1.900000*%
%ADD30R,1.900000X0.950000*%
%ADD31R,1.000000X1.950000*%
%ADD32R,2.200000X2.200000*%
%ADD33O,2.200000X2.200000*%
%ADD34C,4.464000*%
G04 APERTURE END LIST*
D10*
D11*
X256000000Y-62000000D02*
X256000000Y-137000000D01*
X176000000Y-62000000D02*
X256000000Y-62000000D01*
X176000000Y-137000000D02*
X176000000Y-62000000D01*
X256000000Y-137000000D02*
X176000000Y-137000000D01*
D12*
X210820000Y-104584000D03*
X210820000Y-100584000D03*
D13*
X248000000Y-115350000D03*
X248000000Y-127220000D03*
D14*
X241650000Y-125730000D03*
D15*
X239110000Y-124460000D03*
X241650000Y-123190000D03*
X239110000Y-121920000D03*
X241650000Y-120650000D03*
X239110000Y-119380000D03*
X241650000Y-118110000D03*
X239110000Y-116840000D03*
D13*
X183912000Y-127220000D03*
X183912000Y-115350000D03*
D14*
X190262000Y-116840000D03*
D15*
X192802000Y-118110000D03*
X190262000Y-119380000D03*
X192802000Y-120650000D03*
X190262000Y-121920000D03*
X192802000Y-123190000D03*
X190262000Y-124460000D03*
X192802000Y-125730000D03*
D16*
X219710000Y-111252000D03*
X215710000Y-111252000D03*
D17*
X220726000Y-104902000D03*
X216726000Y-104902000D03*
D18*
X212090000Y-108204000D03*
D19*
X219710000Y-108204000D03*
D20*
X213868000Y-100584000D03*
X213868000Y-104584000D03*
X232918000Y-108204000D03*
X232918000Y-104204000D03*
D17*
X223774000Y-104902000D03*
X227774000Y-104902000D03*
D21*
X229766000Y-108204000D03*
X229766000Y-112704000D03*
X223266000Y-108204000D03*
X223266000Y-112704000D03*
D15*
X219964000Y-100584000D03*
X224844000Y-100584000D03*
D22*
X179624000Y-77440000D03*
X181524000Y-77440000D03*
X180574000Y-75440000D03*
D23*
X232410000Y-94996000D03*
X232410000Y-96266000D03*
X232410000Y-97536000D03*
X232410000Y-98806000D03*
X237810000Y-98806000D03*
X237810000Y-97536000D03*
X237810000Y-96266000D03*
X237810000Y-94996000D03*
D24*
X192786000Y-83038000D03*
D21*
X192786000Y-75438000D03*
D20*
X217424000Y-77724000D03*
X217424000Y-73724000D03*
D17*
X229235000Y-85725000D03*
X233235000Y-85725000D03*
X210058000Y-86868000D03*
X206058000Y-86868000D03*
D20*
X219964000Y-77724000D03*
X219964000Y-73724000D03*
D17*
X183642000Y-96266000D03*
X179642000Y-96266000D03*
X182182000Y-107696000D03*
X186182000Y-107696000D03*
D25*
X205740000Y-121920000D03*
X205740000Y-127320000D03*
D20*
X213360000Y-125984000D03*
X213360000Y-129984000D03*
X218440000Y-125984000D03*
X218440000Y-129984000D03*
D25*
X226060000Y-121920000D03*
X226060000Y-127320000D03*
D26*
X203200000Y-107188000D03*
D27*
X200660000Y-107188000D03*
X203200000Y-104648000D03*
X200660000Y-104648000D03*
X203200000Y-102108000D03*
X200660000Y-102108000D03*
X203200000Y-99568000D03*
X200660000Y-99568000D03*
X203200000Y-97028000D03*
X200660000Y-97028000D03*
D12*
X192532000Y-64516000D03*
X192532000Y-68516000D03*
X189484000Y-64516000D03*
X189484000Y-68516000D03*
X186436000Y-64516000D03*
X186436000Y-68516000D03*
D18*
X213360000Y-116586000D03*
D19*
X205740000Y-116586000D03*
D18*
X218440000Y-116586000D03*
D19*
X226060000Y-116586000D03*
D26*
X199898000Y-65024000D03*
D27*
X202438000Y-65024000D03*
X204978000Y-65024000D03*
X207518000Y-65024000D03*
X210058000Y-65024000D03*
X212598000Y-65024000D03*
X215138000Y-65024000D03*
X217678000Y-65024000D03*
D26*
X247142000Y-99060000D03*
D27*
X247142000Y-96520000D03*
X247142000Y-93980000D03*
X247142000Y-91440000D03*
X247142000Y-88900000D03*
D26*
X179578000Y-92710000D03*
D27*
X179578000Y-90170000D03*
D26*
X199644000Y-121920000D03*
D27*
X199644000Y-124460000D03*
X199644000Y-127000000D03*
X199644000Y-129540000D03*
D26*
X232156000Y-121920000D03*
D27*
X232156000Y-124460000D03*
X232156000Y-127000000D03*
X232156000Y-129540000D03*
D26*
X240030000Y-104140000D03*
D27*
X237490000Y-104140000D03*
D12*
X222504000Y-71692000D03*
X222504000Y-75692000D03*
X205994000Y-77280000D03*
X205994000Y-81280000D03*
X203454000Y-77280000D03*
X203454000Y-81280000D03*
X200914000Y-77280000D03*
X200914000Y-81280000D03*
D16*
X247650000Y-104140000D03*
X243650000Y-104140000D03*
X183578000Y-86614000D03*
X179578000Y-86614000D03*
D12*
X188976000Y-103314000D03*
X188976000Y-99314000D03*
D16*
X179624000Y-83790000D03*
X183624000Y-83790000D03*
X179624000Y-80234000D03*
X183624000Y-80234000D03*
D28*
X192786000Y-95504000D03*
X187786000Y-93004000D03*
X192786000Y-90504000D03*
D18*
X246126000Y-72644000D03*
D19*
X228346000Y-65024000D03*
X243586000Y-72644000D03*
X230886000Y-65024000D03*
X241046000Y-72644000D03*
X233426000Y-65024000D03*
X238506000Y-72644000D03*
X235966000Y-65024000D03*
X235966000Y-72644000D03*
X238506000Y-65024000D03*
X233426000Y-72644000D03*
X241046000Y-65024000D03*
X230886000Y-72644000D03*
X243586000Y-65024000D03*
X228346000Y-72644000D03*
X246126000Y-65024000D03*
D29*
X215164000Y-92934000D03*
X215964000Y-92934000D03*
X216764000Y-92934000D03*
X217564000Y-92934000D03*
X218364000Y-92934000D03*
X219164000Y-92934000D03*
X219964000Y-92934000D03*
X220764000Y-92934000D03*
X221564000Y-92934000D03*
X222364000Y-92934000D03*
X223164000Y-92934000D03*
D30*
X224864000Y-91234000D03*
X224864000Y-90434000D03*
X224864000Y-89634000D03*
X224864000Y-88834000D03*
X224864000Y-88034000D03*
X224864000Y-87234000D03*
X224864000Y-86434000D03*
X224864000Y-85634000D03*
X224864000Y-84834000D03*
X224864000Y-84034000D03*
X224864000Y-83234000D03*
D29*
X223164000Y-81534000D03*
X222364000Y-81534000D03*
X221564000Y-81534000D03*
X220764000Y-81534000D03*
X219964000Y-81534000D03*
X219164000Y-81534000D03*
X218364000Y-81534000D03*
X217564000Y-81534000D03*
X216764000Y-81534000D03*
X215964000Y-81534000D03*
X215164000Y-81534000D03*
D30*
X213464000Y-83234000D03*
X213464000Y-84034000D03*
X213464000Y-84834000D03*
X213464000Y-85634000D03*
X213464000Y-86434000D03*
X213464000Y-87234000D03*
X213464000Y-88034000D03*
X213464000Y-88834000D03*
X213464000Y-89634000D03*
X213464000Y-90434000D03*
X213464000Y-91234000D03*
D31*
X186182000Y-99314000D03*
X184912000Y-99314000D03*
X183642000Y-99314000D03*
X182372000Y-99314000D03*
X182372000Y-104714000D03*
X183642000Y-104714000D03*
X184912000Y-104714000D03*
X186182000Y-104714000D03*
D32*
X213360000Y-121920000D03*
D33*
X215900000Y-121920000D03*
X218440000Y-121920000D03*
D34*
X252000000Y-133000000D03*
X180000000Y-133000000D03*
X180000000Y-66000000D03*
X252000000Y-66000000D03*
M02*
