G04 #@! TF.FileFunction,Soldermask,Bot*
%FSLAX46Y46*%
G04 Gerber Fmt 4.6, Leading zero omitted, Abs format (unit mm)*
G04 Created by KiCad (PCBNEW 4.0.7-e2-6376~58~ubuntu16.04.1) date Wed Jun 27 11:01:06 2018*
%MOMM*%
%LPD*%
G01*
G04 APERTURE LIST*
%ADD10C,0.100000*%
%ADD11C,4.050000*%
%ADD12R,1.900000X1.900000*%
%ADD13C,1.900000*%
%ADD14R,2.000000X2.000000*%
%ADD15O,2.000000X2.000000*%
%ADD16C,2.400000*%
%ADD17R,2.400000X2.400000*%
%ADD18R,2.100000X2.100000*%
%ADD19O,2.100000X2.100000*%
%ADD20C,2.020000*%
%ADD21R,2.200000X2.200000*%
%ADD22O,2.200000X2.200000*%
%ADD23C,4.464000*%
G04 APERTURE END LIST*
D10*
D11*
X248000000Y-115350000D03*
X248000000Y-127220000D03*
D12*
X241650000Y-125730000D03*
D13*
X239110000Y-124460000D03*
X241650000Y-123190000D03*
X239110000Y-121920000D03*
X241650000Y-120650000D03*
X239110000Y-119380000D03*
X241650000Y-118110000D03*
X239110000Y-116840000D03*
D11*
X183912000Y-127220000D03*
X183912000Y-115350000D03*
D12*
X190262000Y-116840000D03*
D13*
X192802000Y-118110000D03*
X190262000Y-119380000D03*
X192802000Y-120650000D03*
X190262000Y-121920000D03*
X192802000Y-123190000D03*
X190262000Y-124460000D03*
X192802000Y-125730000D03*
D14*
X212090000Y-108204000D03*
D15*
X219710000Y-108204000D03*
D16*
X229766000Y-108204000D03*
X229766000Y-112704000D03*
X223266000Y-108204000D03*
X223266000Y-112704000D03*
D13*
X219964000Y-100584000D03*
X224844000Y-100584000D03*
D17*
X192786000Y-83038000D03*
D16*
X192786000Y-75438000D03*
D18*
X203200000Y-107188000D03*
D19*
X200660000Y-107188000D03*
X203200000Y-104648000D03*
X200660000Y-104648000D03*
X203200000Y-102108000D03*
X200660000Y-102108000D03*
X203200000Y-99568000D03*
X200660000Y-99568000D03*
X203200000Y-97028000D03*
X200660000Y-97028000D03*
D14*
X213360000Y-116586000D03*
D15*
X205740000Y-116586000D03*
D14*
X218440000Y-116586000D03*
D15*
X226060000Y-116586000D03*
D18*
X199898000Y-65024000D03*
D19*
X202438000Y-65024000D03*
X204978000Y-65024000D03*
X207518000Y-65024000D03*
X210058000Y-65024000D03*
X212598000Y-65024000D03*
X215138000Y-65024000D03*
X217678000Y-65024000D03*
D18*
X247142000Y-99060000D03*
D19*
X247142000Y-96520000D03*
X247142000Y-93980000D03*
X247142000Y-91440000D03*
X247142000Y-88900000D03*
D18*
X179578000Y-92710000D03*
D19*
X179578000Y-90170000D03*
D18*
X199644000Y-121920000D03*
D19*
X199644000Y-124460000D03*
X199644000Y-127000000D03*
X199644000Y-129540000D03*
D18*
X232156000Y-121920000D03*
D19*
X232156000Y-124460000D03*
X232156000Y-127000000D03*
X232156000Y-129540000D03*
D18*
X240030000Y-104140000D03*
D19*
X237490000Y-104140000D03*
D20*
X192786000Y-95504000D03*
X187786000Y-93004000D03*
X192786000Y-90504000D03*
D14*
X246126000Y-72644000D03*
D15*
X228346000Y-65024000D03*
X243586000Y-72644000D03*
X230886000Y-65024000D03*
X241046000Y-72644000D03*
X233426000Y-65024000D03*
X238506000Y-72644000D03*
X235966000Y-65024000D03*
X235966000Y-72644000D03*
X238506000Y-65024000D03*
X233426000Y-72644000D03*
X241046000Y-65024000D03*
X230886000Y-72644000D03*
X243586000Y-65024000D03*
X228346000Y-72644000D03*
X246126000Y-65024000D03*
D21*
X213360000Y-121920000D03*
D22*
X215900000Y-121920000D03*
X218440000Y-121920000D03*
D23*
X252000000Y-133000000D03*
X180000000Y-133000000D03*
X180000000Y-66000000D03*
X252000000Y-66000000D03*
M02*
