G04 #@! TF.FileFunction,Legend,Bot*
%FSLAX46Y46*%
G04 Gerber Fmt 4.6, Leading zero omitted, Abs format (unit mm)*
G04 Created by KiCad (PCBNEW 4.0.7-e2-6376~58~ubuntu16.04.1) date Wed Jun 27 11:01:06 2018*
%MOMM*%
%LPD*%
G01*
G04 APERTURE LIST*
%ADD10C,0.100000*%
%ADD11C,0.300000*%
%ADD12C,0.120000*%
%ADD13C,0.150000*%
G04 APERTURE END LIST*
D10*
D11*
X267171429Y-93214287D02*
X267171429Y-94214287D01*
X265671429Y-93571430D01*
X267171429Y-95500001D02*
X267171429Y-94785715D01*
X266457143Y-94714286D01*
X266528571Y-94785715D01*
X266600000Y-94928572D01*
X266600000Y-95285715D01*
X266528571Y-95428572D01*
X266457143Y-95500001D01*
X266314286Y-95571429D01*
X265957143Y-95571429D01*
X265814286Y-95500001D01*
X265742857Y-95428572D01*
X265671429Y-95285715D01*
X265671429Y-94928572D01*
X265742857Y-94785715D01*
X265814286Y-94714286D01*
X265742857Y-96285714D02*
X265671429Y-96285714D01*
X265528571Y-96214286D01*
X265457143Y-96142857D01*
X267171429Y-97214286D02*
X267171429Y-97357143D01*
X267100000Y-97500000D01*
X267028571Y-97571429D01*
X266885714Y-97642858D01*
X266600000Y-97714286D01*
X266242857Y-97714286D01*
X265957143Y-97642858D01*
X265814286Y-97571429D01*
X265742857Y-97500000D01*
X265671429Y-97357143D01*
X265671429Y-97214286D01*
X265742857Y-97071429D01*
X265814286Y-97000000D01*
X265957143Y-96928572D01*
X266242857Y-96857143D01*
X266600000Y-96857143D01*
X266885714Y-96928572D01*
X267028571Y-97000000D01*
X267100000Y-97071429D01*
X267171429Y-97214286D01*
X267171429Y-98642857D02*
X267171429Y-98785714D01*
X267100000Y-98928571D01*
X267028571Y-99000000D01*
X266885714Y-99071429D01*
X266600000Y-99142857D01*
X266242857Y-99142857D01*
X265957143Y-99071429D01*
X265814286Y-99000000D01*
X265742857Y-98928571D01*
X265671429Y-98785714D01*
X265671429Y-98642857D01*
X265742857Y-98500000D01*
X265814286Y-98428571D01*
X265957143Y-98357143D01*
X266242857Y-98285714D01*
X266600000Y-98285714D01*
X266885714Y-98357143D01*
X267028571Y-98428571D01*
X267100000Y-98500000D01*
X267171429Y-98642857D01*
X267171429Y-100071428D02*
X267171429Y-100214285D01*
X267100000Y-100357142D01*
X267028571Y-100428571D01*
X266885714Y-100500000D01*
X266600000Y-100571428D01*
X266242857Y-100571428D01*
X265957143Y-100500000D01*
X265814286Y-100428571D01*
X265742857Y-100357142D01*
X265671429Y-100214285D01*
X265671429Y-100071428D01*
X265742857Y-99928571D01*
X265814286Y-99857142D01*
X265957143Y-99785714D01*
X266242857Y-99714285D01*
X266600000Y-99714285D01*
X266885714Y-99785714D01*
X267028571Y-99857142D01*
X267100000Y-99928571D01*
X267171429Y-100071428D01*
X265671429Y-102357142D02*
X266671429Y-102357142D01*
X266528571Y-102357142D02*
X266600000Y-102428570D01*
X266671429Y-102571428D01*
X266671429Y-102785713D01*
X266600000Y-102928570D01*
X266457143Y-102999999D01*
X265671429Y-102999999D01*
X266457143Y-102999999D02*
X266600000Y-103071428D01*
X266671429Y-103214285D01*
X266671429Y-103428570D01*
X266600000Y-103571428D01*
X266457143Y-103642856D01*
X265671429Y-103642856D01*
X265671429Y-104357142D02*
X266671429Y-104357142D01*
X266528571Y-104357142D02*
X266600000Y-104428570D01*
X266671429Y-104571428D01*
X266671429Y-104785713D01*
X266600000Y-104928570D01*
X266457143Y-104999999D01*
X265671429Y-104999999D01*
X266457143Y-104999999D02*
X266600000Y-105071428D01*
X266671429Y-105214285D01*
X266671429Y-105428570D01*
X266600000Y-105571428D01*
X266457143Y-105642856D01*
X265671429Y-105642856D01*
X265000000Y-62000000D02*
X265000000Y-137000000D01*
X260000000Y-62000000D02*
X267700000Y-62000000D01*
X260000000Y-137000000D02*
X267700000Y-137000000D01*
X265000000Y-137000000D02*
X264413579Y-135873496D01*
X265000000Y-137000000D02*
X265586421Y-135873496D01*
X265000000Y-62000000D02*
X264413579Y-63126504D01*
X265000000Y-62000000D02*
X265586421Y-63126504D01*
X210071430Y-146171429D02*
X209928572Y-146100000D01*
X209857144Y-146028571D01*
X209785715Y-145885714D01*
X209785715Y-145814286D01*
X209857144Y-145671429D01*
X209928572Y-145600000D01*
X210071430Y-145528571D01*
X210357144Y-145528571D01*
X210500001Y-145600000D01*
X210571430Y-145671429D01*
X210642858Y-145814286D01*
X210642858Y-145885714D01*
X210571430Y-146028571D01*
X210500001Y-146100000D01*
X210357144Y-146171429D01*
X210071430Y-146171429D01*
X209928572Y-146242857D01*
X209857144Y-146314286D01*
X209785715Y-146457143D01*
X209785715Y-146742857D01*
X209857144Y-146885714D01*
X209928572Y-146957143D01*
X210071430Y-147028571D01*
X210357144Y-147028571D01*
X210500001Y-146957143D01*
X210571430Y-146885714D01*
X210642858Y-146742857D01*
X210642858Y-146457143D01*
X210571430Y-146314286D01*
X210500001Y-146242857D01*
X210357144Y-146171429D01*
X211571429Y-145528571D02*
X211714286Y-145528571D01*
X211857143Y-145600000D01*
X211928572Y-145671429D01*
X212000001Y-145814286D01*
X212071429Y-146100000D01*
X212071429Y-146457143D01*
X212000001Y-146742857D01*
X211928572Y-146885714D01*
X211857143Y-146957143D01*
X211714286Y-147028571D01*
X211571429Y-147028571D01*
X211428572Y-146957143D01*
X211357143Y-146885714D01*
X211285715Y-146742857D01*
X211214286Y-146457143D01*
X211214286Y-146100000D01*
X211285715Y-145814286D01*
X211357143Y-145671429D01*
X211428572Y-145600000D01*
X211571429Y-145528571D01*
X212785714Y-146957143D02*
X212785714Y-147028571D01*
X212714286Y-147171429D01*
X212642857Y-147242857D01*
X213714286Y-145528571D02*
X213857143Y-145528571D01*
X214000000Y-145600000D01*
X214071429Y-145671429D01*
X214142858Y-145814286D01*
X214214286Y-146100000D01*
X214214286Y-146457143D01*
X214142858Y-146742857D01*
X214071429Y-146885714D01*
X214000000Y-146957143D01*
X213857143Y-147028571D01*
X213714286Y-147028571D01*
X213571429Y-146957143D01*
X213500000Y-146885714D01*
X213428572Y-146742857D01*
X213357143Y-146457143D01*
X213357143Y-146100000D01*
X213428572Y-145814286D01*
X213500000Y-145671429D01*
X213571429Y-145600000D01*
X213714286Y-145528571D01*
X215142857Y-145528571D02*
X215285714Y-145528571D01*
X215428571Y-145600000D01*
X215500000Y-145671429D01*
X215571429Y-145814286D01*
X215642857Y-146100000D01*
X215642857Y-146457143D01*
X215571429Y-146742857D01*
X215500000Y-146885714D01*
X215428571Y-146957143D01*
X215285714Y-147028571D01*
X215142857Y-147028571D01*
X215000000Y-146957143D01*
X214928571Y-146885714D01*
X214857143Y-146742857D01*
X214785714Y-146457143D01*
X214785714Y-146100000D01*
X214857143Y-145814286D01*
X214928571Y-145671429D01*
X215000000Y-145600000D01*
X215142857Y-145528571D01*
X216571428Y-145528571D02*
X216714285Y-145528571D01*
X216857142Y-145600000D01*
X216928571Y-145671429D01*
X217000000Y-145814286D01*
X217071428Y-146100000D01*
X217071428Y-146457143D01*
X217000000Y-146742857D01*
X216928571Y-146885714D01*
X216857142Y-146957143D01*
X216714285Y-147028571D01*
X216571428Y-147028571D01*
X216428571Y-146957143D01*
X216357142Y-146885714D01*
X216285714Y-146742857D01*
X216214285Y-146457143D01*
X216214285Y-146100000D01*
X216285714Y-145814286D01*
X216357142Y-145671429D01*
X216428571Y-145600000D01*
X216571428Y-145528571D01*
X218857142Y-147028571D02*
X218857142Y-146028571D01*
X218857142Y-146171429D02*
X218928570Y-146100000D01*
X219071428Y-146028571D01*
X219285713Y-146028571D01*
X219428570Y-146100000D01*
X219499999Y-146242857D01*
X219499999Y-147028571D01*
X219499999Y-146242857D02*
X219571428Y-146100000D01*
X219714285Y-146028571D01*
X219928570Y-146028571D01*
X220071428Y-146100000D01*
X220142856Y-146242857D01*
X220142856Y-147028571D01*
X220857142Y-147028571D02*
X220857142Y-146028571D01*
X220857142Y-146171429D02*
X220928570Y-146100000D01*
X221071428Y-146028571D01*
X221285713Y-146028571D01*
X221428570Y-146100000D01*
X221499999Y-146242857D01*
X221499999Y-147028571D01*
X221499999Y-146242857D02*
X221571428Y-146100000D01*
X221714285Y-146028571D01*
X221928570Y-146028571D01*
X222071428Y-146100000D01*
X222142856Y-146242857D01*
X222142856Y-147028571D01*
X176000000Y-145000000D02*
X256000000Y-145000000D01*
X176000000Y-140000000D02*
X176000000Y-147700000D01*
X256000000Y-140000000D02*
X256000000Y-147700000D01*
X256000000Y-145000000D02*
X254873496Y-145586421D01*
X256000000Y-145000000D02*
X254873496Y-144413579D01*
X176000000Y-145000000D02*
X177126504Y-145586421D01*
X176000000Y-145000000D02*
X177126504Y-144413579D01*
D12*
X248806000Y-74044000D02*
X247536000Y-74044000D01*
X248806000Y-74044000D02*
X248806000Y-71504000D01*
X248606000Y-73844000D02*
X248606000Y-63824000D01*
X248606000Y-63824000D02*
X225866000Y-63824000D01*
X225866000Y-63824000D02*
X225866000Y-73844000D01*
X225866000Y-73844000D02*
X248606000Y-73844000D01*
X246761000Y-70864000D02*
X245491000Y-70864000D01*
X245491000Y-70864000D02*
X245491000Y-66804000D01*
X245491000Y-66804000D02*
X246761000Y-66804000D01*
X246761000Y-66804000D02*
X246761000Y-70864000D01*
X246761000Y-68834000D02*
X245491000Y-68834000D01*
X244221000Y-70864000D02*
X242951000Y-70864000D01*
X242951000Y-70864000D02*
X242951000Y-66804000D01*
X242951000Y-66804000D02*
X244221000Y-66804000D01*
X244221000Y-66804000D02*
X244221000Y-70864000D01*
X244221000Y-68834000D02*
X242951000Y-68834000D01*
X241681000Y-70864000D02*
X240411000Y-70864000D01*
X240411000Y-70864000D02*
X240411000Y-66804000D01*
X240411000Y-66804000D02*
X241681000Y-66804000D01*
X241681000Y-66804000D02*
X241681000Y-70864000D01*
X241681000Y-68834000D02*
X240411000Y-68834000D01*
X239141000Y-70864000D02*
X237871000Y-70864000D01*
X237871000Y-70864000D02*
X237871000Y-66804000D01*
X237871000Y-66804000D02*
X239141000Y-66804000D01*
X239141000Y-66804000D02*
X239141000Y-70864000D01*
X239141000Y-68834000D02*
X237871000Y-68834000D01*
X236601000Y-70864000D02*
X235331000Y-70864000D01*
X235331000Y-70864000D02*
X235331000Y-66804000D01*
X235331000Y-66804000D02*
X236601000Y-66804000D01*
X236601000Y-66804000D02*
X236601000Y-70864000D01*
X236601000Y-68834000D02*
X235331000Y-68834000D01*
X234061000Y-70864000D02*
X232791000Y-70864000D01*
X232791000Y-70864000D02*
X232791000Y-66804000D01*
X232791000Y-66804000D02*
X234061000Y-66804000D01*
X234061000Y-66804000D02*
X234061000Y-70864000D01*
X234061000Y-68834000D02*
X232791000Y-68834000D01*
X231521000Y-70864000D02*
X230251000Y-70864000D01*
X230251000Y-70864000D02*
X230251000Y-66804000D01*
X230251000Y-66804000D02*
X231521000Y-66804000D01*
X231521000Y-66804000D02*
X231521000Y-70864000D01*
X231521000Y-68834000D02*
X230251000Y-68834000D01*
X228981000Y-70864000D02*
X227711000Y-70864000D01*
X227711000Y-70864000D02*
X227711000Y-66804000D01*
X227711000Y-66804000D02*
X228981000Y-66804000D01*
X228981000Y-66804000D02*
X228981000Y-70864000D01*
X228981000Y-68834000D02*
X227711000Y-68834000D01*
D13*
X250010762Y-67500667D02*
X250058381Y-67643524D01*
X250058381Y-67881620D01*
X250010762Y-67976858D01*
X249963143Y-68024477D01*
X249867905Y-68072096D01*
X249772667Y-68072096D01*
X249677429Y-68024477D01*
X249629810Y-67976858D01*
X249582190Y-67881620D01*
X249534571Y-67691143D01*
X249486952Y-67595905D01*
X249439333Y-67548286D01*
X249344095Y-67500667D01*
X249248857Y-67500667D01*
X249153619Y-67548286D01*
X249106000Y-67595905D01*
X249058381Y-67691143D01*
X249058381Y-67929239D01*
X249106000Y-68072096D01*
X249058381Y-68405429D02*
X250058381Y-68643524D01*
X249344095Y-68834001D01*
X250058381Y-69024477D01*
X249058381Y-69262572D01*
X249153619Y-69595905D02*
X249106000Y-69643524D01*
X249058381Y-69738762D01*
X249058381Y-69976858D01*
X249106000Y-70072096D01*
X249153619Y-70119715D01*
X249248857Y-70167334D01*
X249344095Y-70167334D01*
X249486952Y-70119715D01*
X250058381Y-69548286D01*
X250058381Y-70167334D01*
M02*
