G04 #@! TF.FileFunction,Legend,Top*
%FSLAX46Y46*%
G04 Gerber Fmt 4.6, Leading zero omitted, Abs format (unit mm)*
G04 Created by KiCad (PCBNEW 4.0.7-e2-6376~58~ubuntu16.04.1) date Wed Jun 27 11:01:06 2018*
%MOMM*%
%LPD*%
G01*
G04 APERTURE LIST*
%ADD10C,0.100000*%
%ADD11C,0.120000*%
%ADD12C,0.150000*%
G04 APERTURE END LIST*
D10*
D11*
X211890000Y-101584000D02*
X211890000Y-103584000D01*
X209750000Y-103584000D02*
X209750000Y-101584000D01*
X255870000Y-128900000D02*
X255870000Y-113660000D01*
X237840000Y-113660000D02*
X246830000Y-113670000D01*
X237840000Y-113660000D02*
X237840000Y-128900000D01*
X237840000Y-128900000D02*
X246840000Y-128900000D01*
X249170000Y-113670000D02*
X255870000Y-113660000D01*
X249160000Y-128900000D02*
X255870000Y-128900000D01*
X176042000Y-113670000D02*
X176042000Y-128910000D01*
X194072000Y-128910000D02*
X185082000Y-128900000D01*
X194072000Y-128910000D02*
X194072000Y-113670000D01*
X194072000Y-113670000D02*
X185072000Y-113670000D01*
X182742000Y-128900000D02*
X176042000Y-128910000D01*
X182752000Y-113670000D02*
X176042000Y-113670000D01*
X216710000Y-110182000D02*
X218710000Y-110182000D01*
X218710000Y-112322000D02*
X216710000Y-112322000D01*
X217726000Y-105922000D02*
X219726000Y-105922000D01*
X219726000Y-103882000D02*
X217726000Y-103882000D01*
X213840000Y-107144000D02*
X213840000Y-109264000D01*
X213840000Y-109264000D02*
X217960000Y-109264000D01*
X217960000Y-109264000D02*
X217960000Y-107144000D01*
X217960000Y-107144000D02*
X213840000Y-107144000D01*
X213070000Y-108204000D02*
X213840000Y-108204000D01*
X218730000Y-108204000D02*
X217960000Y-108204000D01*
X214500000Y-107144000D02*
X214500000Y-109264000D01*
X214888000Y-103584000D02*
X214888000Y-101584000D01*
X212848000Y-101584000D02*
X212848000Y-103584000D01*
X231898000Y-105204000D02*
X231898000Y-107204000D01*
X233938000Y-107204000D02*
X233938000Y-105204000D01*
X226774000Y-103882000D02*
X224774000Y-103882000D01*
X224774000Y-105922000D02*
X226774000Y-105922000D01*
X228766000Y-107204000D02*
X224266000Y-107204000D01*
X230016000Y-111204000D02*
X230016000Y-109704000D01*
X224266000Y-113704000D02*
X228766000Y-113704000D01*
X223016000Y-109704000D02*
X223016000Y-111204000D01*
X219279000Y-98059000D02*
X225529000Y-98059000D01*
X219279000Y-103109000D02*
X225529000Y-103109000D01*
X219279000Y-103109000D02*
G75*
G02X219279000Y-98059000I0J2525000D01*
G01*
X225529000Y-103109000D02*
G75*
G03X225529000Y-98059000I0J2525000D01*
G01*
X182154000Y-75680000D02*
X181224000Y-75680000D01*
X178994000Y-75680000D02*
X179924000Y-75680000D01*
X178994000Y-75680000D02*
X178994000Y-77840000D01*
X182154000Y-75680000D02*
X182154000Y-77140000D01*
D12*
X233035000Y-94326000D02*
X233035000Y-94376000D01*
X237185000Y-94326000D02*
X237185000Y-94471000D01*
X237185000Y-99476000D02*
X237185000Y-99331000D01*
X233035000Y-99476000D02*
X233035000Y-99331000D01*
X233035000Y-94326000D02*
X237185000Y-94326000D01*
X233035000Y-99476000D02*
X237185000Y-99476000D01*
X233035000Y-94376000D02*
X231635000Y-94376000D01*
D11*
X198886000Y-79238000D02*
G75*
G03X198886000Y-79238000I-6100000J0D01*
G01*
X216404000Y-74724000D02*
X216404000Y-76724000D01*
X218444000Y-76724000D02*
X218444000Y-74724000D01*
X232235000Y-84705000D02*
X230235000Y-84705000D01*
X230235000Y-86745000D02*
X232235000Y-86745000D01*
X207058000Y-87888000D02*
X209058000Y-87888000D01*
X209058000Y-85848000D02*
X207058000Y-85848000D01*
X218944000Y-74724000D02*
X218944000Y-76724000D01*
X220984000Y-76724000D02*
X220984000Y-74724000D01*
X180642000Y-97286000D02*
X182642000Y-97286000D01*
X182642000Y-95246000D02*
X180642000Y-95246000D01*
X185182000Y-106676000D02*
X183182000Y-106676000D01*
X183182000Y-108716000D02*
X185182000Y-108716000D01*
X202440000Y-127920000D02*
X204620000Y-127920000D01*
X209040000Y-127920000D02*
X206860000Y-127920000D01*
X203200000Y-121320000D02*
X204620000Y-121320000D01*
X208280000Y-121320000D02*
X206860000Y-121320000D01*
X202440000Y-127920000D02*
X202440000Y-122080000D01*
X202440000Y-122080000D02*
X203200000Y-121320000D01*
X208280000Y-121320000D02*
X209040000Y-122080000D01*
X209040000Y-122080000D02*
X209040000Y-127920000D01*
X214380000Y-128984000D02*
X214380000Y-126984000D01*
X212340000Y-126984000D02*
X212340000Y-128984000D01*
X219460000Y-128984000D02*
X219460000Y-126984000D01*
X217420000Y-126984000D02*
X217420000Y-128984000D01*
X222760000Y-127920000D02*
X224940000Y-127920000D01*
X229360000Y-127920000D02*
X227180000Y-127920000D01*
X223520000Y-121320000D02*
X224940000Y-121320000D01*
X228600000Y-121320000D02*
X227180000Y-121320000D01*
X222760000Y-127920000D02*
X222760000Y-122080000D01*
X222760000Y-122080000D02*
X223520000Y-121320000D01*
X228600000Y-121320000D02*
X229360000Y-122080000D01*
X229360000Y-122080000D02*
X229360000Y-127920000D01*
X204530000Y-95698000D02*
X199330000Y-95698000D01*
X204530000Y-105918000D02*
X204530000Y-95698000D01*
X199330000Y-108518000D02*
X199330000Y-95698000D01*
X204530000Y-105918000D02*
X201930000Y-105918000D01*
X201930000Y-105918000D02*
X201930000Y-108518000D01*
X201930000Y-108518000D02*
X199330000Y-108518000D01*
X204530000Y-107188000D02*
X204530000Y-108518000D01*
X204530000Y-108518000D02*
X203200000Y-108518000D01*
X193482000Y-63416000D02*
X191582000Y-63416000D01*
X191582000Y-63416000D02*
X191582000Y-68116000D01*
X193482000Y-63416000D02*
X193482000Y-68116000D01*
X190434000Y-63416000D02*
X188534000Y-63416000D01*
X188534000Y-63416000D02*
X188534000Y-68116000D01*
X190434000Y-63416000D02*
X190434000Y-68116000D01*
X187386000Y-63416000D02*
X185486000Y-63416000D01*
X185486000Y-63416000D02*
X185486000Y-68116000D01*
X187386000Y-63416000D02*
X187386000Y-68116000D01*
X211610000Y-117646000D02*
X211610000Y-115526000D01*
X211610000Y-115526000D02*
X207490000Y-115526000D01*
X207490000Y-115526000D02*
X207490000Y-117646000D01*
X207490000Y-117646000D02*
X211610000Y-117646000D01*
X212380000Y-116586000D02*
X211610000Y-116586000D01*
X206720000Y-116586000D02*
X207490000Y-116586000D01*
X210950000Y-117646000D02*
X210950000Y-115526000D01*
X220190000Y-115526000D02*
X220190000Y-117646000D01*
X220190000Y-117646000D02*
X224310000Y-117646000D01*
X224310000Y-117646000D02*
X224310000Y-115526000D01*
X224310000Y-115526000D02*
X220190000Y-115526000D01*
X219420000Y-116586000D02*
X220190000Y-116586000D01*
X225080000Y-116586000D02*
X224310000Y-116586000D01*
X220850000Y-115526000D02*
X220850000Y-117646000D01*
X219008000Y-66354000D02*
X219008000Y-63694000D01*
X201168000Y-66354000D02*
X219008000Y-66354000D01*
X201168000Y-63694000D02*
X219008000Y-63694000D01*
X201168000Y-66354000D02*
X201168000Y-63694000D01*
X199898000Y-66354000D02*
X198568000Y-66354000D01*
X198568000Y-66354000D02*
X198568000Y-65024000D01*
X248472000Y-87570000D02*
X245812000Y-87570000D01*
X248472000Y-97790000D02*
X248472000Y-87570000D01*
X245812000Y-97790000D02*
X245812000Y-87570000D01*
X248472000Y-97790000D02*
X245812000Y-97790000D01*
X248472000Y-99060000D02*
X248472000Y-100390000D01*
X248472000Y-100390000D02*
X247142000Y-100390000D01*
X180908000Y-88840000D02*
X178248000Y-88840000D01*
X180908000Y-91440000D02*
X180908000Y-88840000D01*
X178248000Y-91440000D02*
X178248000Y-88840000D01*
X180908000Y-91440000D02*
X178248000Y-91440000D01*
X180908000Y-92710000D02*
X180908000Y-94040000D01*
X180908000Y-94040000D02*
X179578000Y-94040000D01*
X198314000Y-130870000D02*
X200974000Y-130870000D01*
X198314000Y-123190000D02*
X198314000Y-130870000D01*
X200974000Y-123190000D02*
X200974000Y-130870000D01*
X198314000Y-123190000D02*
X200974000Y-123190000D01*
X198314000Y-121920000D02*
X198314000Y-120590000D01*
X198314000Y-120590000D02*
X199644000Y-120590000D01*
X230826000Y-130870000D02*
X233486000Y-130870000D01*
X230826000Y-123190000D02*
X230826000Y-130870000D01*
X233486000Y-123190000D02*
X233486000Y-130870000D01*
X230826000Y-123190000D02*
X233486000Y-123190000D01*
X230826000Y-121920000D02*
X230826000Y-120590000D01*
X230826000Y-120590000D02*
X232156000Y-120590000D01*
X236160000Y-102810000D02*
X236160000Y-105470000D01*
X238760000Y-102810000D02*
X236160000Y-102810000D01*
X238760000Y-105470000D02*
X236160000Y-105470000D01*
X238760000Y-102810000D02*
X238760000Y-105470000D01*
X240030000Y-102810000D02*
X241360000Y-102810000D01*
X241360000Y-102810000D02*
X241360000Y-104140000D01*
X221434000Y-74692000D02*
X221434000Y-72692000D01*
X223574000Y-72692000D02*
X223574000Y-74692000D01*
X204924000Y-80280000D02*
X204924000Y-78280000D01*
X207064000Y-78280000D02*
X207064000Y-80280000D01*
X202384000Y-80280000D02*
X202384000Y-78280000D01*
X204524000Y-78280000D02*
X204524000Y-80280000D01*
X199844000Y-80280000D02*
X199844000Y-78280000D01*
X201984000Y-78280000D02*
X201984000Y-80280000D01*
X244650000Y-103070000D02*
X246650000Y-103070000D01*
X246650000Y-105210000D02*
X244650000Y-105210000D01*
X180578000Y-85544000D02*
X182578000Y-85544000D01*
X182578000Y-87684000D02*
X180578000Y-87684000D01*
X190046000Y-100314000D02*
X190046000Y-102314000D01*
X187906000Y-102314000D02*
X187906000Y-100314000D01*
X182624000Y-84860000D02*
X180624000Y-84860000D01*
X180624000Y-82720000D02*
X182624000Y-82720000D01*
X182624000Y-81304000D02*
X180624000Y-81304000D01*
X180624000Y-79164000D02*
X182624000Y-79164000D01*
X191186000Y-93004000D02*
G75*
G03X191186000Y-93004000I-900000J0D01*
G01*
X191913000Y-96214000D02*
X187076000Y-96214000D01*
X191913000Y-89794000D02*
X187076000Y-89794000D01*
X193496000Y-94746000D02*
X193496000Y-91261000D01*
X187076000Y-96214000D02*
X187076000Y-93761000D01*
X187076000Y-92246000D02*
X187076000Y-89794000D01*
D12*
X213989000Y-92409000D02*
X214564000Y-92409000D01*
X213989000Y-82059000D02*
X214664000Y-82059000D01*
X224339000Y-82059000D02*
X223664000Y-82059000D01*
X224339000Y-92409000D02*
X223664000Y-92409000D01*
X213989000Y-92409000D02*
X213989000Y-91734000D01*
X224339000Y-92409000D02*
X224339000Y-91734000D01*
X224339000Y-82059000D02*
X224339000Y-82734000D01*
X213989000Y-82059000D02*
X213989000Y-82734000D01*
X214564000Y-92409000D02*
X214564000Y-93684000D01*
X186852000Y-99939000D02*
X186802000Y-99939000D01*
X186852000Y-104089000D02*
X186707000Y-104089000D01*
X181702000Y-104089000D02*
X181847000Y-104089000D01*
X181702000Y-99939000D02*
X181847000Y-99939000D01*
X186852000Y-99939000D02*
X186852000Y-104089000D01*
X181702000Y-99939000D02*
X181702000Y-104089000D01*
X186802000Y-99939000D02*
X186802000Y-98539000D01*
D11*
X210780000Y-119300000D02*
X221020000Y-119300000D01*
X210780000Y-123941000D02*
X221020000Y-123941000D01*
X210780000Y-119300000D02*
X210780000Y-123941000D01*
X221020000Y-119300000D02*
X221020000Y-123941000D01*
X210780000Y-120810000D02*
X221020000Y-120810000D01*
X214050000Y-119300000D02*
X214050000Y-120810000D01*
X217751000Y-119300000D02*
X217751000Y-120810000D01*
X254286000Y-133000000D02*
G75*
G03X254286000Y-133000000I-2286000J0D01*
G01*
X182286000Y-133000000D02*
G75*
G03X182286000Y-133000000I-2286000J0D01*
G01*
X182286000Y-66000000D02*
G75*
G03X182286000Y-66000000I-2286000J0D01*
G01*
X254286000Y-66000000D02*
G75*
G03X254286000Y-66000000I-2286000J0D01*
G01*
D12*
X211272381Y-102782666D02*
X210796190Y-103116000D01*
X211272381Y-103354095D02*
X210272381Y-103354095D01*
X210272381Y-102973142D01*
X210320000Y-102877904D01*
X210367619Y-102830285D01*
X210462857Y-102782666D01*
X210605714Y-102782666D01*
X210700952Y-102830285D01*
X210748571Y-102877904D01*
X210796190Y-102973142D01*
X210796190Y-103354095D01*
X210367619Y-102401714D02*
X210320000Y-102354095D01*
X210272381Y-102258857D01*
X210272381Y-102020761D01*
X210320000Y-101925523D01*
X210367619Y-101877904D01*
X210462857Y-101830285D01*
X210558095Y-101830285D01*
X210700952Y-101877904D01*
X211272381Y-102449333D01*
X211272381Y-101830285D01*
X252282381Y-121363333D02*
X252996667Y-121363333D01*
X253139524Y-121410953D01*
X253234762Y-121506191D01*
X253282381Y-121649048D01*
X253282381Y-121744286D01*
X252615714Y-120458571D02*
X253282381Y-120458571D01*
X252234762Y-120696667D02*
X252949048Y-120934762D01*
X252949048Y-120315714D01*
X178534381Y-121873333D02*
X179248667Y-121873333D01*
X179391524Y-121920953D01*
X179486762Y-122016191D01*
X179534381Y-122159048D01*
X179534381Y-122254286D01*
X178534381Y-120920952D02*
X178534381Y-121397143D01*
X179010571Y-121444762D01*
X178962952Y-121397143D01*
X178915333Y-121301905D01*
X178915333Y-121063809D01*
X178962952Y-120968571D01*
X179010571Y-120920952D01*
X179105810Y-120873333D01*
X179343905Y-120873333D01*
X179439143Y-120920952D01*
X179486762Y-120968571D01*
X179534381Y-121063809D01*
X179534381Y-121301905D01*
X179486762Y-121397143D01*
X179439143Y-121444762D01*
X217543334Y-111704381D02*
X217210000Y-111228190D01*
X216971905Y-111704381D02*
X216971905Y-110704381D01*
X217352858Y-110704381D01*
X217448096Y-110752000D01*
X217495715Y-110799619D01*
X217543334Y-110894857D01*
X217543334Y-111037714D01*
X217495715Y-111132952D01*
X217448096Y-111180571D01*
X217352858Y-111228190D01*
X216971905Y-111228190D01*
X218495715Y-111704381D02*
X217924286Y-111704381D01*
X218210000Y-111704381D02*
X218210000Y-110704381D01*
X218114762Y-110847238D01*
X218019524Y-110942476D01*
X217924286Y-110990095D01*
X218559334Y-105259143D02*
X218511715Y-105306762D01*
X218368858Y-105354381D01*
X218273620Y-105354381D01*
X218130762Y-105306762D01*
X218035524Y-105211524D01*
X217987905Y-105116286D01*
X217940286Y-104925810D01*
X217940286Y-104782952D01*
X217987905Y-104592476D01*
X218035524Y-104497238D01*
X218130762Y-104402000D01*
X218273620Y-104354381D01*
X218368858Y-104354381D01*
X218511715Y-104402000D01*
X218559334Y-104449619D01*
X218940286Y-104449619D02*
X218987905Y-104402000D01*
X219083143Y-104354381D01*
X219321239Y-104354381D01*
X219416477Y-104402000D01*
X219464096Y-104449619D01*
X219511715Y-104544857D01*
X219511715Y-104640095D01*
X219464096Y-104782952D01*
X218892667Y-105354381D01*
X219511715Y-105354381D01*
X215415905Y-108656381D02*
X215415905Y-107656381D01*
X215654000Y-107656381D01*
X215796858Y-107704000D01*
X215892096Y-107799238D01*
X215939715Y-107894476D01*
X215987334Y-108084952D01*
X215987334Y-108227810D01*
X215939715Y-108418286D01*
X215892096Y-108513524D01*
X215796858Y-108608762D01*
X215654000Y-108656381D01*
X215415905Y-108656381D01*
X216939715Y-108656381D02*
X216368286Y-108656381D01*
X216654000Y-108656381D02*
X216654000Y-107656381D01*
X216558762Y-107799238D01*
X216463524Y-107894476D01*
X216368286Y-107942095D01*
X214225143Y-102750666D02*
X214272762Y-102798285D01*
X214320381Y-102941142D01*
X214320381Y-103036380D01*
X214272762Y-103179238D01*
X214177524Y-103274476D01*
X214082286Y-103322095D01*
X213891810Y-103369714D01*
X213748952Y-103369714D01*
X213558476Y-103322095D01*
X213463238Y-103274476D01*
X213368000Y-103179238D01*
X213320381Y-103036380D01*
X213320381Y-102941142D01*
X213368000Y-102798285D01*
X213415619Y-102750666D01*
X213320381Y-101845904D02*
X213320381Y-102322095D01*
X213796571Y-102369714D01*
X213748952Y-102322095D01*
X213701333Y-102226857D01*
X213701333Y-101988761D01*
X213748952Y-101893523D01*
X213796571Y-101845904D01*
X213891810Y-101798285D01*
X214129905Y-101798285D01*
X214225143Y-101845904D01*
X214272762Y-101893523D01*
X214320381Y-101988761D01*
X214320381Y-102226857D01*
X214272762Y-102322095D01*
X214225143Y-102369714D01*
X233275143Y-106338666D02*
X233322762Y-106386285D01*
X233370381Y-106529142D01*
X233370381Y-106624380D01*
X233322762Y-106767238D01*
X233227524Y-106862476D01*
X233132286Y-106910095D01*
X232941810Y-106957714D01*
X232798952Y-106957714D01*
X232608476Y-106910095D01*
X232513238Y-106862476D01*
X232418000Y-106767238D01*
X232370381Y-106624380D01*
X232370381Y-106529142D01*
X232418000Y-106386285D01*
X232465619Y-106338666D01*
X233370381Y-105386285D02*
X233370381Y-105957714D01*
X233370381Y-105672000D02*
X232370381Y-105672000D01*
X232513238Y-105767238D01*
X232608476Y-105862476D01*
X232656095Y-105957714D01*
X225639334Y-105259143D02*
X225591715Y-105306762D01*
X225448858Y-105354381D01*
X225353620Y-105354381D01*
X225210762Y-105306762D01*
X225115524Y-105211524D01*
X225067905Y-105116286D01*
X225020286Y-104925810D01*
X225020286Y-104782952D01*
X225067905Y-104592476D01*
X225115524Y-104497238D01*
X225210762Y-104402000D01*
X225353620Y-104354381D01*
X225448858Y-104354381D01*
X225591715Y-104402000D01*
X225639334Y-104449619D01*
X225972667Y-104354381D02*
X226591715Y-104354381D01*
X226258381Y-104735333D01*
X226401239Y-104735333D01*
X226496477Y-104782952D01*
X226544096Y-104830571D01*
X226591715Y-104925810D01*
X226591715Y-105163905D01*
X226544096Y-105259143D01*
X226496477Y-105306762D01*
X226401239Y-105354381D01*
X226115524Y-105354381D01*
X226020286Y-105306762D01*
X225972667Y-105259143D01*
X225182667Y-115108762D02*
X225325524Y-115156381D01*
X225563620Y-115156381D01*
X225658858Y-115108762D01*
X225706477Y-115061143D01*
X225754096Y-114965905D01*
X225754096Y-114870667D01*
X225706477Y-114775429D01*
X225658858Y-114727810D01*
X225563620Y-114680190D01*
X225373143Y-114632571D01*
X225277905Y-114584952D01*
X225230286Y-114537333D01*
X225182667Y-114442095D01*
X225182667Y-114346857D01*
X225230286Y-114251619D01*
X225277905Y-114204000D01*
X225373143Y-114156381D01*
X225611239Y-114156381D01*
X225754096Y-114204000D01*
X226087429Y-114156381D02*
X226325524Y-115156381D01*
X226516001Y-114442095D01*
X226706477Y-115156381D01*
X226944572Y-114156381D01*
X227849334Y-115156381D02*
X227277905Y-115156381D01*
X227563619Y-115156381D02*
X227563619Y-114156381D01*
X227468381Y-114299238D01*
X227373143Y-114394476D01*
X227277905Y-114442095D01*
X222027809Y-100560190D02*
X222027809Y-101036381D01*
X221694476Y-100036381D02*
X222027809Y-100560190D01*
X222361143Y-100036381D01*
X223218286Y-101036381D02*
X222646857Y-101036381D01*
X222932571Y-101036381D02*
X222932571Y-100036381D01*
X222837333Y-100179238D01*
X222742095Y-100274476D01*
X222646857Y-100322095D01*
X181141619Y-76535238D02*
X181094000Y-76630476D01*
X180998762Y-76725714D01*
X180855905Y-76868571D01*
X180808286Y-76963810D01*
X180808286Y-77059048D01*
X181046381Y-77011429D02*
X180998762Y-77106667D01*
X180903524Y-77201905D01*
X180713048Y-77249524D01*
X180379714Y-77249524D01*
X180189238Y-77201905D01*
X180094000Y-77106667D01*
X180046381Y-77011429D01*
X180046381Y-76820952D01*
X180094000Y-76725714D01*
X180189238Y-76630476D01*
X180379714Y-76582857D01*
X180713048Y-76582857D01*
X180903524Y-76630476D01*
X180998762Y-76725714D01*
X181046381Y-76820952D01*
X181046381Y-77011429D01*
X181046381Y-75630476D02*
X181046381Y-76201905D01*
X181046381Y-75916191D02*
X180046381Y-75916191D01*
X180189238Y-76011429D01*
X180284476Y-76106667D01*
X180332095Y-76201905D01*
X234348095Y-96480381D02*
X234348095Y-97289905D01*
X234395714Y-97385143D01*
X234443333Y-97432762D01*
X234538571Y-97480381D01*
X234729048Y-97480381D01*
X234824286Y-97432762D01*
X234871905Y-97385143D01*
X234919524Y-97289905D01*
X234919524Y-96480381D01*
X235348095Y-96575619D02*
X235395714Y-96528000D01*
X235490952Y-96480381D01*
X235729048Y-96480381D01*
X235824286Y-96528000D01*
X235871905Y-96575619D01*
X235919524Y-96670857D01*
X235919524Y-96766095D01*
X235871905Y-96908952D01*
X235300476Y-97480381D01*
X235919524Y-97480381D01*
X192714571Y-80118952D02*
X192762190Y-79976095D01*
X192809810Y-79928476D01*
X192905048Y-79880857D01*
X193047905Y-79880857D01*
X193143143Y-79928476D01*
X193190762Y-79976095D01*
X193238381Y-80071333D01*
X193238381Y-80452286D01*
X192238381Y-80452286D01*
X192238381Y-80118952D01*
X192286000Y-80023714D01*
X192333619Y-79976095D01*
X192428857Y-79928476D01*
X192524095Y-79928476D01*
X192619333Y-79976095D01*
X192666952Y-80023714D01*
X192714571Y-80118952D01*
X192714571Y-80452286D01*
X192238381Y-79547524D02*
X192238381Y-78880857D01*
X193238381Y-79547524D01*
X193238381Y-78880857D01*
X193238381Y-77976095D02*
X193238381Y-78547524D01*
X193238381Y-78261810D02*
X192238381Y-78261810D01*
X192381238Y-78357048D01*
X192476476Y-78452286D01*
X192524095Y-78547524D01*
X190317429Y-83428952D02*
X190317429Y-82667047D01*
X190698381Y-83047999D02*
X189936476Y-83047999D01*
X217781143Y-75890666D02*
X217828762Y-75938285D01*
X217876381Y-76081142D01*
X217876381Y-76176380D01*
X217828762Y-76319238D01*
X217733524Y-76414476D01*
X217638286Y-76462095D01*
X217447810Y-76509714D01*
X217304952Y-76509714D01*
X217114476Y-76462095D01*
X217019238Y-76414476D01*
X216924000Y-76319238D01*
X216876381Y-76176380D01*
X216876381Y-76081142D01*
X216924000Y-75938285D01*
X216971619Y-75890666D01*
X217209714Y-75033523D02*
X217876381Y-75033523D01*
X216828762Y-75271619D02*
X217543048Y-75509714D01*
X217543048Y-74890666D01*
X231068334Y-86209143D02*
X231020715Y-86256762D01*
X230877858Y-86304381D01*
X230782620Y-86304381D01*
X230639762Y-86256762D01*
X230544524Y-86161524D01*
X230496905Y-86066286D01*
X230449286Y-85875810D01*
X230449286Y-85732952D01*
X230496905Y-85542476D01*
X230544524Y-85447238D01*
X230639762Y-85352000D01*
X230782620Y-85304381D01*
X230877858Y-85304381D01*
X231020715Y-85352000D01*
X231068334Y-85399619D01*
X231925477Y-85304381D02*
X231735000Y-85304381D01*
X231639762Y-85352000D01*
X231592143Y-85399619D01*
X231496905Y-85542476D01*
X231449286Y-85732952D01*
X231449286Y-86113905D01*
X231496905Y-86209143D01*
X231544524Y-86256762D01*
X231639762Y-86304381D01*
X231830239Y-86304381D01*
X231925477Y-86256762D01*
X231973096Y-86209143D01*
X232020715Y-86113905D01*
X232020715Y-85875810D01*
X231973096Y-85780571D01*
X231925477Y-85732952D01*
X231830239Y-85685333D01*
X231639762Y-85685333D01*
X231544524Y-85732952D01*
X231496905Y-85780571D01*
X231449286Y-85875810D01*
X207891334Y-87225143D02*
X207843715Y-87272762D01*
X207700858Y-87320381D01*
X207605620Y-87320381D01*
X207462762Y-87272762D01*
X207367524Y-87177524D01*
X207319905Y-87082286D01*
X207272286Y-86891810D01*
X207272286Y-86748952D01*
X207319905Y-86558476D01*
X207367524Y-86463238D01*
X207462762Y-86368000D01*
X207605620Y-86320381D01*
X207700858Y-86320381D01*
X207843715Y-86368000D01*
X207891334Y-86415619D01*
X208224667Y-86320381D02*
X208891334Y-86320381D01*
X208462762Y-87320381D01*
X220321143Y-75858666D02*
X220368762Y-75906285D01*
X220416381Y-76049142D01*
X220416381Y-76144380D01*
X220368762Y-76287238D01*
X220273524Y-76382476D01*
X220178286Y-76430095D01*
X219987810Y-76477714D01*
X219844952Y-76477714D01*
X219654476Y-76430095D01*
X219559238Y-76382476D01*
X219464000Y-76287238D01*
X219416381Y-76144380D01*
X219416381Y-76049142D01*
X219464000Y-75906285D01*
X219511619Y-75858666D01*
X219844952Y-75287238D02*
X219797333Y-75382476D01*
X219749714Y-75430095D01*
X219654476Y-75477714D01*
X219606857Y-75477714D01*
X219511619Y-75430095D01*
X219464000Y-75382476D01*
X219416381Y-75287238D01*
X219416381Y-75096761D01*
X219464000Y-75001523D01*
X219511619Y-74953904D01*
X219606857Y-74906285D01*
X219654476Y-74906285D01*
X219749714Y-74953904D01*
X219797333Y-75001523D01*
X219844952Y-75096761D01*
X219844952Y-75287238D01*
X219892571Y-75382476D01*
X219940190Y-75430095D01*
X220035429Y-75477714D01*
X220225905Y-75477714D01*
X220321143Y-75430095D01*
X220368762Y-75382476D01*
X220416381Y-75287238D01*
X220416381Y-75096761D01*
X220368762Y-75001523D01*
X220321143Y-74953904D01*
X220225905Y-74906285D01*
X220035429Y-74906285D01*
X219940190Y-74953904D01*
X219892571Y-75001523D01*
X219844952Y-75096761D01*
X181443334Y-96623143D02*
X181395715Y-96670762D01*
X181252858Y-96718381D01*
X181157620Y-96718381D01*
X181014762Y-96670762D01*
X180919524Y-96575524D01*
X180871905Y-96480286D01*
X180824286Y-96289810D01*
X180824286Y-96146952D01*
X180871905Y-95956476D01*
X180919524Y-95861238D01*
X181014762Y-95766000D01*
X181157620Y-95718381D01*
X181252858Y-95718381D01*
X181395715Y-95766000D01*
X181443334Y-95813619D01*
X181919524Y-96718381D02*
X182110000Y-96718381D01*
X182205239Y-96670762D01*
X182252858Y-96623143D01*
X182348096Y-96480286D01*
X182395715Y-96289810D01*
X182395715Y-95908857D01*
X182348096Y-95813619D01*
X182300477Y-95766000D01*
X182205239Y-95718381D01*
X182014762Y-95718381D01*
X181919524Y-95766000D01*
X181871905Y-95813619D01*
X181824286Y-95908857D01*
X181824286Y-96146952D01*
X181871905Y-96242190D01*
X181919524Y-96289810D01*
X182014762Y-96337429D01*
X182205239Y-96337429D01*
X182300477Y-96289810D01*
X182348096Y-96242190D01*
X182395715Y-96146952D01*
X183507143Y-108053143D02*
X183459524Y-108100762D01*
X183316667Y-108148381D01*
X183221429Y-108148381D01*
X183078571Y-108100762D01*
X182983333Y-108005524D01*
X182935714Y-107910286D01*
X182888095Y-107719810D01*
X182888095Y-107576952D01*
X182935714Y-107386476D01*
X182983333Y-107291238D01*
X183078571Y-107196000D01*
X183221429Y-107148381D01*
X183316667Y-107148381D01*
X183459524Y-107196000D01*
X183507143Y-107243619D01*
X184459524Y-108148381D02*
X183888095Y-108148381D01*
X184173809Y-108148381D02*
X184173809Y-107148381D01*
X184078571Y-107291238D01*
X183983333Y-107386476D01*
X183888095Y-107434095D01*
X185078571Y-107148381D02*
X185173810Y-107148381D01*
X185269048Y-107196000D01*
X185316667Y-107243619D01*
X185364286Y-107338857D01*
X185411905Y-107529333D01*
X185411905Y-107767429D01*
X185364286Y-107957905D01*
X185316667Y-108053143D01*
X185269048Y-108100762D01*
X185173810Y-108148381D01*
X185078571Y-108148381D01*
X184983333Y-108100762D01*
X184935714Y-108053143D01*
X184888095Y-107957905D01*
X184840476Y-107767429D01*
X184840476Y-107529333D01*
X184888095Y-107338857D01*
X184935714Y-107243619D01*
X184983333Y-107196000D01*
X185078571Y-107148381D01*
X206097143Y-125262857D02*
X206144762Y-125310476D01*
X206192381Y-125453333D01*
X206192381Y-125548571D01*
X206144762Y-125691429D01*
X206049524Y-125786667D01*
X205954286Y-125834286D01*
X205763810Y-125881905D01*
X205620952Y-125881905D01*
X205430476Y-125834286D01*
X205335238Y-125786667D01*
X205240000Y-125691429D01*
X205192381Y-125548571D01*
X205192381Y-125453333D01*
X205240000Y-125310476D01*
X205287619Y-125262857D01*
X206192381Y-124310476D02*
X206192381Y-124881905D01*
X206192381Y-124596191D02*
X205192381Y-124596191D01*
X205335238Y-124691429D01*
X205430476Y-124786667D01*
X205478095Y-124881905D01*
X206192381Y-123358095D02*
X206192381Y-123929524D01*
X206192381Y-123643810D02*
X205192381Y-123643810D01*
X205335238Y-123739048D01*
X205430476Y-123834286D01*
X205478095Y-123929524D01*
X202801429Y-120720952D02*
X202801429Y-119959047D01*
X203182381Y-120339999D02*
X202420476Y-120339999D01*
X213717143Y-128626857D02*
X213764762Y-128674476D01*
X213812381Y-128817333D01*
X213812381Y-128912571D01*
X213764762Y-129055429D01*
X213669524Y-129150667D01*
X213574286Y-129198286D01*
X213383810Y-129245905D01*
X213240952Y-129245905D01*
X213050476Y-129198286D01*
X212955238Y-129150667D01*
X212860000Y-129055429D01*
X212812381Y-128912571D01*
X212812381Y-128817333D01*
X212860000Y-128674476D01*
X212907619Y-128626857D01*
X213812381Y-127674476D02*
X213812381Y-128245905D01*
X213812381Y-127960191D02*
X212812381Y-127960191D01*
X212955238Y-128055429D01*
X213050476Y-128150667D01*
X213098095Y-128245905D01*
X212907619Y-127293524D02*
X212860000Y-127245905D01*
X212812381Y-127150667D01*
X212812381Y-126912571D01*
X212860000Y-126817333D01*
X212907619Y-126769714D01*
X213002857Y-126722095D01*
X213098095Y-126722095D01*
X213240952Y-126769714D01*
X213812381Y-127341143D01*
X213812381Y-126722095D01*
X218797143Y-128658857D02*
X218844762Y-128706476D01*
X218892381Y-128849333D01*
X218892381Y-128944571D01*
X218844762Y-129087429D01*
X218749524Y-129182667D01*
X218654286Y-129230286D01*
X218463810Y-129277905D01*
X218320952Y-129277905D01*
X218130476Y-129230286D01*
X218035238Y-129182667D01*
X217940000Y-129087429D01*
X217892381Y-128944571D01*
X217892381Y-128849333D01*
X217940000Y-128706476D01*
X217987619Y-128658857D01*
X218892381Y-127706476D02*
X218892381Y-128277905D01*
X218892381Y-127992191D02*
X217892381Y-127992191D01*
X218035238Y-128087429D01*
X218130476Y-128182667D01*
X218178095Y-128277905D01*
X217892381Y-127373143D02*
X217892381Y-126754095D01*
X218273333Y-127087429D01*
X218273333Y-126944571D01*
X218320952Y-126849333D01*
X218368571Y-126801714D01*
X218463810Y-126754095D01*
X218701905Y-126754095D01*
X218797143Y-126801714D01*
X218844762Y-126849333D01*
X218892381Y-126944571D01*
X218892381Y-127230286D01*
X218844762Y-127325524D01*
X218797143Y-127373143D01*
X226417143Y-125262857D02*
X226464762Y-125310476D01*
X226512381Y-125453333D01*
X226512381Y-125548571D01*
X226464762Y-125691429D01*
X226369524Y-125786667D01*
X226274286Y-125834286D01*
X226083810Y-125881905D01*
X225940952Y-125881905D01*
X225750476Y-125834286D01*
X225655238Y-125786667D01*
X225560000Y-125691429D01*
X225512381Y-125548571D01*
X225512381Y-125453333D01*
X225560000Y-125310476D01*
X225607619Y-125262857D01*
X226512381Y-124310476D02*
X226512381Y-124881905D01*
X226512381Y-124596191D02*
X225512381Y-124596191D01*
X225655238Y-124691429D01*
X225750476Y-124786667D01*
X225798095Y-124881905D01*
X225845714Y-123453333D02*
X226512381Y-123453333D01*
X225464762Y-123691429D02*
X226179048Y-123929524D01*
X226179048Y-123310476D01*
X223121429Y-120720952D02*
X223121429Y-119959047D01*
X223502381Y-120339999D02*
X222740476Y-120339999D01*
X200715715Y-109875143D02*
X200668096Y-109922762D01*
X200525239Y-109970381D01*
X200430001Y-109970381D01*
X200287143Y-109922762D01*
X200191905Y-109827524D01*
X200144286Y-109732286D01*
X200096667Y-109541810D01*
X200096667Y-109398952D01*
X200144286Y-109208476D01*
X200191905Y-109113238D01*
X200287143Y-109018000D01*
X200430001Y-108970381D01*
X200525239Y-108970381D01*
X200668096Y-109018000D01*
X200715715Y-109065619D01*
X201334762Y-108970381D02*
X201525239Y-108970381D01*
X201620477Y-109018000D01*
X201715715Y-109113238D01*
X201763334Y-109303714D01*
X201763334Y-109637048D01*
X201715715Y-109827524D01*
X201620477Y-109922762D01*
X201525239Y-109970381D01*
X201334762Y-109970381D01*
X201239524Y-109922762D01*
X201144286Y-109827524D01*
X201096667Y-109637048D01*
X201096667Y-109303714D01*
X201144286Y-109113238D01*
X201239524Y-109018000D01*
X201334762Y-108970381D01*
X202191905Y-109970381D02*
X202191905Y-108970381D01*
X202763334Y-109970381D01*
X202763334Y-108970381D01*
X203763334Y-109970381D02*
X203191905Y-109970381D01*
X203477619Y-109970381D02*
X203477619Y-108970381D01*
X203382381Y-109113238D01*
X203287143Y-109208476D01*
X203191905Y-109256095D01*
X192984381Y-67254095D02*
X191984381Y-67254095D01*
X191984381Y-67016000D01*
X192032000Y-66873142D01*
X192127238Y-66777904D01*
X192222476Y-66730285D01*
X192412952Y-66682666D01*
X192555810Y-66682666D01*
X192746286Y-66730285D01*
X192841524Y-66777904D01*
X192936762Y-66873142D01*
X192984381Y-67016000D01*
X192984381Y-67254095D01*
X192079619Y-66301714D02*
X192032000Y-66254095D01*
X191984381Y-66158857D01*
X191984381Y-65920761D01*
X192032000Y-65825523D01*
X192079619Y-65777904D01*
X192174857Y-65730285D01*
X192270095Y-65730285D01*
X192412952Y-65777904D01*
X192984381Y-66349333D01*
X192984381Y-65730285D01*
X189936381Y-67286095D02*
X188936381Y-67286095D01*
X188936381Y-67048000D01*
X188984000Y-66905142D01*
X189079238Y-66809904D01*
X189174476Y-66762285D01*
X189364952Y-66714666D01*
X189507810Y-66714666D01*
X189698286Y-66762285D01*
X189793524Y-66809904D01*
X189888762Y-66905142D01*
X189936381Y-67048000D01*
X189936381Y-67286095D01*
X188936381Y-66381333D02*
X188936381Y-65762285D01*
X189317333Y-66095619D01*
X189317333Y-65952761D01*
X189364952Y-65857523D01*
X189412571Y-65809904D01*
X189507810Y-65762285D01*
X189745905Y-65762285D01*
X189841143Y-65809904D01*
X189888762Y-65857523D01*
X189936381Y-65952761D01*
X189936381Y-66238476D01*
X189888762Y-66333714D01*
X189841143Y-66381333D01*
X186888381Y-67286095D02*
X185888381Y-67286095D01*
X185888381Y-67048000D01*
X185936000Y-66905142D01*
X186031238Y-66809904D01*
X186126476Y-66762285D01*
X186316952Y-66714666D01*
X186459810Y-66714666D01*
X186650286Y-66762285D01*
X186745524Y-66809904D01*
X186840762Y-66905142D01*
X186888381Y-67048000D01*
X186888381Y-67286095D01*
X186221714Y-65857523D02*
X186888381Y-65857523D01*
X185840762Y-66095619D02*
X186555048Y-66333714D01*
X186555048Y-65714666D01*
X208811905Y-117038381D02*
X208811905Y-116038381D01*
X209050000Y-116038381D01*
X209192858Y-116086000D01*
X209288096Y-116181238D01*
X209335715Y-116276476D01*
X209383334Y-116466952D01*
X209383334Y-116609810D01*
X209335715Y-116800286D01*
X209288096Y-116895524D01*
X209192858Y-116990762D01*
X209050000Y-117038381D01*
X208811905Y-117038381D01*
X210288096Y-116038381D02*
X209811905Y-116038381D01*
X209764286Y-116514571D01*
X209811905Y-116466952D01*
X209907143Y-116419333D01*
X210145239Y-116419333D01*
X210240477Y-116466952D01*
X210288096Y-116514571D01*
X210335715Y-116609810D01*
X210335715Y-116847905D01*
X210288096Y-116943143D01*
X210240477Y-116990762D01*
X210145239Y-117038381D01*
X209907143Y-117038381D01*
X209811905Y-116990762D01*
X209764286Y-116943143D01*
X221765905Y-117038381D02*
X221765905Y-116038381D01*
X222004000Y-116038381D01*
X222146858Y-116086000D01*
X222242096Y-116181238D01*
X222289715Y-116276476D01*
X222337334Y-116466952D01*
X222337334Y-116609810D01*
X222289715Y-116800286D01*
X222242096Y-116895524D01*
X222146858Y-116990762D01*
X222004000Y-117038381D01*
X221765905Y-117038381D01*
X223194477Y-116038381D02*
X223004000Y-116038381D01*
X222908762Y-116086000D01*
X222861143Y-116133619D01*
X222765905Y-116276476D01*
X222718286Y-116466952D01*
X222718286Y-116847905D01*
X222765905Y-116943143D01*
X222813524Y-116990762D01*
X222908762Y-117038381D01*
X223099239Y-117038381D01*
X223194477Y-116990762D01*
X223242096Y-116943143D01*
X223289715Y-116847905D01*
X223289715Y-116609810D01*
X223242096Y-116514571D01*
X223194477Y-116466952D01*
X223099239Y-116419333D01*
X222908762Y-116419333D01*
X222813524Y-116466952D01*
X222765905Y-116514571D01*
X222718286Y-116609810D01*
X197020381Y-65357333D02*
X197734667Y-65357333D01*
X197877524Y-65404953D01*
X197972762Y-65500191D01*
X198020381Y-65643048D01*
X198020381Y-65738286D01*
X198020381Y-64357333D02*
X198020381Y-64928762D01*
X198020381Y-64643048D02*
X197020381Y-64643048D01*
X197163238Y-64738286D01*
X197258476Y-64833524D01*
X197306095Y-64928762D01*
X246808667Y-100842381D02*
X246808667Y-101556667D01*
X246761047Y-101699524D01*
X246665809Y-101794762D01*
X246522952Y-101842381D01*
X246427714Y-101842381D01*
X247237238Y-100937619D02*
X247284857Y-100890000D01*
X247380095Y-100842381D01*
X247618191Y-100842381D01*
X247713429Y-100890000D01*
X247761048Y-100937619D01*
X247808667Y-101032857D01*
X247808667Y-101128095D01*
X247761048Y-101270952D01*
X247189619Y-101842381D01*
X247808667Y-101842381D01*
X179244667Y-90892381D02*
X179244667Y-91606667D01*
X179197047Y-91749524D01*
X179101809Y-91844762D01*
X178958952Y-91892381D01*
X178863714Y-91892381D01*
X179625619Y-90892381D02*
X180244667Y-90892381D01*
X179911333Y-91273333D01*
X180054191Y-91273333D01*
X180149429Y-91320952D01*
X180197048Y-91368571D01*
X180244667Y-91463810D01*
X180244667Y-91701905D01*
X180197048Y-91797143D01*
X180149429Y-91844762D01*
X180054191Y-91892381D01*
X179768476Y-91892381D01*
X179673238Y-91844762D01*
X179625619Y-91797143D01*
X199310667Y-119042381D02*
X199310667Y-119756667D01*
X199263047Y-119899524D01*
X199167809Y-119994762D01*
X199024952Y-120042381D01*
X198929714Y-120042381D01*
X200215429Y-119042381D02*
X200024952Y-119042381D01*
X199929714Y-119090000D01*
X199882095Y-119137619D01*
X199786857Y-119280476D01*
X199739238Y-119470952D01*
X199739238Y-119851905D01*
X199786857Y-119947143D01*
X199834476Y-119994762D01*
X199929714Y-120042381D01*
X200120191Y-120042381D01*
X200215429Y-119994762D01*
X200263048Y-119947143D01*
X200310667Y-119851905D01*
X200310667Y-119613810D01*
X200263048Y-119518571D01*
X200215429Y-119470952D01*
X200120191Y-119423333D01*
X199929714Y-119423333D01*
X199834476Y-119470952D01*
X199786857Y-119518571D01*
X199739238Y-119613810D01*
X231822667Y-119042381D02*
X231822667Y-119756667D01*
X231775047Y-119899524D01*
X231679809Y-119994762D01*
X231536952Y-120042381D01*
X231441714Y-120042381D01*
X232203619Y-119042381D02*
X232870286Y-119042381D01*
X232441714Y-120042381D01*
X241812381Y-104973333D02*
X242526667Y-104973333D01*
X242669524Y-105020953D01*
X242764762Y-105116191D01*
X242812381Y-105259048D01*
X242812381Y-105354286D01*
X242812381Y-104497143D02*
X241812381Y-104497143D01*
X241812381Y-104116190D01*
X241860000Y-104020952D01*
X241907619Y-103973333D01*
X242002857Y-103925714D01*
X242145714Y-103925714D01*
X242240952Y-103973333D01*
X242288571Y-104020952D01*
X242336190Y-104116190D01*
X242336190Y-104497143D01*
X242812381Y-102973333D02*
X242812381Y-103544762D01*
X242812381Y-103259048D02*
X241812381Y-103259048D01*
X241955238Y-103354286D01*
X242050476Y-103449524D01*
X242098095Y-103544762D01*
X222956381Y-73858666D02*
X222956381Y-74334857D01*
X221956381Y-74334857D01*
X222956381Y-73001523D02*
X222956381Y-73572952D01*
X222956381Y-73287238D02*
X221956381Y-73287238D01*
X222099238Y-73382476D01*
X222194476Y-73477714D01*
X222242095Y-73572952D01*
X206446381Y-79446666D02*
X205970190Y-79780000D01*
X206446381Y-80018095D02*
X205446381Y-80018095D01*
X205446381Y-79637142D01*
X205494000Y-79541904D01*
X205541619Y-79494285D01*
X205636857Y-79446666D01*
X205779714Y-79446666D01*
X205874952Y-79494285D01*
X205922571Y-79541904D01*
X205970190Y-79637142D01*
X205970190Y-80018095D01*
X205446381Y-79113333D02*
X205446381Y-78494285D01*
X205827333Y-78827619D01*
X205827333Y-78684761D01*
X205874952Y-78589523D01*
X205922571Y-78541904D01*
X206017810Y-78494285D01*
X206255905Y-78494285D01*
X206351143Y-78541904D01*
X206398762Y-78589523D01*
X206446381Y-78684761D01*
X206446381Y-78970476D01*
X206398762Y-79065714D01*
X206351143Y-79113333D01*
X203906381Y-79446666D02*
X203430190Y-79780000D01*
X203906381Y-80018095D02*
X202906381Y-80018095D01*
X202906381Y-79637142D01*
X202954000Y-79541904D01*
X203001619Y-79494285D01*
X203096857Y-79446666D01*
X203239714Y-79446666D01*
X203334952Y-79494285D01*
X203382571Y-79541904D01*
X203430190Y-79637142D01*
X203430190Y-80018095D01*
X203239714Y-78589523D02*
X203906381Y-78589523D01*
X202858762Y-78827619D02*
X203573048Y-79065714D01*
X203573048Y-78446666D01*
X201366381Y-79446666D02*
X200890190Y-79780000D01*
X201366381Y-80018095D02*
X200366381Y-80018095D01*
X200366381Y-79637142D01*
X200414000Y-79541904D01*
X200461619Y-79494285D01*
X200556857Y-79446666D01*
X200699714Y-79446666D01*
X200794952Y-79494285D01*
X200842571Y-79541904D01*
X200890190Y-79637142D01*
X200890190Y-80018095D01*
X200366381Y-78541904D02*
X200366381Y-79018095D01*
X200842571Y-79065714D01*
X200794952Y-79018095D01*
X200747333Y-78922857D01*
X200747333Y-78684761D01*
X200794952Y-78589523D01*
X200842571Y-78541904D01*
X200937810Y-78494285D01*
X201175905Y-78494285D01*
X201271143Y-78541904D01*
X201318762Y-78589523D01*
X201366381Y-78684761D01*
X201366381Y-78922857D01*
X201318762Y-79018095D01*
X201271143Y-79065714D01*
X245483334Y-104592381D02*
X245150000Y-104116190D01*
X244911905Y-104592381D02*
X244911905Y-103592381D01*
X245292858Y-103592381D01*
X245388096Y-103640000D01*
X245435715Y-103687619D01*
X245483334Y-103782857D01*
X245483334Y-103925714D01*
X245435715Y-104020952D01*
X245388096Y-104068571D01*
X245292858Y-104116190D01*
X244911905Y-104116190D01*
X246340477Y-103592381D02*
X246150000Y-103592381D01*
X246054762Y-103640000D01*
X246007143Y-103687619D01*
X245911905Y-103830476D01*
X245864286Y-104020952D01*
X245864286Y-104401905D01*
X245911905Y-104497143D01*
X245959524Y-104544762D01*
X246054762Y-104592381D01*
X246245239Y-104592381D01*
X246340477Y-104544762D01*
X246388096Y-104497143D01*
X246435715Y-104401905D01*
X246435715Y-104163810D01*
X246388096Y-104068571D01*
X246340477Y-104020952D01*
X246245239Y-103973333D01*
X246054762Y-103973333D01*
X245959524Y-104020952D01*
X245911905Y-104068571D01*
X245864286Y-104163810D01*
X181443334Y-87066381D02*
X181110000Y-86590190D01*
X180871905Y-87066381D02*
X180871905Y-86066381D01*
X181252858Y-86066381D01*
X181348096Y-86114000D01*
X181395715Y-86161619D01*
X181443334Y-86256857D01*
X181443334Y-86399714D01*
X181395715Y-86494952D01*
X181348096Y-86542571D01*
X181252858Y-86590190D01*
X180871905Y-86590190D01*
X181776667Y-86066381D02*
X182443334Y-86066381D01*
X182014762Y-87066381D01*
X189428381Y-101512666D02*
X188952190Y-101846000D01*
X189428381Y-102084095D02*
X188428381Y-102084095D01*
X188428381Y-101703142D01*
X188476000Y-101607904D01*
X188523619Y-101560285D01*
X188618857Y-101512666D01*
X188761714Y-101512666D01*
X188856952Y-101560285D01*
X188904571Y-101607904D01*
X188952190Y-101703142D01*
X188952190Y-102084095D01*
X188856952Y-100941238D02*
X188809333Y-101036476D01*
X188761714Y-101084095D01*
X188666476Y-101131714D01*
X188618857Y-101131714D01*
X188523619Y-101084095D01*
X188476000Y-101036476D01*
X188428381Y-100941238D01*
X188428381Y-100750761D01*
X188476000Y-100655523D01*
X188523619Y-100607904D01*
X188618857Y-100560285D01*
X188666476Y-100560285D01*
X188761714Y-100607904D01*
X188809333Y-100655523D01*
X188856952Y-100750761D01*
X188856952Y-100941238D01*
X188904571Y-101036476D01*
X188952190Y-101084095D01*
X189047429Y-101131714D01*
X189237905Y-101131714D01*
X189333143Y-101084095D01*
X189380762Y-101036476D01*
X189428381Y-100941238D01*
X189428381Y-100750761D01*
X189380762Y-100655523D01*
X189333143Y-100607904D01*
X189237905Y-100560285D01*
X189047429Y-100560285D01*
X188952190Y-100607904D01*
X188904571Y-100655523D01*
X188856952Y-100750761D01*
X181443334Y-84272381D02*
X181110000Y-83796190D01*
X180871905Y-84272381D02*
X180871905Y-83272381D01*
X181252858Y-83272381D01*
X181348096Y-83320000D01*
X181395715Y-83367619D01*
X181443334Y-83462857D01*
X181443334Y-83605714D01*
X181395715Y-83700952D01*
X181348096Y-83748571D01*
X181252858Y-83796190D01*
X180871905Y-83796190D01*
X181919524Y-84272381D02*
X182110000Y-84272381D01*
X182205239Y-84224762D01*
X182252858Y-84177143D01*
X182348096Y-84034286D01*
X182395715Y-83843810D01*
X182395715Y-83462857D01*
X182348096Y-83367619D01*
X182300477Y-83320000D01*
X182205239Y-83272381D01*
X182014762Y-83272381D01*
X181919524Y-83320000D01*
X181871905Y-83367619D01*
X181824286Y-83462857D01*
X181824286Y-83700952D01*
X181871905Y-83796190D01*
X181919524Y-83843810D01*
X182014762Y-83891429D01*
X182205239Y-83891429D01*
X182300477Y-83843810D01*
X182348096Y-83796190D01*
X182395715Y-83700952D01*
X180981143Y-80716381D02*
X180647809Y-80240190D01*
X180409714Y-80716381D02*
X180409714Y-79716381D01*
X180790667Y-79716381D01*
X180885905Y-79764000D01*
X180933524Y-79811619D01*
X180981143Y-79906857D01*
X180981143Y-80049714D01*
X180933524Y-80144952D01*
X180885905Y-80192571D01*
X180790667Y-80240190D01*
X180409714Y-80240190D01*
X181933524Y-80716381D02*
X181362095Y-80716381D01*
X181647809Y-80716381D02*
X181647809Y-79716381D01*
X181552571Y-79859238D01*
X181457333Y-79954476D01*
X181362095Y-80002095D01*
X182552571Y-79716381D02*
X182647810Y-79716381D01*
X182743048Y-79764000D01*
X182790667Y-79811619D01*
X182838286Y-79906857D01*
X182885905Y-80097333D01*
X182885905Y-80335429D01*
X182838286Y-80525905D01*
X182790667Y-80621143D01*
X182743048Y-80668762D01*
X182647810Y-80716381D01*
X182552571Y-80716381D01*
X182457333Y-80668762D01*
X182409714Y-80621143D01*
X182362095Y-80525905D01*
X182314476Y-80335429D01*
X182314476Y-80097333D01*
X182362095Y-79906857D01*
X182409714Y-79811619D01*
X182457333Y-79764000D01*
X182552571Y-79716381D01*
X189690762Y-98016381D02*
X189357428Y-97540190D01*
X189119333Y-98016381D02*
X189119333Y-97016381D01*
X189500286Y-97016381D01*
X189595524Y-97064000D01*
X189643143Y-97111619D01*
X189690762Y-97206857D01*
X189690762Y-97349714D01*
X189643143Y-97444952D01*
X189595524Y-97492571D01*
X189500286Y-97540190D01*
X189119333Y-97540190D01*
X189976476Y-97016381D02*
X190309809Y-98016381D01*
X190643143Y-97016381D01*
X191500286Y-98016381D02*
X190928857Y-98016381D01*
X191214571Y-98016381D02*
X191214571Y-97016381D01*
X191119333Y-97159238D01*
X191024095Y-97254476D01*
X190928857Y-97302095D01*
X218654381Y-87995905D02*
X219463905Y-87995905D01*
X219559143Y-87948286D01*
X219606762Y-87900667D01*
X219654381Y-87805429D01*
X219654381Y-87614952D01*
X219606762Y-87519714D01*
X219559143Y-87472095D01*
X219463905Y-87424476D01*
X218654381Y-87424476D01*
X219654381Y-86424476D02*
X219654381Y-86995905D01*
X219654381Y-86710191D02*
X218654381Y-86710191D01*
X218797238Y-86805429D01*
X218892476Y-86900667D01*
X218940095Y-86995905D01*
X183856381Y-102775905D02*
X184665905Y-102775905D01*
X184761143Y-102728286D01*
X184808762Y-102680667D01*
X184856381Y-102585429D01*
X184856381Y-102394952D01*
X184808762Y-102299714D01*
X184761143Y-102252095D01*
X184665905Y-102204476D01*
X183856381Y-102204476D01*
X183856381Y-101823524D02*
X183856381Y-101204476D01*
X184237333Y-101537810D01*
X184237333Y-101394952D01*
X184284952Y-101299714D01*
X184332571Y-101252095D01*
X184427810Y-101204476D01*
X184665905Y-101204476D01*
X184761143Y-101252095D01*
X184808762Y-101299714D01*
X184856381Y-101394952D01*
X184856381Y-101680667D01*
X184808762Y-101775905D01*
X184761143Y-101823524D01*
X215138095Y-117752381D02*
X215138095Y-118561905D01*
X215185714Y-118657143D01*
X215233333Y-118704762D01*
X215328571Y-118752381D01*
X215519048Y-118752381D01*
X215614286Y-118704762D01*
X215661905Y-118657143D01*
X215709524Y-118561905D01*
X215709524Y-117752381D01*
X216614286Y-118085714D02*
X216614286Y-118752381D01*
X216376190Y-117704762D02*
X216138095Y-118419048D01*
X216757143Y-118419048D01*
X250666667Y-130404381D02*
X250333333Y-129928190D01*
X250095238Y-130404381D02*
X250095238Y-129404381D01*
X250476191Y-129404381D01*
X250571429Y-129452000D01*
X250619048Y-129499619D01*
X250666667Y-129594857D01*
X250666667Y-129737714D01*
X250619048Y-129832952D01*
X250571429Y-129880571D01*
X250476191Y-129928190D01*
X250095238Y-129928190D01*
X251095238Y-129880571D02*
X251428572Y-129880571D01*
X251571429Y-130404381D02*
X251095238Y-130404381D01*
X251095238Y-129404381D01*
X251571429Y-129404381D01*
X252333334Y-129880571D02*
X252000000Y-129880571D01*
X252000000Y-130404381D02*
X252000000Y-129404381D01*
X252476191Y-129404381D01*
X253000000Y-129404381D02*
X253000000Y-129642476D01*
X252761905Y-129547238D02*
X253000000Y-129642476D01*
X253238096Y-129547238D01*
X252857143Y-129832952D02*
X253000000Y-129642476D01*
X253142858Y-129832952D01*
X253761905Y-129404381D02*
X253761905Y-129642476D01*
X253523810Y-129547238D02*
X253761905Y-129642476D01*
X254000001Y-129547238D01*
X253619048Y-129832952D02*
X253761905Y-129642476D01*
X253904763Y-129832952D01*
X178666667Y-130404381D02*
X178333333Y-129928190D01*
X178095238Y-130404381D02*
X178095238Y-129404381D01*
X178476191Y-129404381D01*
X178571429Y-129452000D01*
X178619048Y-129499619D01*
X178666667Y-129594857D01*
X178666667Y-129737714D01*
X178619048Y-129832952D01*
X178571429Y-129880571D01*
X178476191Y-129928190D01*
X178095238Y-129928190D01*
X179095238Y-129880571D02*
X179428572Y-129880571D01*
X179571429Y-130404381D02*
X179095238Y-130404381D01*
X179095238Y-129404381D01*
X179571429Y-129404381D01*
X180333334Y-129880571D02*
X180000000Y-129880571D01*
X180000000Y-130404381D02*
X180000000Y-129404381D01*
X180476191Y-129404381D01*
X181000000Y-129404381D02*
X181000000Y-129642476D01*
X180761905Y-129547238D02*
X181000000Y-129642476D01*
X181238096Y-129547238D01*
X180857143Y-129832952D02*
X181000000Y-129642476D01*
X181142858Y-129832952D01*
X181761905Y-129404381D02*
X181761905Y-129642476D01*
X181523810Y-129547238D02*
X181761905Y-129642476D01*
X182000001Y-129547238D01*
X181619048Y-129832952D02*
X181761905Y-129642476D01*
X181904763Y-129832952D01*
X178666667Y-63404381D02*
X178333333Y-62928190D01*
X178095238Y-63404381D02*
X178095238Y-62404381D01*
X178476191Y-62404381D01*
X178571429Y-62452000D01*
X178619048Y-62499619D01*
X178666667Y-62594857D01*
X178666667Y-62737714D01*
X178619048Y-62832952D01*
X178571429Y-62880571D01*
X178476191Y-62928190D01*
X178095238Y-62928190D01*
X179095238Y-62880571D02*
X179428572Y-62880571D01*
X179571429Y-63404381D02*
X179095238Y-63404381D01*
X179095238Y-62404381D01*
X179571429Y-62404381D01*
X180333334Y-62880571D02*
X180000000Y-62880571D01*
X180000000Y-63404381D02*
X180000000Y-62404381D01*
X180476191Y-62404381D01*
X181000000Y-62404381D02*
X181000000Y-62642476D01*
X180761905Y-62547238D02*
X181000000Y-62642476D01*
X181238096Y-62547238D01*
X180857143Y-62832952D02*
X181000000Y-62642476D01*
X181142858Y-62832952D01*
X181761905Y-62404381D02*
X181761905Y-62642476D01*
X181523810Y-62547238D02*
X181761905Y-62642476D01*
X182000001Y-62547238D01*
X181619048Y-62832952D02*
X181761905Y-62642476D01*
X181904763Y-62832952D01*
X250666667Y-63404381D02*
X250333333Y-62928190D01*
X250095238Y-63404381D02*
X250095238Y-62404381D01*
X250476191Y-62404381D01*
X250571429Y-62452000D01*
X250619048Y-62499619D01*
X250666667Y-62594857D01*
X250666667Y-62737714D01*
X250619048Y-62832952D01*
X250571429Y-62880571D01*
X250476191Y-62928190D01*
X250095238Y-62928190D01*
X251095238Y-62880571D02*
X251428572Y-62880571D01*
X251571429Y-63404381D02*
X251095238Y-63404381D01*
X251095238Y-62404381D01*
X251571429Y-62404381D01*
X252333334Y-62880571D02*
X252000000Y-62880571D01*
X252000000Y-63404381D02*
X252000000Y-62404381D01*
X252476191Y-62404381D01*
X253000000Y-62404381D02*
X253000000Y-62642476D01*
X252761905Y-62547238D02*
X253000000Y-62642476D01*
X253238096Y-62547238D01*
X252857143Y-62832952D02*
X253000000Y-62642476D01*
X253142858Y-62832952D01*
X253761905Y-62404381D02*
X253761905Y-62642476D01*
X253523810Y-62547238D02*
X253761905Y-62642476D01*
X254000001Y-62547238D01*
X253619048Y-62832952D02*
X253761905Y-62642476D01*
X253904763Y-62832952D01*
M02*
