G04 #@! TF.FileFunction,Copper,L2,Bot,Signal*
%FSLAX46Y46*%
G04 Gerber Fmt 4.6, Leading zero omitted, Abs format (unit mm)*
G04 Created by KiCad (PCBNEW 4.0.7-e2-6376~58~ubuntu16.04.1) date Wed Jun 27 11:01:06 2018*
%MOMM*%
%LPD*%
G01*
G04 APERTURE LIST*
%ADD10C,0.100000*%
%ADD11C,3.650000*%
%ADD12R,1.500000X1.500000*%
%ADD13C,1.500000*%
%ADD14R,1.600000X1.600000*%
%ADD15O,1.600000X1.600000*%
%ADD16C,2.000000*%
%ADD17R,2.000000X2.000000*%
%ADD18R,1.700000X1.700000*%
%ADD19O,1.700000X1.700000*%
%ADD20C,1.620000*%
%ADD21R,1.800000X1.800000*%
%ADD22O,1.800000X1.800000*%
%ADD23C,4.064000*%
%ADD24C,1.000000*%
%ADD25C,0.500000*%
%ADD26C,0.400000*%
%ADD27C,0.254000*%
G04 APERTURE END LIST*
D10*
D11*
X248000000Y-115350000D03*
X248000000Y-127220000D03*
D12*
X241650000Y-125730000D03*
D13*
X239110000Y-124460000D03*
X241650000Y-123190000D03*
X239110000Y-121920000D03*
X241650000Y-120650000D03*
X239110000Y-119380000D03*
X241650000Y-118110000D03*
X239110000Y-116840000D03*
D11*
X183912000Y-127220000D03*
X183912000Y-115350000D03*
D12*
X190262000Y-116840000D03*
D13*
X192802000Y-118110000D03*
X190262000Y-119380000D03*
X192802000Y-120650000D03*
X190262000Y-121920000D03*
X192802000Y-123190000D03*
X190262000Y-124460000D03*
X192802000Y-125730000D03*
D14*
X212090000Y-108204000D03*
D15*
X219710000Y-108204000D03*
D16*
X229766000Y-108204000D03*
X229766000Y-112704000D03*
X223266000Y-108204000D03*
X223266000Y-112704000D03*
D13*
X219964000Y-100584000D03*
X224844000Y-100584000D03*
D17*
X192786000Y-83038000D03*
D16*
X192786000Y-75438000D03*
D18*
X203200000Y-107188000D03*
D19*
X200660000Y-107188000D03*
X203200000Y-104648000D03*
X200660000Y-104648000D03*
X203200000Y-102108000D03*
X200660000Y-102108000D03*
X203200000Y-99568000D03*
X200660000Y-99568000D03*
X203200000Y-97028000D03*
X200660000Y-97028000D03*
D14*
X213360000Y-116586000D03*
D15*
X205740000Y-116586000D03*
D14*
X218440000Y-116586000D03*
D15*
X226060000Y-116586000D03*
D18*
X199898000Y-65024000D03*
D19*
X202438000Y-65024000D03*
X204978000Y-65024000D03*
X207518000Y-65024000D03*
X210058000Y-65024000D03*
X212598000Y-65024000D03*
X215138000Y-65024000D03*
X217678000Y-65024000D03*
D18*
X247142000Y-99060000D03*
D19*
X247142000Y-96520000D03*
X247142000Y-93980000D03*
X247142000Y-91440000D03*
X247142000Y-88900000D03*
D18*
X179578000Y-92710000D03*
D19*
X179578000Y-90170000D03*
D18*
X199644000Y-121920000D03*
D19*
X199644000Y-124460000D03*
X199644000Y-127000000D03*
X199644000Y-129540000D03*
D18*
X232156000Y-121920000D03*
D19*
X232156000Y-124460000D03*
X232156000Y-127000000D03*
X232156000Y-129540000D03*
D18*
X240030000Y-104140000D03*
D19*
X237490000Y-104140000D03*
D20*
X192786000Y-95504000D03*
X187786000Y-93004000D03*
X192786000Y-90504000D03*
D14*
X246126000Y-72644000D03*
D15*
X228346000Y-65024000D03*
X243586000Y-72644000D03*
X230886000Y-65024000D03*
X241046000Y-72644000D03*
X233426000Y-65024000D03*
X238506000Y-72644000D03*
X235966000Y-65024000D03*
X235966000Y-72644000D03*
X238506000Y-65024000D03*
X233426000Y-72644000D03*
X241046000Y-65024000D03*
X230886000Y-72644000D03*
X243586000Y-65024000D03*
X228346000Y-72644000D03*
X246126000Y-65024000D03*
D21*
X213360000Y-121920000D03*
D22*
X215900000Y-121920000D03*
X218440000Y-121920000D03*
D23*
X252000000Y-133000000D03*
X180000000Y-133000000D03*
X180000000Y-66000000D03*
X252000000Y-66000000D03*
D24*
X210820000Y-100584000D03*
X186182000Y-107696000D03*
X183578000Y-86614000D03*
X210058000Y-86868000D03*
X222504000Y-71692000D03*
X229235000Y-85725000D03*
X237810000Y-94996000D03*
X210820000Y-104584000D03*
X213868000Y-104584000D03*
X216726000Y-104902000D03*
X215710000Y-111252000D03*
X206058000Y-86868000D03*
X219022000Y-87234000D03*
X233235000Y-85725000D03*
X237810000Y-98806000D03*
X227774000Y-104902000D03*
X232918000Y-104204000D03*
X226060000Y-127320000D03*
X218440000Y-129984000D03*
X213360000Y-129984000D03*
X205740000Y-127320000D03*
X182182000Y-107696000D03*
X182372000Y-99314000D03*
X182372000Y-104714000D03*
X179642000Y-96266000D03*
X181524000Y-77440000D03*
X183624000Y-80234000D03*
X217424000Y-73724000D03*
X219964000Y-73724000D03*
X192532000Y-64516000D03*
X189484000Y-64516000D03*
X186436000Y-64516000D03*
X208026000Y-95885000D03*
X241681000Y-133168106D03*
X226060000Y-94996000D03*
X232410000Y-98806000D03*
X232410000Y-96266000D03*
X230378000Y-87630000D03*
D25*
X229235000Y-85725000D02*
X229235000Y-84425000D01*
X229235000Y-84425000D02*
X229840000Y-83820000D01*
X229840000Y-83820000D02*
X231140000Y-83820000D01*
X200152000Y-113792000D02*
X212090000Y-113792000D01*
X212090000Y-113792000D02*
X213614000Y-113792000D01*
X212090000Y-112268000D02*
X212090000Y-113792000D01*
X194056000Y-107696000D02*
X200152000Y-113792000D01*
X186182000Y-107696000D02*
X194056000Y-107696000D01*
X226060000Y-116586000D02*
X222504000Y-116586000D01*
X222504000Y-116586000D02*
X219710000Y-113792000D01*
X219710000Y-113792000D02*
X213614000Y-113792000D01*
X212090000Y-112268000D02*
X212090000Y-108204000D01*
X209296000Y-106710000D02*
X210790000Y-108204000D01*
X210790000Y-108204000D02*
X212090000Y-108204000D01*
X209296000Y-93472000D02*
X210058000Y-92710000D01*
X210058000Y-92710000D02*
X210058000Y-86868000D01*
X209296000Y-106710000D02*
X209296000Y-100076000D01*
X209296000Y-100076000D02*
X209296000Y-93472000D01*
X210820000Y-100584000D02*
X209470000Y-100584000D01*
X209470000Y-100584000D02*
X209296000Y-100410000D01*
X209296000Y-100410000D02*
X209296000Y-100076000D01*
X209296000Y-93472000D02*
X195754000Y-93472000D01*
X195754000Y-93472000D02*
X192786000Y-90504000D01*
X192786000Y-83038000D02*
X192786000Y-86614000D01*
X192786000Y-86614000D02*
X192786000Y-90504000D01*
X183578000Y-86614000D02*
X192786000Y-86614000D01*
X248920000Y-83820000D02*
X237744000Y-83820000D01*
X237744000Y-83820000D02*
X231140000Y-83820000D01*
X237810000Y-94996000D02*
X237810000Y-83886000D01*
X237810000Y-83886000D02*
X237744000Y-83820000D01*
X222504000Y-71692000D02*
X223854000Y-71692000D01*
X223854000Y-71692000D02*
X231140000Y-78978000D01*
X231140000Y-78978000D02*
X231140000Y-83820000D01*
X226060000Y-116586000D02*
X231394000Y-116586000D01*
X231394000Y-116586000D02*
X237490000Y-110490000D01*
X237490000Y-110490000D02*
X247650000Y-110490000D01*
X247650000Y-110490000D02*
X251460000Y-106680000D01*
X251460000Y-106680000D02*
X251460000Y-86360000D01*
X251460000Y-86360000D02*
X248920000Y-83820000D01*
D26*
X212512000Y-106426000D02*
X217932000Y-106426000D01*
X217932000Y-106426000D02*
X219710000Y-108204000D01*
X210820000Y-104584000D02*
X210820000Y-104734000D01*
X210820000Y-104734000D02*
X212512000Y-106426000D01*
X208026000Y-96427990D02*
X208026000Y-95885000D01*
X208026000Y-96427990D02*
X208026000Y-103612000D01*
X208026000Y-103612000D02*
X204450000Y-107188000D01*
X204450000Y-107188000D02*
X203200000Y-107188000D01*
X239110000Y-124460000D02*
X239110000Y-130597106D01*
X239110000Y-130597106D02*
X241681000Y-133168106D01*
X227711000Y-94996000D02*
X226060000Y-94996000D01*
X232410000Y-98806000D02*
X230505000Y-98806000D01*
X230505000Y-98806000D02*
X229362000Y-97663000D01*
X229362000Y-96647000D02*
X229362000Y-97663000D01*
X228210999Y-95495999D02*
X229362000Y-96647000D01*
X227711000Y-94996000D02*
X228210999Y-95495999D01*
X232410000Y-96266000D02*
X231140000Y-96266000D01*
X231140000Y-96266000D02*
X230378000Y-95504000D01*
X230378000Y-87630000D02*
X230378000Y-95504000D01*
D27*
G36*
X255373000Y-136373000D02*
X176627000Y-136373000D01*
X176627000Y-133528172D01*
X177332538Y-133528172D01*
X177737709Y-134508761D01*
X178487293Y-135259655D01*
X179467173Y-135666536D01*
X180528172Y-135667462D01*
X181508761Y-135262291D01*
X182259655Y-134512707D01*
X182666536Y-133532827D01*
X182667462Y-132471828D01*
X182262291Y-131491239D01*
X181512707Y-130740345D01*
X180532827Y-130333464D01*
X179471828Y-130332538D01*
X178491239Y-130737709D01*
X177740345Y-131487293D01*
X177333464Y-132467173D01*
X177332538Y-133528172D01*
X176627000Y-133528172D01*
X176627000Y-127707177D01*
X181451574Y-127707177D01*
X181825298Y-128611657D01*
X182516703Y-129304270D01*
X183420529Y-129679572D01*
X184399177Y-129680426D01*
X185303657Y-129306702D01*
X185996270Y-128615297D01*
X186371572Y-127711471D01*
X186372426Y-126732823D01*
X185998702Y-125828343D01*
X185307297Y-125135730D01*
X184403471Y-124760428D01*
X183424823Y-124759574D01*
X182520343Y-125133298D01*
X181827730Y-125824703D01*
X181452428Y-126728529D01*
X181451574Y-127707177D01*
X176627000Y-127707177D01*
X176627000Y-124460000D01*
X230641907Y-124460000D01*
X230754946Y-125028285D01*
X231076853Y-125510054D01*
X231406026Y-125730000D01*
X231076853Y-125949946D01*
X230754946Y-126431715D01*
X230641907Y-127000000D01*
X230754946Y-127568285D01*
X231076853Y-128050054D01*
X231406026Y-128270000D01*
X231076853Y-128489946D01*
X230754946Y-128971715D01*
X230641907Y-129540000D01*
X230754946Y-130108285D01*
X231076853Y-130590054D01*
X231558622Y-130911961D01*
X232126907Y-131025000D01*
X232185093Y-131025000D01*
X232753378Y-130911961D01*
X233235147Y-130590054D01*
X233557054Y-130108285D01*
X233670093Y-129540000D01*
X233557054Y-128971715D01*
X233235147Y-128489946D01*
X232905974Y-128270000D01*
X233235147Y-128050054D01*
X233557054Y-127568285D01*
X233670093Y-127000000D01*
X233557054Y-126431715D01*
X233235147Y-125949946D01*
X232905974Y-125730000D01*
X233235147Y-125510054D01*
X233557054Y-125028285D01*
X233670093Y-124460000D01*
X233557054Y-123891715D01*
X233235147Y-123409946D01*
X233193548Y-123382150D01*
X233241317Y-123373162D01*
X233457441Y-123234090D01*
X233602431Y-123021890D01*
X233653440Y-122770000D01*
X233653440Y-122194285D01*
X237724760Y-122194285D01*
X237935169Y-122703515D01*
X238324436Y-123093461D01*
X238556870Y-123189976D01*
X238326485Y-123285169D01*
X237936539Y-123674436D01*
X237725241Y-124183298D01*
X237724760Y-124734285D01*
X237935169Y-125243515D01*
X238275000Y-125583939D01*
X238275000Y-130597106D01*
X238338561Y-130916647D01*
X238519566Y-131187540D01*
X240545959Y-133213933D01*
X240545803Y-133392881D01*
X240718233Y-133810192D01*
X241037235Y-134129751D01*
X241454244Y-134302909D01*
X241905775Y-134303303D01*
X242323086Y-134130873D01*
X242642645Y-133811871D01*
X242760447Y-133528172D01*
X249332538Y-133528172D01*
X249737709Y-134508761D01*
X250487293Y-135259655D01*
X251467173Y-135666536D01*
X252528172Y-135667462D01*
X253508761Y-135262291D01*
X254259655Y-134512707D01*
X254666536Y-133532827D01*
X254667462Y-132471828D01*
X254262291Y-131491239D01*
X253512707Y-130740345D01*
X252532827Y-130333464D01*
X251471828Y-130332538D01*
X250491239Y-130737709D01*
X249740345Y-131487293D01*
X249333464Y-132467173D01*
X249332538Y-133528172D01*
X242760447Y-133528172D01*
X242815803Y-133394862D01*
X242816197Y-132943331D01*
X242643767Y-132526020D01*
X242324765Y-132206461D01*
X241907756Y-132033303D01*
X241726907Y-132033145D01*
X239945000Y-130251238D01*
X239945000Y-127707177D01*
X245539574Y-127707177D01*
X245913298Y-128611657D01*
X246604703Y-129304270D01*
X247508529Y-129679572D01*
X248487177Y-129680426D01*
X249391657Y-129306702D01*
X250084270Y-128615297D01*
X250459572Y-127711471D01*
X250460426Y-126732823D01*
X250086702Y-125828343D01*
X249395297Y-125135730D01*
X248491471Y-124760428D01*
X247512823Y-124759574D01*
X246608343Y-125133298D01*
X245915730Y-125824703D01*
X245540428Y-126728529D01*
X245539574Y-127707177D01*
X239945000Y-127707177D01*
X239945000Y-125583436D01*
X240252560Y-125276411D01*
X240252560Y-126480000D01*
X240296838Y-126715317D01*
X240435910Y-126931441D01*
X240648110Y-127076431D01*
X240900000Y-127127440D01*
X242400000Y-127127440D01*
X242635317Y-127083162D01*
X242851441Y-126944090D01*
X242996431Y-126731890D01*
X243047440Y-126480000D01*
X243047440Y-124980000D01*
X243003162Y-124744683D01*
X242864090Y-124528559D01*
X242651890Y-124383569D01*
X242400000Y-124332560D01*
X240900000Y-124332560D01*
X240664683Y-124376838D01*
X240494978Y-124486040D01*
X240495240Y-124185715D01*
X240284831Y-123676485D01*
X239895564Y-123286539D01*
X239663130Y-123190024D01*
X239893515Y-123094831D01*
X240283461Y-122705564D01*
X240494759Y-122196702D01*
X240495240Y-121645715D01*
X240284831Y-121136485D01*
X240073001Y-120924285D01*
X240264760Y-120924285D01*
X240475169Y-121433515D01*
X240864436Y-121823461D01*
X241373298Y-122034759D01*
X241924285Y-122035240D01*
X242433515Y-121824831D01*
X242823461Y-121435564D01*
X243034759Y-120926702D01*
X243035240Y-120375715D01*
X242824831Y-119866485D01*
X242435564Y-119476539D01*
X241926702Y-119265241D01*
X241375715Y-119264760D01*
X240866485Y-119475169D01*
X240476539Y-119864436D01*
X240265241Y-120373298D01*
X240264760Y-120924285D01*
X240073001Y-120924285D01*
X239895564Y-120746539D01*
X239386702Y-120535241D01*
X238835715Y-120534760D01*
X238326485Y-120745169D01*
X237936539Y-121134436D01*
X237725241Y-121643298D01*
X237724760Y-122194285D01*
X233653440Y-122194285D01*
X233653440Y-121070000D01*
X233609162Y-120834683D01*
X233470090Y-120618559D01*
X233257890Y-120473569D01*
X233006000Y-120422560D01*
X231306000Y-120422560D01*
X231070683Y-120466838D01*
X230854559Y-120605910D01*
X230709569Y-120818110D01*
X230658560Y-121070000D01*
X230658560Y-122770000D01*
X230702838Y-123005317D01*
X230841910Y-123221441D01*
X231054110Y-123366431D01*
X231121541Y-123380086D01*
X231076853Y-123409946D01*
X230754946Y-123891715D01*
X230641907Y-124460000D01*
X176627000Y-124460000D01*
X176627000Y-122194285D01*
X188876760Y-122194285D01*
X189087169Y-122703515D01*
X189476436Y-123093461D01*
X189985298Y-123304759D01*
X190536285Y-123305240D01*
X191045515Y-123094831D01*
X191435461Y-122705564D01*
X191646759Y-122196702D01*
X191647240Y-121645715D01*
X191436831Y-121136485D01*
X191047564Y-120746539D01*
X190538702Y-120535241D01*
X189987715Y-120534760D01*
X189478485Y-120745169D01*
X189088539Y-121134436D01*
X188877241Y-121643298D01*
X188876760Y-122194285D01*
X176627000Y-122194285D01*
X176627000Y-115837177D01*
X181451574Y-115837177D01*
X181825298Y-116741657D01*
X182516703Y-117434270D01*
X183420529Y-117809572D01*
X184399177Y-117810426D01*
X185303657Y-117436702D01*
X185996270Y-116745297D01*
X186268373Y-116090000D01*
X188864560Y-116090000D01*
X188864560Y-117590000D01*
X188908838Y-117825317D01*
X189047910Y-118041441D01*
X189260110Y-118186431D01*
X189512000Y-118237440D01*
X191012000Y-118237440D01*
X191247317Y-118193162D01*
X191417022Y-118083960D01*
X191416760Y-118384285D01*
X191627169Y-118893515D01*
X192016436Y-119283461D01*
X192248870Y-119379976D01*
X192018485Y-119475169D01*
X191628539Y-119864436D01*
X191417241Y-120373298D01*
X191416760Y-120924285D01*
X191627169Y-121433515D01*
X192016436Y-121823461D01*
X192525298Y-122034759D01*
X193076285Y-122035240D01*
X193585515Y-121824831D01*
X193975461Y-121435564D01*
X194148018Y-121020000D01*
X211812560Y-121020000D01*
X211812560Y-122820000D01*
X211856838Y-123055317D01*
X211995910Y-123271441D01*
X212208110Y-123416431D01*
X212460000Y-123467440D01*
X214260000Y-123467440D01*
X214495317Y-123423162D01*
X214711441Y-123284090D01*
X214856431Y-123071890D01*
X214907440Y-122820000D01*
X214907440Y-121920000D01*
X216874928Y-121920000D01*
X216991773Y-122507419D01*
X217324519Y-123005409D01*
X217822509Y-123338155D01*
X218409928Y-123455000D01*
X218470072Y-123455000D01*
X219057491Y-123338155D01*
X219555481Y-123005409D01*
X219888227Y-122507419D01*
X220005072Y-121920000D01*
X219888227Y-121332581D01*
X219555481Y-120834591D01*
X219057491Y-120501845D01*
X218470072Y-120385000D01*
X218409928Y-120385000D01*
X217822509Y-120501845D01*
X217324519Y-120834591D01*
X216991773Y-121332581D01*
X216874928Y-121920000D01*
X214907440Y-121920000D01*
X214907440Y-121020000D01*
X214863162Y-120784683D01*
X214724090Y-120568559D01*
X214511890Y-120423569D01*
X214260000Y-120372560D01*
X212460000Y-120372560D01*
X212224683Y-120416838D01*
X212008559Y-120555910D01*
X211863569Y-120768110D01*
X211812560Y-121020000D01*
X194148018Y-121020000D01*
X194186759Y-120926702D01*
X194187240Y-120375715D01*
X193976831Y-119866485D01*
X193587564Y-119476539D01*
X193355130Y-119380024D01*
X193585515Y-119284831D01*
X193975461Y-118895564D01*
X194186759Y-118386702D01*
X194187240Y-117835715D01*
X193976831Y-117326485D01*
X193587564Y-116936539D01*
X193078702Y-116725241D01*
X192527715Y-116724760D01*
X192018485Y-116935169D01*
X191659440Y-117293589D01*
X191659440Y-116586000D01*
X204276887Y-116586000D01*
X204386120Y-117135151D01*
X204697189Y-117600698D01*
X205162736Y-117911767D01*
X205711887Y-118021000D01*
X205768113Y-118021000D01*
X206317264Y-117911767D01*
X206782811Y-117600698D01*
X207093880Y-117135151D01*
X207203113Y-116586000D01*
X207093880Y-116036849D01*
X206926268Y-115786000D01*
X211912560Y-115786000D01*
X211912560Y-117386000D01*
X211956838Y-117621317D01*
X212095910Y-117837441D01*
X212308110Y-117982431D01*
X212560000Y-118033440D01*
X214160000Y-118033440D01*
X214395317Y-117989162D01*
X214611441Y-117850090D01*
X214756431Y-117637890D01*
X214807440Y-117386000D01*
X214807440Y-115786000D01*
X216992560Y-115786000D01*
X216992560Y-117386000D01*
X217036838Y-117621317D01*
X217175910Y-117837441D01*
X217388110Y-117982431D01*
X217640000Y-118033440D01*
X219240000Y-118033440D01*
X219475317Y-117989162D01*
X219691441Y-117850090D01*
X219836431Y-117637890D01*
X219887440Y-117386000D01*
X219887440Y-115786000D01*
X219843162Y-115550683D01*
X219704090Y-115334559D01*
X219491890Y-115189569D01*
X219240000Y-115138560D01*
X217640000Y-115138560D01*
X217404683Y-115182838D01*
X217188559Y-115321910D01*
X217043569Y-115534110D01*
X216992560Y-115786000D01*
X214807440Y-115786000D01*
X214763162Y-115550683D01*
X214624090Y-115334559D01*
X214411890Y-115189569D01*
X214160000Y-115138560D01*
X212560000Y-115138560D01*
X212324683Y-115182838D01*
X212108559Y-115321910D01*
X211963569Y-115534110D01*
X211912560Y-115786000D01*
X206926268Y-115786000D01*
X206782811Y-115571302D01*
X206317264Y-115260233D01*
X205768113Y-115151000D01*
X205711887Y-115151000D01*
X205162736Y-115260233D01*
X204697189Y-115571302D01*
X204386120Y-116036849D01*
X204276887Y-116586000D01*
X191659440Y-116586000D01*
X191659440Y-116090000D01*
X191615162Y-115854683D01*
X191476090Y-115638559D01*
X191263890Y-115493569D01*
X191012000Y-115442560D01*
X189512000Y-115442560D01*
X189276683Y-115486838D01*
X189060559Y-115625910D01*
X188915569Y-115838110D01*
X188864560Y-116090000D01*
X186268373Y-116090000D01*
X186371572Y-115841471D01*
X186372426Y-114862823D01*
X185998702Y-113958343D01*
X185307297Y-113265730D01*
X184403471Y-112890428D01*
X183424823Y-112889574D01*
X182520343Y-113263298D01*
X181827730Y-113954703D01*
X181452428Y-114858529D01*
X181451574Y-115837177D01*
X176627000Y-115837177D01*
X176627000Y-93290167D01*
X186340750Y-93290167D01*
X186560275Y-93821457D01*
X186966405Y-94228297D01*
X187497311Y-94448748D01*
X188072167Y-94449250D01*
X188603457Y-94229725D01*
X189010297Y-93823595D01*
X189230748Y-93292689D01*
X189231250Y-92717833D01*
X189011725Y-92186543D01*
X188605595Y-91779703D01*
X188074689Y-91559252D01*
X187499833Y-91558750D01*
X186968543Y-91778275D01*
X186561703Y-92184405D01*
X186341252Y-92715311D01*
X186340750Y-93290167D01*
X176627000Y-93290167D01*
X176627000Y-90170000D01*
X178063907Y-90170000D01*
X178176946Y-90738285D01*
X178498853Y-91220054D01*
X178980622Y-91541961D01*
X179548907Y-91655000D01*
X179607093Y-91655000D01*
X180175378Y-91541961D01*
X180657147Y-91220054D01*
X180979054Y-90738285D01*
X181092093Y-90170000D01*
X180979054Y-89601715D01*
X180657147Y-89119946D01*
X180175378Y-88798039D01*
X179607093Y-88685000D01*
X179548907Y-88685000D01*
X178980622Y-88798039D01*
X178498853Y-89119946D01*
X178176946Y-89601715D01*
X178063907Y-90170000D01*
X176627000Y-90170000D01*
X176627000Y-86838775D01*
X182442803Y-86838775D01*
X182615233Y-87256086D01*
X182934235Y-87575645D01*
X183351244Y-87748803D01*
X183802775Y-87749197D01*
X184220086Y-87576767D01*
X184297989Y-87499000D01*
X191901000Y-87499000D01*
X191901000Y-89345700D01*
X191561703Y-89684405D01*
X191341252Y-90215311D01*
X191340750Y-90790167D01*
X191560275Y-91321457D01*
X191966405Y-91728297D01*
X192497311Y-91948748D01*
X192979589Y-91949169D01*
X195128208Y-94097787D01*
X195128210Y-94097790D01*
X195415325Y-94289633D01*
X195471516Y-94300810D01*
X195754000Y-94357001D01*
X195754005Y-94357000D01*
X208411000Y-94357000D01*
X208411000Y-94815906D01*
X208252756Y-94750197D01*
X207801225Y-94749803D01*
X207383914Y-94922233D01*
X207064355Y-95241235D01*
X206891197Y-95658244D01*
X206890803Y-96109775D01*
X207063233Y-96527086D01*
X207191000Y-96655076D01*
X207191000Y-103266132D01*
X204536205Y-105920927D01*
X204514090Y-105886559D01*
X204301890Y-105741569D01*
X204234459Y-105727914D01*
X204279147Y-105698054D01*
X204601054Y-105216285D01*
X204714093Y-104648000D01*
X204601054Y-104079715D01*
X204279147Y-103597946D01*
X203949974Y-103378000D01*
X204279147Y-103158054D01*
X204601054Y-102676285D01*
X204714093Y-102108000D01*
X204601054Y-101539715D01*
X204279147Y-101057946D01*
X203949974Y-100838000D01*
X204279147Y-100618054D01*
X204601054Y-100136285D01*
X204714093Y-99568000D01*
X204601054Y-98999715D01*
X204279147Y-98517946D01*
X203949974Y-98298000D01*
X204279147Y-98078054D01*
X204601054Y-97596285D01*
X204714093Y-97028000D01*
X204601054Y-96459715D01*
X204279147Y-95977946D01*
X203797378Y-95656039D01*
X203229093Y-95543000D01*
X203170907Y-95543000D01*
X202602622Y-95656039D01*
X202120853Y-95977946D01*
X201798946Y-96459715D01*
X201685907Y-97028000D01*
X201798946Y-97596285D01*
X202120853Y-98078054D01*
X202450026Y-98298000D01*
X202120853Y-98517946D01*
X201798946Y-98999715D01*
X201685907Y-99568000D01*
X201798946Y-100136285D01*
X202120853Y-100618054D01*
X202450026Y-100838000D01*
X202120853Y-101057946D01*
X201798946Y-101539715D01*
X201685907Y-102108000D01*
X201798946Y-102676285D01*
X202120853Y-103158054D01*
X202450026Y-103378000D01*
X202120853Y-103597946D01*
X201798946Y-104079715D01*
X201685907Y-104648000D01*
X201798946Y-105216285D01*
X202120853Y-105698054D01*
X202162452Y-105725850D01*
X202114683Y-105734838D01*
X201898559Y-105873910D01*
X201753569Y-106086110D01*
X201742159Y-106142454D01*
X201739147Y-106137946D01*
X201257378Y-105816039D01*
X200689093Y-105703000D01*
X200630907Y-105703000D01*
X200062622Y-105816039D01*
X199580853Y-106137946D01*
X199258946Y-106619715D01*
X199145907Y-107188000D01*
X199258946Y-107756285D01*
X199580853Y-108238054D01*
X200062622Y-108559961D01*
X200630907Y-108673000D01*
X200689093Y-108673000D01*
X201257378Y-108559961D01*
X201739147Y-108238054D01*
X201739971Y-108236821D01*
X201746838Y-108273317D01*
X201885910Y-108489441D01*
X202098110Y-108634431D01*
X202350000Y-108685440D01*
X204050000Y-108685440D01*
X204285317Y-108641162D01*
X204501441Y-108502090D01*
X204646431Y-108289890D01*
X204697440Y-108038000D01*
X204697440Y-107973781D01*
X204769541Y-107959439D01*
X205040434Y-107778434D01*
X208411000Y-104407868D01*
X208411000Y-106709995D01*
X208410999Y-106710000D01*
X208444490Y-106878367D01*
X208478367Y-107048675D01*
X208650164Y-107305789D01*
X208670210Y-107335790D01*
X210164208Y-108829787D01*
X210164210Y-108829790D01*
X210451325Y-109021633D01*
X210507516Y-109032810D01*
X210653443Y-109061837D01*
X210686838Y-109239317D01*
X210825910Y-109455441D01*
X211038110Y-109600431D01*
X211205000Y-109634227D01*
X211205000Y-112907000D01*
X200518579Y-112907000D01*
X194681790Y-107070210D01*
X194601308Y-107016434D01*
X194394675Y-106878367D01*
X194338484Y-106867190D01*
X194056000Y-106810999D01*
X194055995Y-106811000D01*
X186902276Y-106811000D01*
X186825765Y-106734355D01*
X186408756Y-106561197D01*
X185957225Y-106560803D01*
X185539914Y-106733233D01*
X185220355Y-107052235D01*
X185047197Y-107469244D01*
X185046803Y-107920775D01*
X185219233Y-108338086D01*
X185538235Y-108657645D01*
X185955244Y-108830803D01*
X186406775Y-108831197D01*
X186824086Y-108658767D01*
X186901989Y-108581000D01*
X193689420Y-108581000D01*
X199526208Y-114417787D01*
X199526210Y-114417790D01*
X199813325Y-114609633D01*
X199869516Y-114620810D01*
X200152000Y-114677001D01*
X200152005Y-114677000D01*
X219343420Y-114677000D01*
X221878208Y-117211787D01*
X221878210Y-117211790D01*
X222165325Y-117403633D01*
X222221516Y-117414810D01*
X222504000Y-117471001D01*
X222504005Y-117471000D01*
X224930527Y-117471000D01*
X225017189Y-117600698D01*
X225482736Y-117911767D01*
X226031887Y-118021000D01*
X226088113Y-118021000D01*
X226637264Y-117911767D01*
X227102811Y-117600698D01*
X227189473Y-117471000D01*
X231393995Y-117471000D01*
X231394000Y-117471001D01*
X231676484Y-117414810D01*
X231732675Y-117403633D01*
X232019790Y-117211790D01*
X233394402Y-115837177D01*
X245539574Y-115837177D01*
X245913298Y-116741657D01*
X246604703Y-117434270D01*
X247508529Y-117809572D01*
X248487177Y-117810426D01*
X249391657Y-117436702D01*
X250084270Y-116745297D01*
X250459572Y-115841471D01*
X250460426Y-114862823D01*
X250086702Y-113958343D01*
X249395297Y-113265730D01*
X248491471Y-112890428D01*
X247512823Y-112889574D01*
X246608343Y-113263298D01*
X245915730Y-113954703D01*
X245540428Y-114858529D01*
X245539574Y-115837177D01*
X233394402Y-115837177D01*
X237856579Y-111375000D01*
X247649995Y-111375000D01*
X247650000Y-111375001D01*
X247941051Y-111317106D01*
X247988675Y-111307633D01*
X248275790Y-111115790D01*
X248275791Y-111115789D01*
X252085787Y-107305792D01*
X252085790Y-107305790D01*
X252277633Y-107018675D01*
X252307513Y-106868459D01*
X252345001Y-106680000D01*
X252345000Y-106679995D01*
X252345000Y-86360000D01*
X252277633Y-86021325D01*
X252085790Y-85734210D01*
X252085787Y-85734208D01*
X249545790Y-83194210D01*
X249258675Y-83002367D01*
X249202484Y-82991190D01*
X248920000Y-82934999D01*
X248919995Y-82935000D01*
X237744005Y-82935000D01*
X237744000Y-82934999D01*
X237743995Y-82935000D01*
X232025000Y-82935000D01*
X232025000Y-78978005D01*
X232025001Y-78978000D01*
X231957633Y-78639326D01*
X231957633Y-78639325D01*
X231765790Y-78352210D01*
X231765787Y-78352208D01*
X226029467Y-72615887D01*
X226911000Y-72615887D01*
X226911000Y-72672113D01*
X227020233Y-73221264D01*
X227331302Y-73686811D01*
X227796849Y-73997880D01*
X228346000Y-74107113D01*
X228895151Y-73997880D01*
X229360698Y-73686811D01*
X229616000Y-73304725D01*
X229871302Y-73686811D01*
X230336849Y-73997880D01*
X230886000Y-74107113D01*
X231435151Y-73997880D01*
X231900698Y-73686811D01*
X232156000Y-73304725D01*
X232411302Y-73686811D01*
X232876849Y-73997880D01*
X233426000Y-74107113D01*
X233975151Y-73997880D01*
X234440698Y-73686811D01*
X234696000Y-73304725D01*
X234951302Y-73686811D01*
X235416849Y-73997880D01*
X235966000Y-74107113D01*
X236515151Y-73997880D01*
X236980698Y-73686811D01*
X237236000Y-73304725D01*
X237491302Y-73686811D01*
X237956849Y-73997880D01*
X238506000Y-74107113D01*
X239055151Y-73997880D01*
X239520698Y-73686811D01*
X239776000Y-73304725D01*
X240031302Y-73686811D01*
X240496849Y-73997880D01*
X241046000Y-74107113D01*
X241595151Y-73997880D01*
X242060698Y-73686811D01*
X242316000Y-73304725D01*
X242571302Y-73686811D01*
X243036849Y-73997880D01*
X243586000Y-74107113D01*
X244135151Y-73997880D01*
X244600698Y-73686811D01*
X244697101Y-73542535D01*
X244722838Y-73679317D01*
X244861910Y-73895441D01*
X245074110Y-74040431D01*
X245326000Y-74091440D01*
X246926000Y-74091440D01*
X247161317Y-74047162D01*
X247377441Y-73908090D01*
X247522431Y-73695890D01*
X247573440Y-73444000D01*
X247573440Y-71844000D01*
X247529162Y-71608683D01*
X247390090Y-71392559D01*
X247177890Y-71247569D01*
X246926000Y-71196560D01*
X245326000Y-71196560D01*
X245090683Y-71240838D01*
X244874559Y-71379910D01*
X244729569Y-71592110D01*
X244698185Y-71747089D01*
X244600698Y-71601189D01*
X244135151Y-71290120D01*
X243586000Y-71180887D01*
X243036849Y-71290120D01*
X242571302Y-71601189D01*
X242316000Y-71983275D01*
X242060698Y-71601189D01*
X241595151Y-71290120D01*
X241046000Y-71180887D01*
X240496849Y-71290120D01*
X240031302Y-71601189D01*
X239776000Y-71983275D01*
X239520698Y-71601189D01*
X239055151Y-71290120D01*
X238506000Y-71180887D01*
X237956849Y-71290120D01*
X237491302Y-71601189D01*
X237236000Y-71983275D01*
X236980698Y-71601189D01*
X236515151Y-71290120D01*
X235966000Y-71180887D01*
X235416849Y-71290120D01*
X234951302Y-71601189D01*
X234696000Y-71983275D01*
X234440698Y-71601189D01*
X233975151Y-71290120D01*
X233426000Y-71180887D01*
X232876849Y-71290120D01*
X232411302Y-71601189D01*
X232156000Y-71983275D01*
X231900698Y-71601189D01*
X231435151Y-71290120D01*
X230886000Y-71180887D01*
X230336849Y-71290120D01*
X229871302Y-71601189D01*
X229616000Y-71983275D01*
X229360698Y-71601189D01*
X228895151Y-71290120D01*
X228346000Y-71180887D01*
X227796849Y-71290120D01*
X227331302Y-71601189D01*
X227020233Y-72066736D01*
X226911000Y-72615887D01*
X226029467Y-72615887D01*
X224479790Y-71066210D01*
X224452888Y-71048235D01*
X224192675Y-70874367D01*
X224136484Y-70863190D01*
X223854000Y-70806999D01*
X223853995Y-70807000D01*
X223224276Y-70807000D01*
X223147765Y-70730355D01*
X222730756Y-70557197D01*
X222279225Y-70556803D01*
X221861914Y-70729233D01*
X221542355Y-71048235D01*
X221369197Y-71465244D01*
X221368803Y-71916775D01*
X221541233Y-72334086D01*
X221860235Y-72653645D01*
X222277244Y-72826803D01*
X222728775Y-72827197D01*
X223146086Y-72654767D01*
X223223989Y-72577000D01*
X223487420Y-72577000D01*
X230255000Y-79344579D01*
X230255000Y-82935000D01*
X229840005Y-82935000D01*
X229840000Y-82934999D01*
X229508197Y-83001000D01*
X229501325Y-83002367D01*
X229214210Y-83194210D01*
X229214208Y-83194213D01*
X228609210Y-83799210D01*
X228417367Y-84086325D01*
X228417367Y-84086326D01*
X228349999Y-84425000D01*
X228350000Y-84425005D01*
X228350000Y-85004724D01*
X228273355Y-85081235D01*
X228100197Y-85498244D01*
X228099803Y-85949775D01*
X228272233Y-86367086D01*
X228591235Y-86686645D01*
X229008244Y-86859803D01*
X229459775Y-86860197D01*
X229601116Y-86801796D01*
X229416355Y-86986235D01*
X229243197Y-87403244D01*
X229242803Y-87854775D01*
X229415233Y-88272086D01*
X229543000Y-88400076D01*
X229543000Y-95504000D01*
X229578540Y-95682672D01*
X228301434Y-94405566D01*
X228224131Y-94353914D01*
X228030541Y-94224561D01*
X227711000Y-94161000D01*
X226830189Y-94161000D01*
X226703765Y-94034355D01*
X226286756Y-93861197D01*
X225835225Y-93860803D01*
X225417914Y-94033233D01*
X225098355Y-94352235D01*
X224925197Y-94769244D01*
X224924803Y-95220775D01*
X225097233Y-95638086D01*
X225416235Y-95957645D01*
X225833244Y-96130803D01*
X226284775Y-96131197D01*
X226702086Y-95958767D01*
X226830076Y-95831000D01*
X227365132Y-95831000D01*
X228527000Y-96992868D01*
X228527000Y-97663000D01*
X228590561Y-97982541D01*
X228605568Y-98005000D01*
X228771566Y-98253434D01*
X229914566Y-99396434D01*
X230185459Y-99577439D01*
X230505000Y-99641000D01*
X231639811Y-99641000D01*
X231766235Y-99767645D01*
X232183244Y-99940803D01*
X232634775Y-99941197D01*
X233052086Y-99768767D01*
X233371645Y-99449765D01*
X233544803Y-99032756D01*
X233545197Y-98581225D01*
X233372767Y-98163914D01*
X233053765Y-97844355D01*
X232636756Y-97671197D01*
X232185225Y-97670803D01*
X231767914Y-97843233D01*
X231639924Y-97971000D01*
X230850868Y-97971000D01*
X230197000Y-97317132D01*
X230197000Y-96647000D01*
X230161460Y-96468328D01*
X230549566Y-96856434D01*
X230820460Y-97037440D01*
X231140000Y-97101000D01*
X231639811Y-97101000D01*
X231766235Y-97227645D01*
X232183244Y-97400803D01*
X232634775Y-97401197D01*
X233052086Y-97228767D01*
X233371645Y-96909765D01*
X233544803Y-96492756D01*
X233545197Y-96041225D01*
X233372767Y-95623914D01*
X233053765Y-95304355D01*
X232636756Y-95131197D01*
X232185225Y-95130803D01*
X231767914Y-95303233D01*
X231639924Y-95431000D01*
X231485868Y-95431000D01*
X231213000Y-95158132D01*
X231213000Y-88400189D01*
X231339645Y-88273765D01*
X231512803Y-87856756D01*
X231513197Y-87405225D01*
X231340767Y-86987914D01*
X231021765Y-86668355D01*
X230604756Y-86495197D01*
X230153225Y-86494803D01*
X230011884Y-86553204D01*
X230196645Y-86368765D01*
X230369803Y-85951756D01*
X230370197Y-85500225D01*
X230197767Y-85082914D01*
X230120000Y-85005011D01*
X230120000Y-84791580D01*
X230206579Y-84705000D01*
X236925000Y-84705000D01*
X236925000Y-94275724D01*
X236848355Y-94352235D01*
X236675197Y-94769244D01*
X236674803Y-95220775D01*
X236847233Y-95638086D01*
X237166235Y-95957645D01*
X237583244Y-96130803D01*
X238034775Y-96131197D01*
X238452086Y-95958767D01*
X238771645Y-95639765D01*
X238944803Y-95222756D01*
X238945197Y-94771225D01*
X238772767Y-94353914D01*
X238695000Y-94276011D01*
X238695000Y-88900000D01*
X245627907Y-88900000D01*
X245740946Y-89468285D01*
X246062853Y-89950054D01*
X246392026Y-90170000D01*
X246062853Y-90389946D01*
X245740946Y-90871715D01*
X245627907Y-91440000D01*
X245740946Y-92008285D01*
X246062853Y-92490054D01*
X246392026Y-92710000D01*
X246062853Y-92929946D01*
X245740946Y-93411715D01*
X245627907Y-93980000D01*
X245740946Y-94548285D01*
X246062853Y-95030054D01*
X246392026Y-95250000D01*
X246062853Y-95469946D01*
X245740946Y-95951715D01*
X245627907Y-96520000D01*
X245740946Y-97088285D01*
X246062853Y-97570054D01*
X246104452Y-97597850D01*
X246056683Y-97606838D01*
X245840559Y-97745910D01*
X245695569Y-97958110D01*
X245644560Y-98210000D01*
X245644560Y-99910000D01*
X245688838Y-100145317D01*
X245827910Y-100361441D01*
X246040110Y-100506431D01*
X246292000Y-100557440D01*
X247992000Y-100557440D01*
X248227317Y-100513162D01*
X248443441Y-100374090D01*
X248588431Y-100161890D01*
X248639440Y-99910000D01*
X248639440Y-98210000D01*
X248595162Y-97974683D01*
X248456090Y-97758559D01*
X248243890Y-97613569D01*
X248176459Y-97599914D01*
X248221147Y-97570054D01*
X248543054Y-97088285D01*
X248656093Y-96520000D01*
X248543054Y-95951715D01*
X248221147Y-95469946D01*
X247891974Y-95250000D01*
X248221147Y-95030054D01*
X248543054Y-94548285D01*
X248656093Y-93980000D01*
X248543054Y-93411715D01*
X248221147Y-92929946D01*
X247891974Y-92710000D01*
X248221147Y-92490054D01*
X248543054Y-92008285D01*
X248656093Y-91440000D01*
X248543054Y-90871715D01*
X248221147Y-90389946D01*
X247891974Y-90170000D01*
X248221147Y-89950054D01*
X248543054Y-89468285D01*
X248656093Y-88900000D01*
X248543054Y-88331715D01*
X248221147Y-87849946D01*
X247739378Y-87528039D01*
X247171093Y-87415000D01*
X247112907Y-87415000D01*
X246544622Y-87528039D01*
X246062853Y-87849946D01*
X245740946Y-88331715D01*
X245627907Y-88900000D01*
X238695000Y-88900000D01*
X238695000Y-84705000D01*
X248553420Y-84705000D01*
X250575000Y-86726579D01*
X250575000Y-106313421D01*
X247283420Y-109605000D01*
X237490005Y-109605000D01*
X237490000Y-109604999D01*
X237207516Y-109661190D01*
X237151325Y-109672367D01*
X236864210Y-109864210D01*
X236864208Y-109864213D01*
X231027420Y-115701000D01*
X227189473Y-115701000D01*
X227102811Y-115571302D01*
X226637264Y-115260233D01*
X226088113Y-115151000D01*
X226031887Y-115151000D01*
X225482736Y-115260233D01*
X225017189Y-115571302D01*
X224930527Y-115701000D01*
X222870579Y-115701000D01*
X220335790Y-113166210D01*
X220215197Y-113085633D01*
X220128636Y-113027795D01*
X221630716Y-113027795D01*
X221879106Y-113628943D01*
X222338637Y-114089278D01*
X222939352Y-114338716D01*
X223589795Y-114339284D01*
X224190943Y-114090894D01*
X224651278Y-113631363D01*
X224900716Y-113030648D01*
X224900718Y-113027795D01*
X228130716Y-113027795D01*
X228379106Y-113628943D01*
X228838637Y-114089278D01*
X229439352Y-114338716D01*
X230089795Y-114339284D01*
X230690943Y-114090894D01*
X231151278Y-113631363D01*
X231400716Y-113030648D01*
X231401284Y-112380205D01*
X231152894Y-111779057D01*
X230693363Y-111318722D01*
X230092648Y-111069284D01*
X229442205Y-111068716D01*
X228841057Y-111317106D01*
X228380722Y-111776637D01*
X228131284Y-112377352D01*
X228130716Y-113027795D01*
X224900718Y-113027795D01*
X224901284Y-112380205D01*
X224652894Y-111779057D01*
X224193363Y-111318722D01*
X223592648Y-111069284D01*
X222942205Y-111068716D01*
X222341057Y-111317106D01*
X221880722Y-111776637D01*
X221631284Y-112377352D01*
X221630716Y-113027795D01*
X220128636Y-113027795D01*
X220048675Y-112974367D01*
X219992484Y-112963190D01*
X219710000Y-112906999D01*
X219709995Y-112907000D01*
X212975000Y-112907000D01*
X212975000Y-109635446D01*
X213125317Y-109607162D01*
X213341441Y-109468090D01*
X213486431Y-109255890D01*
X213537440Y-109004000D01*
X213537440Y-107404000D01*
X213510533Y-107261000D01*
X217586132Y-107261000D01*
X218293714Y-107968582D01*
X218246887Y-108204000D01*
X218356120Y-108753151D01*
X218667189Y-109218698D01*
X219132736Y-109529767D01*
X219681887Y-109639000D01*
X219738113Y-109639000D01*
X220287264Y-109529767D01*
X220752811Y-109218698D01*
X221063880Y-108753151D01*
X221108706Y-108527795D01*
X221630716Y-108527795D01*
X221879106Y-109128943D01*
X222338637Y-109589278D01*
X222939352Y-109838716D01*
X223589795Y-109839284D01*
X224190943Y-109590894D01*
X224651278Y-109131363D01*
X224900716Y-108530648D01*
X224900718Y-108527795D01*
X228130716Y-108527795D01*
X228379106Y-109128943D01*
X228838637Y-109589278D01*
X229439352Y-109838716D01*
X230089795Y-109839284D01*
X230690943Y-109590894D01*
X231151278Y-109131363D01*
X231400716Y-108530648D01*
X231401284Y-107880205D01*
X231152894Y-107279057D01*
X230693363Y-106818722D01*
X230092648Y-106569284D01*
X229442205Y-106568716D01*
X228841057Y-106817106D01*
X228380722Y-107276637D01*
X228131284Y-107877352D01*
X228130716Y-108527795D01*
X224900718Y-108527795D01*
X224901284Y-107880205D01*
X224652894Y-107279057D01*
X224193363Y-106818722D01*
X223592648Y-106569284D01*
X222942205Y-106568716D01*
X222341057Y-106817106D01*
X221880722Y-107276637D01*
X221631284Y-107877352D01*
X221630716Y-108527795D01*
X221108706Y-108527795D01*
X221173113Y-108204000D01*
X221063880Y-107654849D01*
X220752811Y-107189302D01*
X220287264Y-106878233D01*
X219738113Y-106769000D01*
X219681887Y-106769000D01*
X219493367Y-106806499D01*
X218522434Y-105835566D01*
X218461721Y-105794999D01*
X218251541Y-105654561D01*
X217932000Y-105591000D01*
X212857868Y-105591000D01*
X211954910Y-104688042D01*
X211955197Y-104359225D01*
X211852594Y-104110907D01*
X236005000Y-104110907D01*
X236005000Y-104169093D01*
X236118039Y-104737378D01*
X236439946Y-105219147D01*
X236921715Y-105541054D01*
X237490000Y-105654093D01*
X238058285Y-105541054D01*
X238540054Y-105219147D01*
X238567850Y-105177548D01*
X238576838Y-105225317D01*
X238715910Y-105441441D01*
X238928110Y-105586431D01*
X239180000Y-105637440D01*
X240880000Y-105637440D01*
X241115317Y-105593162D01*
X241331441Y-105454090D01*
X241476431Y-105241890D01*
X241527440Y-104990000D01*
X241527440Y-103290000D01*
X241483162Y-103054683D01*
X241344090Y-102838559D01*
X241131890Y-102693569D01*
X240880000Y-102642560D01*
X239180000Y-102642560D01*
X238944683Y-102686838D01*
X238728559Y-102825910D01*
X238583569Y-103038110D01*
X238569914Y-103105541D01*
X238540054Y-103060853D01*
X238058285Y-102738946D01*
X237490000Y-102625907D01*
X236921715Y-102738946D01*
X236439946Y-103060853D01*
X236118039Y-103542622D01*
X236005000Y-104110907D01*
X211852594Y-104110907D01*
X211782767Y-103941914D01*
X211463765Y-103622355D01*
X211046756Y-103449197D01*
X210595225Y-103448803D01*
X210181000Y-103619958D01*
X210181000Y-101547624D01*
X210593244Y-101718803D01*
X211044775Y-101719197D01*
X211462086Y-101546767D01*
X211781645Y-101227765D01*
X211935067Y-100858285D01*
X218578760Y-100858285D01*
X218789169Y-101367515D01*
X219178436Y-101757461D01*
X219687298Y-101968759D01*
X220238285Y-101969240D01*
X220747515Y-101758831D01*
X221137461Y-101369564D01*
X221348759Y-100860702D01*
X221348761Y-100858285D01*
X223458760Y-100858285D01*
X223669169Y-101367515D01*
X224058436Y-101757461D01*
X224567298Y-101968759D01*
X225118285Y-101969240D01*
X225627515Y-101758831D01*
X226017461Y-101369564D01*
X226228759Y-100860702D01*
X226229240Y-100309715D01*
X226018831Y-99800485D01*
X225629564Y-99410539D01*
X225120702Y-99199241D01*
X224569715Y-99198760D01*
X224060485Y-99409169D01*
X223670539Y-99798436D01*
X223459241Y-100307298D01*
X223458760Y-100858285D01*
X221348761Y-100858285D01*
X221349240Y-100309715D01*
X221138831Y-99800485D01*
X220749564Y-99410539D01*
X220240702Y-99199241D01*
X219689715Y-99198760D01*
X219180485Y-99409169D01*
X218790539Y-99798436D01*
X218579241Y-100307298D01*
X218578760Y-100858285D01*
X211935067Y-100858285D01*
X211954803Y-100810756D01*
X211955197Y-100359225D01*
X211782767Y-99941914D01*
X211463765Y-99622355D01*
X211046756Y-99449197D01*
X210595225Y-99448803D01*
X210181000Y-99619958D01*
X210181000Y-93838580D01*
X210683787Y-93335792D01*
X210683790Y-93335790D01*
X210875633Y-93048675D01*
X210915906Y-92846211D01*
X210943001Y-92710000D01*
X210943000Y-92709995D01*
X210943000Y-87588276D01*
X211019645Y-87511765D01*
X211192803Y-87094756D01*
X211193197Y-86643225D01*
X211020767Y-86225914D01*
X210701765Y-85906355D01*
X210284756Y-85733197D01*
X209833225Y-85732803D01*
X209415914Y-85905233D01*
X209096355Y-86224235D01*
X208923197Y-86641244D01*
X208922803Y-87092775D01*
X209095233Y-87510086D01*
X209173000Y-87587989D01*
X209173000Y-92343421D01*
X208929420Y-92587000D01*
X196120579Y-92587000D01*
X194230831Y-90697252D01*
X194231250Y-90217833D01*
X194011725Y-89686543D01*
X193671000Y-89345222D01*
X193671000Y-84685440D01*
X193786000Y-84685440D01*
X194021317Y-84641162D01*
X194237441Y-84502090D01*
X194382431Y-84289890D01*
X194433440Y-84038000D01*
X194433440Y-82038000D01*
X194389162Y-81802683D01*
X194250090Y-81586559D01*
X194037890Y-81441569D01*
X193786000Y-81390560D01*
X191786000Y-81390560D01*
X191550683Y-81434838D01*
X191334559Y-81573910D01*
X191189569Y-81786110D01*
X191138560Y-82038000D01*
X191138560Y-84038000D01*
X191182838Y-84273317D01*
X191321910Y-84489441D01*
X191534110Y-84634431D01*
X191786000Y-84685440D01*
X191901000Y-84685440D01*
X191901000Y-85729000D01*
X184298276Y-85729000D01*
X184221765Y-85652355D01*
X183804756Y-85479197D01*
X183353225Y-85478803D01*
X182935914Y-85651233D01*
X182616355Y-85970235D01*
X182443197Y-86387244D01*
X182442803Y-86838775D01*
X176627000Y-86838775D01*
X176627000Y-75761795D01*
X191150716Y-75761795D01*
X191399106Y-76362943D01*
X191858637Y-76823278D01*
X192459352Y-77072716D01*
X193109795Y-77073284D01*
X193710943Y-76824894D01*
X194171278Y-76365363D01*
X194420716Y-75764648D01*
X194421284Y-75114205D01*
X194172894Y-74513057D01*
X193713363Y-74052722D01*
X193112648Y-73803284D01*
X192462205Y-73802716D01*
X191861057Y-74051106D01*
X191400722Y-74510637D01*
X191151284Y-75111352D01*
X191150716Y-75761795D01*
X176627000Y-75761795D01*
X176627000Y-66528172D01*
X177332538Y-66528172D01*
X177737709Y-67508761D01*
X178487293Y-68259655D01*
X179467173Y-68666536D01*
X180528172Y-68667462D01*
X181508761Y-68262291D01*
X182259655Y-67512707D01*
X182666536Y-66532827D01*
X182667462Y-65471828D01*
X182262291Y-64491239D01*
X181945606Y-64174000D01*
X198400560Y-64174000D01*
X198400560Y-65874000D01*
X198444838Y-66109317D01*
X198583910Y-66325441D01*
X198796110Y-66470431D01*
X199048000Y-66521440D01*
X200748000Y-66521440D01*
X200983317Y-66477162D01*
X201199441Y-66338090D01*
X201344431Y-66125890D01*
X201358086Y-66058459D01*
X201387946Y-66103147D01*
X201869715Y-66425054D01*
X202438000Y-66538093D01*
X203006285Y-66425054D01*
X203488054Y-66103147D01*
X203708000Y-65773974D01*
X203927946Y-66103147D01*
X204409715Y-66425054D01*
X204978000Y-66538093D01*
X205546285Y-66425054D01*
X206028054Y-66103147D01*
X206248000Y-65773974D01*
X206467946Y-66103147D01*
X206949715Y-66425054D01*
X207518000Y-66538093D01*
X208086285Y-66425054D01*
X208568054Y-66103147D01*
X208788000Y-65773974D01*
X209007946Y-66103147D01*
X209489715Y-66425054D01*
X210058000Y-66538093D01*
X210626285Y-66425054D01*
X211108054Y-66103147D01*
X211328000Y-65773974D01*
X211547946Y-66103147D01*
X212029715Y-66425054D01*
X212598000Y-66538093D01*
X213166285Y-66425054D01*
X213648054Y-66103147D01*
X213868000Y-65773974D01*
X214087946Y-66103147D01*
X214569715Y-66425054D01*
X215138000Y-66538093D01*
X215706285Y-66425054D01*
X216188054Y-66103147D01*
X216408000Y-65773974D01*
X216627946Y-66103147D01*
X217109715Y-66425054D01*
X217678000Y-66538093D01*
X217727876Y-66528172D01*
X249332538Y-66528172D01*
X249737709Y-67508761D01*
X250487293Y-68259655D01*
X251467173Y-68666536D01*
X252528172Y-68667462D01*
X253508761Y-68262291D01*
X254259655Y-67512707D01*
X254666536Y-66532827D01*
X254667462Y-65471828D01*
X254262291Y-64491239D01*
X253512707Y-63740345D01*
X252532827Y-63333464D01*
X251471828Y-63332538D01*
X250491239Y-63737709D01*
X249740345Y-64487293D01*
X249333464Y-65467173D01*
X249332538Y-66528172D01*
X217727876Y-66528172D01*
X218246285Y-66425054D01*
X218728054Y-66103147D01*
X219049961Y-65621378D01*
X219163000Y-65053093D01*
X219163000Y-64994907D01*
X219049961Y-64426622D01*
X218728054Y-63944853D01*
X218246285Y-63622946D01*
X217678000Y-63509907D01*
X217109715Y-63622946D01*
X216627946Y-63944853D01*
X216408000Y-64274026D01*
X216188054Y-63944853D01*
X215706285Y-63622946D01*
X215138000Y-63509907D01*
X214569715Y-63622946D01*
X214087946Y-63944853D01*
X213868000Y-64274026D01*
X213648054Y-63944853D01*
X213166285Y-63622946D01*
X212598000Y-63509907D01*
X212029715Y-63622946D01*
X211547946Y-63944853D01*
X211328000Y-64274026D01*
X211108054Y-63944853D01*
X210626285Y-63622946D01*
X210058000Y-63509907D01*
X209489715Y-63622946D01*
X209007946Y-63944853D01*
X208788000Y-64274026D01*
X208568054Y-63944853D01*
X208086285Y-63622946D01*
X207518000Y-63509907D01*
X206949715Y-63622946D01*
X206467946Y-63944853D01*
X206248000Y-64274026D01*
X206028054Y-63944853D01*
X205546285Y-63622946D01*
X204978000Y-63509907D01*
X204409715Y-63622946D01*
X203927946Y-63944853D01*
X203708000Y-64274026D01*
X203488054Y-63944853D01*
X203006285Y-63622946D01*
X202438000Y-63509907D01*
X201869715Y-63622946D01*
X201387946Y-63944853D01*
X201360150Y-63986452D01*
X201351162Y-63938683D01*
X201212090Y-63722559D01*
X200999890Y-63577569D01*
X200748000Y-63526560D01*
X199048000Y-63526560D01*
X198812683Y-63570838D01*
X198596559Y-63709910D01*
X198451569Y-63922110D01*
X198400560Y-64174000D01*
X181945606Y-64174000D01*
X181512707Y-63740345D01*
X180532827Y-63333464D01*
X179471828Y-63332538D01*
X178491239Y-63737709D01*
X177740345Y-64487293D01*
X177333464Y-65467173D01*
X177332538Y-66528172D01*
X176627000Y-66528172D01*
X176627000Y-62627000D01*
X255373000Y-62627000D01*
X255373000Y-136373000D01*
X255373000Y-136373000D01*
G37*
X255373000Y-136373000D02*
X176627000Y-136373000D01*
X176627000Y-133528172D01*
X177332538Y-133528172D01*
X177737709Y-134508761D01*
X178487293Y-135259655D01*
X179467173Y-135666536D01*
X180528172Y-135667462D01*
X181508761Y-135262291D01*
X182259655Y-134512707D01*
X182666536Y-133532827D01*
X182667462Y-132471828D01*
X182262291Y-131491239D01*
X181512707Y-130740345D01*
X180532827Y-130333464D01*
X179471828Y-130332538D01*
X178491239Y-130737709D01*
X177740345Y-131487293D01*
X177333464Y-132467173D01*
X177332538Y-133528172D01*
X176627000Y-133528172D01*
X176627000Y-127707177D01*
X181451574Y-127707177D01*
X181825298Y-128611657D01*
X182516703Y-129304270D01*
X183420529Y-129679572D01*
X184399177Y-129680426D01*
X185303657Y-129306702D01*
X185996270Y-128615297D01*
X186371572Y-127711471D01*
X186372426Y-126732823D01*
X185998702Y-125828343D01*
X185307297Y-125135730D01*
X184403471Y-124760428D01*
X183424823Y-124759574D01*
X182520343Y-125133298D01*
X181827730Y-125824703D01*
X181452428Y-126728529D01*
X181451574Y-127707177D01*
X176627000Y-127707177D01*
X176627000Y-124460000D01*
X230641907Y-124460000D01*
X230754946Y-125028285D01*
X231076853Y-125510054D01*
X231406026Y-125730000D01*
X231076853Y-125949946D01*
X230754946Y-126431715D01*
X230641907Y-127000000D01*
X230754946Y-127568285D01*
X231076853Y-128050054D01*
X231406026Y-128270000D01*
X231076853Y-128489946D01*
X230754946Y-128971715D01*
X230641907Y-129540000D01*
X230754946Y-130108285D01*
X231076853Y-130590054D01*
X231558622Y-130911961D01*
X232126907Y-131025000D01*
X232185093Y-131025000D01*
X232753378Y-130911961D01*
X233235147Y-130590054D01*
X233557054Y-130108285D01*
X233670093Y-129540000D01*
X233557054Y-128971715D01*
X233235147Y-128489946D01*
X232905974Y-128270000D01*
X233235147Y-128050054D01*
X233557054Y-127568285D01*
X233670093Y-127000000D01*
X233557054Y-126431715D01*
X233235147Y-125949946D01*
X232905974Y-125730000D01*
X233235147Y-125510054D01*
X233557054Y-125028285D01*
X233670093Y-124460000D01*
X233557054Y-123891715D01*
X233235147Y-123409946D01*
X233193548Y-123382150D01*
X233241317Y-123373162D01*
X233457441Y-123234090D01*
X233602431Y-123021890D01*
X233653440Y-122770000D01*
X233653440Y-122194285D01*
X237724760Y-122194285D01*
X237935169Y-122703515D01*
X238324436Y-123093461D01*
X238556870Y-123189976D01*
X238326485Y-123285169D01*
X237936539Y-123674436D01*
X237725241Y-124183298D01*
X237724760Y-124734285D01*
X237935169Y-125243515D01*
X238275000Y-125583939D01*
X238275000Y-130597106D01*
X238338561Y-130916647D01*
X238519566Y-131187540D01*
X240545959Y-133213933D01*
X240545803Y-133392881D01*
X240718233Y-133810192D01*
X241037235Y-134129751D01*
X241454244Y-134302909D01*
X241905775Y-134303303D01*
X242323086Y-134130873D01*
X242642645Y-133811871D01*
X242760447Y-133528172D01*
X249332538Y-133528172D01*
X249737709Y-134508761D01*
X250487293Y-135259655D01*
X251467173Y-135666536D01*
X252528172Y-135667462D01*
X253508761Y-135262291D01*
X254259655Y-134512707D01*
X254666536Y-133532827D01*
X254667462Y-132471828D01*
X254262291Y-131491239D01*
X253512707Y-130740345D01*
X252532827Y-130333464D01*
X251471828Y-130332538D01*
X250491239Y-130737709D01*
X249740345Y-131487293D01*
X249333464Y-132467173D01*
X249332538Y-133528172D01*
X242760447Y-133528172D01*
X242815803Y-133394862D01*
X242816197Y-132943331D01*
X242643767Y-132526020D01*
X242324765Y-132206461D01*
X241907756Y-132033303D01*
X241726907Y-132033145D01*
X239945000Y-130251238D01*
X239945000Y-127707177D01*
X245539574Y-127707177D01*
X245913298Y-128611657D01*
X246604703Y-129304270D01*
X247508529Y-129679572D01*
X248487177Y-129680426D01*
X249391657Y-129306702D01*
X250084270Y-128615297D01*
X250459572Y-127711471D01*
X250460426Y-126732823D01*
X250086702Y-125828343D01*
X249395297Y-125135730D01*
X248491471Y-124760428D01*
X247512823Y-124759574D01*
X246608343Y-125133298D01*
X245915730Y-125824703D01*
X245540428Y-126728529D01*
X245539574Y-127707177D01*
X239945000Y-127707177D01*
X239945000Y-125583436D01*
X240252560Y-125276411D01*
X240252560Y-126480000D01*
X240296838Y-126715317D01*
X240435910Y-126931441D01*
X240648110Y-127076431D01*
X240900000Y-127127440D01*
X242400000Y-127127440D01*
X242635317Y-127083162D01*
X242851441Y-126944090D01*
X242996431Y-126731890D01*
X243047440Y-126480000D01*
X243047440Y-124980000D01*
X243003162Y-124744683D01*
X242864090Y-124528559D01*
X242651890Y-124383569D01*
X242400000Y-124332560D01*
X240900000Y-124332560D01*
X240664683Y-124376838D01*
X240494978Y-124486040D01*
X240495240Y-124185715D01*
X240284831Y-123676485D01*
X239895564Y-123286539D01*
X239663130Y-123190024D01*
X239893515Y-123094831D01*
X240283461Y-122705564D01*
X240494759Y-122196702D01*
X240495240Y-121645715D01*
X240284831Y-121136485D01*
X240073001Y-120924285D01*
X240264760Y-120924285D01*
X240475169Y-121433515D01*
X240864436Y-121823461D01*
X241373298Y-122034759D01*
X241924285Y-122035240D01*
X242433515Y-121824831D01*
X242823461Y-121435564D01*
X243034759Y-120926702D01*
X243035240Y-120375715D01*
X242824831Y-119866485D01*
X242435564Y-119476539D01*
X241926702Y-119265241D01*
X241375715Y-119264760D01*
X240866485Y-119475169D01*
X240476539Y-119864436D01*
X240265241Y-120373298D01*
X240264760Y-120924285D01*
X240073001Y-120924285D01*
X239895564Y-120746539D01*
X239386702Y-120535241D01*
X238835715Y-120534760D01*
X238326485Y-120745169D01*
X237936539Y-121134436D01*
X237725241Y-121643298D01*
X237724760Y-122194285D01*
X233653440Y-122194285D01*
X233653440Y-121070000D01*
X233609162Y-120834683D01*
X233470090Y-120618559D01*
X233257890Y-120473569D01*
X233006000Y-120422560D01*
X231306000Y-120422560D01*
X231070683Y-120466838D01*
X230854559Y-120605910D01*
X230709569Y-120818110D01*
X230658560Y-121070000D01*
X230658560Y-122770000D01*
X230702838Y-123005317D01*
X230841910Y-123221441D01*
X231054110Y-123366431D01*
X231121541Y-123380086D01*
X231076853Y-123409946D01*
X230754946Y-123891715D01*
X230641907Y-124460000D01*
X176627000Y-124460000D01*
X176627000Y-122194285D01*
X188876760Y-122194285D01*
X189087169Y-122703515D01*
X189476436Y-123093461D01*
X189985298Y-123304759D01*
X190536285Y-123305240D01*
X191045515Y-123094831D01*
X191435461Y-122705564D01*
X191646759Y-122196702D01*
X191647240Y-121645715D01*
X191436831Y-121136485D01*
X191047564Y-120746539D01*
X190538702Y-120535241D01*
X189987715Y-120534760D01*
X189478485Y-120745169D01*
X189088539Y-121134436D01*
X188877241Y-121643298D01*
X188876760Y-122194285D01*
X176627000Y-122194285D01*
X176627000Y-115837177D01*
X181451574Y-115837177D01*
X181825298Y-116741657D01*
X182516703Y-117434270D01*
X183420529Y-117809572D01*
X184399177Y-117810426D01*
X185303657Y-117436702D01*
X185996270Y-116745297D01*
X186268373Y-116090000D01*
X188864560Y-116090000D01*
X188864560Y-117590000D01*
X188908838Y-117825317D01*
X189047910Y-118041441D01*
X189260110Y-118186431D01*
X189512000Y-118237440D01*
X191012000Y-118237440D01*
X191247317Y-118193162D01*
X191417022Y-118083960D01*
X191416760Y-118384285D01*
X191627169Y-118893515D01*
X192016436Y-119283461D01*
X192248870Y-119379976D01*
X192018485Y-119475169D01*
X191628539Y-119864436D01*
X191417241Y-120373298D01*
X191416760Y-120924285D01*
X191627169Y-121433515D01*
X192016436Y-121823461D01*
X192525298Y-122034759D01*
X193076285Y-122035240D01*
X193585515Y-121824831D01*
X193975461Y-121435564D01*
X194148018Y-121020000D01*
X211812560Y-121020000D01*
X211812560Y-122820000D01*
X211856838Y-123055317D01*
X211995910Y-123271441D01*
X212208110Y-123416431D01*
X212460000Y-123467440D01*
X214260000Y-123467440D01*
X214495317Y-123423162D01*
X214711441Y-123284090D01*
X214856431Y-123071890D01*
X214907440Y-122820000D01*
X214907440Y-121920000D01*
X216874928Y-121920000D01*
X216991773Y-122507419D01*
X217324519Y-123005409D01*
X217822509Y-123338155D01*
X218409928Y-123455000D01*
X218470072Y-123455000D01*
X219057491Y-123338155D01*
X219555481Y-123005409D01*
X219888227Y-122507419D01*
X220005072Y-121920000D01*
X219888227Y-121332581D01*
X219555481Y-120834591D01*
X219057491Y-120501845D01*
X218470072Y-120385000D01*
X218409928Y-120385000D01*
X217822509Y-120501845D01*
X217324519Y-120834591D01*
X216991773Y-121332581D01*
X216874928Y-121920000D01*
X214907440Y-121920000D01*
X214907440Y-121020000D01*
X214863162Y-120784683D01*
X214724090Y-120568559D01*
X214511890Y-120423569D01*
X214260000Y-120372560D01*
X212460000Y-120372560D01*
X212224683Y-120416838D01*
X212008559Y-120555910D01*
X211863569Y-120768110D01*
X211812560Y-121020000D01*
X194148018Y-121020000D01*
X194186759Y-120926702D01*
X194187240Y-120375715D01*
X193976831Y-119866485D01*
X193587564Y-119476539D01*
X193355130Y-119380024D01*
X193585515Y-119284831D01*
X193975461Y-118895564D01*
X194186759Y-118386702D01*
X194187240Y-117835715D01*
X193976831Y-117326485D01*
X193587564Y-116936539D01*
X193078702Y-116725241D01*
X192527715Y-116724760D01*
X192018485Y-116935169D01*
X191659440Y-117293589D01*
X191659440Y-116586000D01*
X204276887Y-116586000D01*
X204386120Y-117135151D01*
X204697189Y-117600698D01*
X205162736Y-117911767D01*
X205711887Y-118021000D01*
X205768113Y-118021000D01*
X206317264Y-117911767D01*
X206782811Y-117600698D01*
X207093880Y-117135151D01*
X207203113Y-116586000D01*
X207093880Y-116036849D01*
X206926268Y-115786000D01*
X211912560Y-115786000D01*
X211912560Y-117386000D01*
X211956838Y-117621317D01*
X212095910Y-117837441D01*
X212308110Y-117982431D01*
X212560000Y-118033440D01*
X214160000Y-118033440D01*
X214395317Y-117989162D01*
X214611441Y-117850090D01*
X214756431Y-117637890D01*
X214807440Y-117386000D01*
X214807440Y-115786000D01*
X216992560Y-115786000D01*
X216992560Y-117386000D01*
X217036838Y-117621317D01*
X217175910Y-117837441D01*
X217388110Y-117982431D01*
X217640000Y-118033440D01*
X219240000Y-118033440D01*
X219475317Y-117989162D01*
X219691441Y-117850090D01*
X219836431Y-117637890D01*
X219887440Y-117386000D01*
X219887440Y-115786000D01*
X219843162Y-115550683D01*
X219704090Y-115334559D01*
X219491890Y-115189569D01*
X219240000Y-115138560D01*
X217640000Y-115138560D01*
X217404683Y-115182838D01*
X217188559Y-115321910D01*
X217043569Y-115534110D01*
X216992560Y-115786000D01*
X214807440Y-115786000D01*
X214763162Y-115550683D01*
X214624090Y-115334559D01*
X214411890Y-115189569D01*
X214160000Y-115138560D01*
X212560000Y-115138560D01*
X212324683Y-115182838D01*
X212108559Y-115321910D01*
X211963569Y-115534110D01*
X211912560Y-115786000D01*
X206926268Y-115786000D01*
X206782811Y-115571302D01*
X206317264Y-115260233D01*
X205768113Y-115151000D01*
X205711887Y-115151000D01*
X205162736Y-115260233D01*
X204697189Y-115571302D01*
X204386120Y-116036849D01*
X204276887Y-116586000D01*
X191659440Y-116586000D01*
X191659440Y-116090000D01*
X191615162Y-115854683D01*
X191476090Y-115638559D01*
X191263890Y-115493569D01*
X191012000Y-115442560D01*
X189512000Y-115442560D01*
X189276683Y-115486838D01*
X189060559Y-115625910D01*
X188915569Y-115838110D01*
X188864560Y-116090000D01*
X186268373Y-116090000D01*
X186371572Y-115841471D01*
X186372426Y-114862823D01*
X185998702Y-113958343D01*
X185307297Y-113265730D01*
X184403471Y-112890428D01*
X183424823Y-112889574D01*
X182520343Y-113263298D01*
X181827730Y-113954703D01*
X181452428Y-114858529D01*
X181451574Y-115837177D01*
X176627000Y-115837177D01*
X176627000Y-93290167D01*
X186340750Y-93290167D01*
X186560275Y-93821457D01*
X186966405Y-94228297D01*
X187497311Y-94448748D01*
X188072167Y-94449250D01*
X188603457Y-94229725D01*
X189010297Y-93823595D01*
X189230748Y-93292689D01*
X189231250Y-92717833D01*
X189011725Y-92186543D01*
X188605595Y-91779703D01*
X188074689Y-91559252D01*
X187499833Y-91558750D01*
X186968543Y-91778275D01*
X186561703Y-92184405D01*
X186341252Y-92715311D01*
X186340750Y-93290167D01*
X176627000Y-93290167D01*
X176627000Y-90170000D01*
X178063907Y-90170000D01*
X178176946Y-90738285D01*
X178498853Y-91220054D01*
X178980622Y-91541961D01*
X179548907Y-91655000D01*
X179607093Y-91655000D01*
X180175378Y-91541961D01*
X180657147Y-91220054D01*
X180979054Y-90738285D01*
X181092093Y-90170000D01*
X180979054Y-89601715D01*
X180657147Y-89119946D01*
X180175378Y-88798039D01*
X179607093Y-88685000D01*
X179548907Y-88685000D01*
X178980622Y-88798039D01*
X178498853Y-89119946D01*
X178176946Y-89601715D01*
X178063907Y-90170000D01*
X176627000Y-90170000D01*
X176627000Y-86838775D01*
X182442803Y-86838775D01*
X182615233Y-87256086D01*
X182934235Y-87575645D01*
X183351244Y-87748803D01*
X183802775Y-87749197D01*
X184220086Y-87576767D01*
X184297989Y-87499000D01*
X191901000Y-87499000D01*
X191901000Y-89345700D01*
X191561703Y-89684405D01*
X191341252Y-90215311D01*
X191340750Y-90790167D01*
X191560275Y-91321457D01*
X191966405Y-91728297D01*
X192497311Y-91948748D01*
X192979589Y-91949169D01*
X195128208Y-94097787D01*
X195128210Y-94097790D01*
X195415325Y-94289633D01*
X195471516Y-94300810D01*
X195754000Y-94357001D01*
X195754005Y-94357000D01*
X208411000Y-94357000D01*
X208411000Y-94815906D01*
X208252756Y-94750197D01*
X207801225Y-94749803D01*
X207383914Y-94922233D01*
X207064355Y-95241235D01*
X206891197Y-95658244D01*
X206890803Y-96109775D01*
X207063233Y-96527086D01*
X207191000Y-96655076D01*
X207191000Y-103266132D01*
X204536205Y-105920927D01*
X204514090Y-105886559D01*
X204301890Y-105741569D01*
X204234459Y-105727914D01*
X204279147Y-105698054D01*
X204601054Y-105216285D01*
X204714093Y-104648000D01*
X204601054Y-104079715D01*
X204279147Y-103597946D01*
X203949974Y-103378000D01*
X204279147Y-103158054D01*
X204601054Y-102676285D01*
X204714093Y-102108000D01*
X204601054Y-101539715D01*
X204279147Y-101057946D01*
X203949974Y-100838000D01*
X204279147Y-100618054D01*
X204601054Y-100136285D01*
X204714093Y-99568000D01*
X204601054Y-98999715D01*
X204279147Y-98517946D01*
X203949974Y-98298000D01*
X204279147Y-98078054D01*
X204601054Y-97596285D01*
X204714093Y-97028000D01*
X204601054Y-96459715D01*
X204279147Y-95977946D01*
X203797378Y-95656039D01*
X203229093Y-95543000D01*
X203170907Y-95543000D01*
X202602622Y-95656039D01*
X202120853Y-95977946D01*
X201798946Y-96459715D01*
X201685907Y-97028000D01*
X201798946Y-97596285D01*
X202120853Y-98078054D01*
X202450026Y-98298000D01*
X202120853Y-98517946D01*
X201798946Y-98999715D01*
X201685907Y-99568000D01*
X201798946Y-100136285D01*
X202120853Y-100618054D01*
X202450026Y-100838000D01*
X202120853Y-101057946D01*
X201798946Y-101539715D01*
X201685907Y-102108000D01*
X201798946Y-102676285D01*
X202120853Y-103158054D01*
X202450026Y-103378000D01*
X202120853Y-103597946D01*
X201798946Y-104079715D01*
X201685907Y-104648000D01*
X201798946Y-105216285D01*
X202120853Y-105698054D01*
X202162452Y-105725850D01*
X202114683Y-105734838D01*
X201898559Y-105873910D01*
X201753569Y-106086110D01*
X201742159Y-106142454D01*
X201739147Y-106137946D01*
X201257378Y-105816039D01*
X200689093Y-105703000D01*
X200630907Y-105703000D01*
X200062622Y-105816039D01*
X199580853Y-106137946D01*
X199258946Y-106619715D01*
X199145907Y-107188000D01*
X199258946Y-107756285D01*
X199580853Y-108238054D01*
X200062622Y-108559961D01*
X200630907Y-108673000D01*
X200689093Y-108673000D01*
X201257378Y-108559961D01*
X201739147Y-108238054D01*
X201739971Y-108236821D01*
X201746838Y-108273317D01*
X201885910Y-108489441D01*
X202098110Y-108634431D01*
X202350000Y-108685440D01*
X204050000Y-108685440D01*
X204285317Y-108641162D01*
X204501441Y-108502090D01*
X204646431Y-108289890D01*
X204697440Y-108038000D01*
X204697440Y-107973781D01*
X204769541Y-107959439D01*
X205040434Y-107778434D01*
X208411000Y-104407868D01*
X208411000Y-106709995D01*
X208410999Y-106710000D01*
X208444490Y-106878367D01*
X208478367Y-107048675D01*
X208650164Y-107305789D01*
X208670210Y-107335790D01*
X210164208Y-108829787D01*
X210164210Y-108829790D01*
X210451325Y-109021633D01*
X210507516Y-109032810D01*
X210653443Y-109061837D01*
X210686838Y-109239317D01*
X210825910Y-109455441D01*
X211038110Y-109600431D01*
X211205000Y-109634227D01*
X211205000Y-112907000D01*
X200518579Y-112907000D01*
X194681790Y-107070210D01*
X194601308Y-107016434D01*
X194394675Y-106878367D01*
X194338484Y-106867190D01*
X194056000Y-106810999D01*
X194055995Y-106811000D01*
X186902276Y-106811000D01*
X186825765Y-106734355D01*
X186408756Y-106561197D01*
X185957225Y-106560803D01*
X185539914Y-106733233D01*
X185220355Y-107052235D01*
X185047197Y-107469244D01*
X185046803Y-107920775D01*
X185219233Y-108338086D01*
X185538235Y-108657645D01*
X185955244Y-108830803D01*
X186406775Y-108831197D01*
X186824086Y-108658767D01*
X186901989Y-108581000D01*
X193689420Y-108581000D01*
X199526208Y-114417787D01*
X199526210Y-114417790D01*
X199813325Y-114609633D01*
X199869516Y-114620810D01*
X200152000Y-114677001D01*
X200152005Y-114677000D01*
X219343420Y-114677000D01*
X221878208Y-117211787D01*
X221878210Y-117211790D01*
X222165325Y-117403633D01*
X222221516Y-117414810D01*
X222504000Y-117471001D01*
X222504005Y-117471000D01*
X224930527Y-117471000D01*
X225017189Y-117600698D01*
X225482736Y-117911767D01*
X226031887Y-118021000D01*
X226088113Y-118021000D01*
X226637264Y-117911767D01*
X227102811Y-117600698D01*
X227189473Y-117471000D01*
X231393995Y-117471000D01*
X231394000Y-117471001D01*
X231676484Y-117414810D01*
X231732675Y-117403633D01*
X232019790Y-117211790D01*
X233394402Y-115837177D01*
X245539574Y-115837177D01*
X245913298Y-116741657D01*
X246604703Y-117434270D01*
X247508529Y-117809572D01*
X248487177Y-117810426D01*
X249391657Y-117436702D01*
X250084270Y-116745297D01*
X250459572Y-115841471D01*
X250460426Y-114862823D01*
X250086702Y-113958343D01*
X249395297Y-113265730D01*
X248491471Y-112890428D01*
X247512823Y-112889574D01*
X246608343Y-113263298D01*
X245915730Y-113954703D01*
X245540428Y-114858529D01*
X245539574Y-115837177D01*
X233394402Y-115837177D01*
X237856579Y-111375000D01*
X247649995Y-111375000D01*
X247650000Y-111375001D01*
X247941051Y-111317106D01*
X247988675Y-111307633D01*
X248275790Y-111115790D01*
X248275791Y-111115789D01*
X252085787Y-107305792D01*
X252085790Y-107305790D01*
X252277633Y-107018675D01*
X252307513Y-106868459D01*
X252345001Y-106680000D01*
X252345000Y-106679995D01*
X252345000Y-86360000D01*
X252277633Y-86021325D01*
X252085790Y-85734210D01*
X252085787Y-85734208D01*
X249545790Y-83194210D01*
X249258675Y-83002367D01*
X249202484Y-82991190D01*
X248920000Y-82934999D01*
X248919995Y-82935000D01*
X237744005Y-82935000D01*
X237744000Y-82934999D01*
X237743995Y-82935000D01*
X232025000Y-82935000D01*
X232025000Y-78978005D01*
X232025001Y-78978000D01*
X231957633Y-78639326D01*
X231957633Y-78639325D01*
X231765790Y-78352210D01*
X231765787Y-78352208D01*
X226029467Y-72615887D01*
X226911000Y-72615887D01*
X226911000Y-72672113D01*
X227020233Y-73221264D01*
X227331302Y-73686811D01*
X227796849Y-73997880D01*
X228346000Y-74107113D01*
X228895151Y-73997880D01*
X229360698Y-73686811D01*
X229616000Y-73304725D01*
X229871302Y-73686811D01*
X230336849Y-73997880D01*
X230886000Y-74107113D01*
X231435151Y-73997880D01*
X231900698Y-73686811D01*
X232156000Y-73304725D01*
X232411302Y-73686811D01*
X232876849Y-73997880D01*
X233426000Y-74107113D01*
X233975151Y-73997880D01*
X234440698Y-73686811D01*
X234696000Y-73304725D01*
X234951302Y-73686811D01*
X235416849Y-73997880D01*
X235966000Y-74107113D01*
X236515151Y-73997880D01*
X236980698Y-73686811D01*
X237236000Y-73304725D01*
X237491302Y-73686811D01*
X237956849Y-73997880D01*
X238506000Y-74107113D01*
X239055151Y-73997880D01*
X239520698Y-73686811D01*
X239776000Y-73304725D01*
X240031302Y-73686811D01*
X240496849Y-73997880D01*
X241046000Y-74107113D01*
X241595151Y-73997880D01*
X242060698Y-73686811D01*
X242316000Y-73304725D01*
X242571302Y-73686811D01*
X243036849Y-73997880D01*
X243586000Y-74107113D01*
X244135151Y-73997880D01*
X244600698Y-73686811D01*
X244697101Y-73542535D01*
X244722838Y-73679317D01*
X244861910Y-73895441D01*
X245074110Y-74040431D01*
X245326000Y-74091440D01*
X246926000Y-74091440D01*
X247161317Y-74047162D01*
X247377441Y-73908090D01*
X247522431Y-73695890D01*
X247573440Y-73444000D01*
X247573440Y-71844000D01*
X247529162Y-71608683D01*
X247390090Y-71392559D01*
X247177890Y-71247569D01*
X246926000Y-71196560D01*
X245326000Y-71196560D01*
X245090683Y-71240838D01*
X244874559Y-71379910D01*
X244729569Y-71592110D01*
X244698185Y-71747089D01*
X244600698Y-71601189D01*
X244135151Y-71290120D01*
X243586000Y-71180887D01*
X243036849Y-71290120D01*
X242571302Y-71601189D01*
X242316000Y-71983275D01*
X242060698Y-71601189D01*
X241595151Y-71290120D01*
X241046000Y-71180887D01*
X240496849Y-71290120D01*
X240031302Y-71601189D01*
X239776000Y-71983275D01*
X239520698Y-71601189D01*
X239055151Y-71290120D01*
X238506000Y-71180887D01*
X237956849Y-71290120D01*
X237491302Y-71601189D01*
X237236000Y-71983275D01*
X236980698Y-71601189D01*
X236515151Y-71290120D01*
X235966000Y-71180887D01*
X235416849Y-71290120D01*
X234951302Y-71601189D01*
X234696000Y-71983275D01*
X234440698Y-71601189D01*
X233975151Y-71290120D01*
X233426000Y-71180887D01*
X232876849Y-71290120D01*
X232411302Y-71601189D01*
X232156000Y-71983275D01*
X231900698Y-71601189D01*
X231435151Y-71290120D01*
X230886000Y-71180887D01*
X230336849Y-71290120D01*
X229871302Y-71601189D01*
X229616000Y-71983275D01*
X229360698Y-71601189D01*
X228895151Y-71290120D01*
X228346000Y-71180887D01*
X227796849Y-71290120D01*
X227331302Y-71601189D01*
X227020233Y-72066736D01*
X226911000Y-72615887D01*
X226029467Y-72615887D01*
X224479790Y-71066210D01*
X224452888Y-71048235D01*
X224192675Y-70874367D01*
X224136484Y-70863190D01*
X223854000Y-70806999D01*
X223853995Y-70807000D01*
X223224276Y-70807000D01*
X223147765Y-70730355D01*
X222730756Y-70557197D01*
X222279225Y-70556803D01*
X221861914Y-70729233D01*
X221542355Y-71048235D01*
X221369197Y-71465244D01*
X221368803Y-71916775D01*
X221541233Y-72334086D01*
X221860235Y-72653645D01*
X222277244Y-72826803D01*
X222728775Y-72827197D01*
X223146086Y-72654767D01*
X223223989Y-72577000D01*
X223487420Y-72577000D01*
X230255000Y-79344579D01*
X230255000Y-82935000D01*
X229840005Y-82935000D01*
X229840000Y-82934999D01*
X229508197Y-83001000D01*
X229501325Y-83002367D01*
X229214210Y-83194210D01*
X229214208Y-83194213D01*
X228609210Y-83799210D01*
X228417367Y-84086325D01*
X228417367Y-84086326D01*
X228349999Y-84425000D01*
X228350000Y-84425005D01*
X228350000Y-85004724D01*
X228273355Y-85081235D01*
X228100197Y-85498244D01*
X228099803Y-85949775D01*
X228272233Y-86367086D01*
X228591235Y-86686645D01*
X229008244Y-86859803D01*
X229459775Y-86860197D01*
X229601116Y-86801796D01*
X229416355Y-86986235D01*
X229243197Y-87403244D01*
X229242803Y-87854775D01*
X229415233Y-88272086D01*
X229543000Y-88400076D01*
X229543000Y-95504000D01*
X229578540Y-95682672D01*
X228301434Y-94405566D01*
X228224131Y-94353914D01*
X228030541Y-94224561D01*
X227711000Y-94161000D01*
X226830189Y-94161000D01*
X226703765Y-94034355D01*
X226286756Y-93861197D01*
X225835225Y-93860803D01*
X225417914Y-94033233D01*
X225098355Y-94352235D01*
X224925197Y-94769244D01*
X224924803Y-95220775D01*
X225097233Y-95638086D01*
X225416235Y-95957645D01*
X225833244Y-96130803D01*
X226284775Y-96131197D01*
X226702086Y-95958767D01*
X226830076Y-95831000D01*
X227365132Y-95831000D01*
X228527000Y-96992868D01*
X228527000Y-97663000D01*
X228590561Y-97982541D01*
X228605568Y-98005000D01*
X228771566Y-98253434D01*
X229914566Y-99396434D01*
X230185459Y-99577439D01*
X230505000Y-99641000D01*
X231639811Y-99641000D01*
X231766235Y-99767645D01*
X232183244Y-99940803D01*
X232634775Y-99941197D01*
X233052086Y-99768767D01*
X233371645Y-99449765D01*
X233544803Y-99032756D01*
X233545197Y-98581225D01*
X233372767Y-98163914D01*
X233053765Y-97844355D01*
X232636756Y-97671197D01*
X232185225Y-97670803D01*
X231767914Y-97843233D01*
X231639924Y-97971000D01*
X230850868Y-97971000D01*
X230197000Y-97317132D01*
X230197000Y-96647000D01*
X230161460Y-96468328D01*
X230549566Y-96856434D01*
X230820460Y-97037440D01*
X231140000Y-97101000D01*
X231639811Y-97101000D01*
X231766235Y-97227645D01*
X232183244Y-97400803D01*
X232634775Y-97401197D01*
X233052086Y-97228767D01*
X233371645Y-96909765D01*
X233544803Y-96492756D01*
X233545197Y-96041225D01*
X233372767Y-95623914D01*
X233053765Y-95304355D01*
X232636756Y-95131197D01*
X232185225Y-95130803D01*
X231767914Y-95303233D01*
X231639924Y-95431000D01*
X231485868Y-95431000D01*
X231213000Y-95158132D01*
X231213000Y-88400189D01*
X231339645Y-88273765D01*
X231512803Y-87856756D01*
X231513197Y-87405225D01*
X231340767Y-86987914D01*
X231021765Y-86668355D01*
X230604756Y-86495197D01*
X230153225Y-86494803D01*
X230011884Y-86553204D01*
X230196645Y-86368765D01*
X230369803Y-85951756D01*
X230370197Y-85500225D01*
X230197767Y-85082914D01*
X230120000Y-85005011D01*
X230120000Y-84791580D01*
X230206579Y-84705000D01*
X236925000Y-84705000D01*
X236925000Y-94275724D01*
X236848355Y-94352235D01*
X236675197Y-94769244D01*
X236674803Y-95220775D01*
X236847233Y-95638086D01*
X237166235Y-95957645D01*
X237583244Y-96130803D01*
X238034775Y-96131197D01*
X238452086Y-95958767D01*
X238771645Y-95639765D01*
X238944803Y-95222756D01*
X238945197Y-94771225D01*
X238772767Y-94353914D01*
X238695000Y-94276011D01*
X238695000Y-88900000D01*
X245627907Y-88900000D01*
X245740946Y-89468285D01*
X246062853Y-89950054D01*
X246392026Y-90170000D01*
X246062853Y-90389946D01*
X245740946Y-90871715D01*
X245627907Y-91440000D01*
X245740946Y-92008285D01*
X246062853Y-92490054D01*
X246392026Y-92710000D01*
X246062853Y-92929946D01*
X245740946Y-93411715D01*
X245627907Y-93980000D01*
X245740946Y-94548285D01*
X246062853Y-95030054D01*
X246392026Y-95250000D01*
X246062853Y-95469946D01*
X245740946Y-95951715D01*
X245627907Y-96520000D01*
X245740946Y-97088285D01*
X246062853Y-97570054D01*
X246104452Y-97597850D01*
X246056683Y-97606838D01*
X245840559Y-97745910D01*
X245695569Y-97958110D01*
X245644560Y-98210000D01*
X245644560Y-99910000D01*
X245688838Y-100145317D01*
X245827910Y-100361441D01*
X246040110Y-100506431D01*
X246292000Y-100557440D01*
X247992000Y-100557440D01*
X248227317Y-100513162D01*
X248443441Y-100374090D01*
X248588431Y-100161890D01*
X248639440Y-99910000D01*
X248639440Y-98210000D01*
X248595162Y-97974683D01*
X248456090Y-97758559D01*
X248243890Y-97613569D01*
X248176459Y-97599914D01*
X248221147Y-97570054D01*
X248543054Y-97088285D01*
X248656093Y-96520000D01*
X248543054Y-95951715D01*
X248221147Y-95469946D01*
X247891974Y-95250000D01*
X248221147Y-95030054D01*
X248543054Y-94548285D01*
X248656093Y-93980000D01*
X248543054Y-93411715D01*
X248221147Y-92929946D01*
X247891974Y-92710000D01*
X248221147Y-92490054D01*
X248543054Y-92008285D01*
X248656093Y-91440000D01*
X248543054Y-90871715D01*
X248221147Y-90389946D01*
X247891974Y-90170000D01*
X248221147Y-89950054D01*
X248543054Y-89468285D01*
X248656093Y-88900000D01*
X248543054Y-88331715D01*
X248221147Y-87849946D01*
X247739378Y-87528039D01*
X247171093Y-87415000D01*
X247112907Y-87415000D01*
X246544622Y-87528039D01*
X246062853Y-87849946D01*
X245740946Y-88331715D01*
X245627907Y-88900000D01*
X238695000Y-88900000D01*
X238695000Y-84705000D01*
X248553420Y-84705000D01*
X250575000Y-86726579D01*
X250575000Y-106313421D01*
X247283420Y-109605000D01*
X237490005Y-109605000D01*
X237490000Y-109604999D01*
X237207516Y-109661190D01*
X237151325Y-109672367D01*
X236864210Y-109864210D01*
X236864208Y-109864213D01*
X231027420Y-115701000D01*
X227189473Y-115701000D01*
X227102811Y-115571302D01*
X226637264Y-115260233D01*
X226088113Y-115151000D01*
X226031887Y-115151000D01*
X225482736Y-115260233D01*
X225017189Y-115571302D01*
X224930527Y-115701000D01*
X222870579Y-115701000D01*
X220335790Y-113166210D01*
X220215197Y-113085633D01*
X220128636Y-113027795D01*
X221630716Y-113027795D01*
X221879106Y-113628943D01*
X222338637Y-114089278D01*
X222939352Y-114338716D01*
X223589795Y-114339284D01*
X224190943Y-114090894D01*
X224651278Y-113631363D01*
X224900716Y-113030648D01*
X224900718Y-113027795D01*
X228130716Y-113027795D01*
X228379106Y-113628943D01*
X228838637Y-114089278D01*
X229439352Y-114338716D01*
X230089795Y-114339284D01*
X230690943Y-114090894D01*
X231151278Y-113631363D01*
X231400716Y-113030648D01*
X231401284Y-112380205D01*
X231152894Y-111779057D01*
X230693363Y-111318722D01*
X230092648Y-111069284D01*
X229442205Y-111068716D01*
X228841057Y-111317106D01*
X228380722Y-111776637D01*
X228131284Y-112377352D01*
X228130716Y-113027795D01*
X224900718Y-113027795D01*
X224901284Y-112380205D01*
X224652894Y-111779057D01*
X224193363Y-111318722D01*
X223592648Y-111069284D01*
X222942205Y-111068716D01*
X222341057Y-111317106D01*
X221880722Y-111776637D01*
X221631284Y-112377352D01*
X221630716Y-113027795D01*
X220128636Y-113027795D01*
X220048675Y-112974367D01*
X219992484Y-112963190D01*
X219710000Y-112906999D01*
X219709995Y-112907000D01*
X212975000Y-112907000D01*
X212975000Y-109635446D01*
X213125317Y-109607162D01*
X213341441Y-109468090D01*
X213486431Y-109255890D01*
X213537440Y-109004000D01*
X213537440Y-107404000D01*
X213510533Y-107261000D01*
X217586132Y-107261000D01*
X218293714Y-107968582D01*
X218246887Y-108204000D01*
X218356120Y-108753151D01*
X218667189Y-109218698D01*
X219132736Y-109529767D01*
X219681887Y-109639000D01*
X219738113Y-109639000D01*
X220287264Y-109529767D01*
X220752811Y-109218698D01*
X221063880Y-108753151D01*
X221108706Y-108527795D01*
X221630716Y-108527795D01*
X221879106Y-109128943D01*
X222338637Y-109589278D01*
X222939352Y-109838716D01*
X223589795Y-109839284D01*
X224190943Y-109590894D01*
X224651278Y-109131363D01*
X224900716Y-108530648D01*
X224900718Y-108527795D01*
X228130716Y-108527795D01*
X228379106Y-109128943D01*
X228838637Y-109589278D01*
X229439352Y-109838716D01*
X230089795Y-109839284D01*
X230690943Y-109590894D01*
X231151278Y-109131363D01*
X231400716Y-108530648D01*
X231401284Y-107880205D01*
X231152894Y-107279057D01*
X230693363Y-106818722D01*
X230092648Y-106569284D01*
X229442205Y-106568716D01*
X228841057Y-106817106D01*
X228380722Y-107276637D01*
X228131284Y-107877352D01*
X228130716Y-108527795D01*
X224900718Y-108527795D01*
X224901284Y-107880205D01*
X224652894Y-107279057D01*
X224193363Y-106818722D01*
X223592648Y-106569284D01*
X222942205Y-106568716D01*
X222341057Y-106817106D01*
X221880722Y-107276637D01*
X221631284Y-107877352D01*
X221630716Y-108527795D01*
X221108706Y-108527795D01*
X221173113Y-108204000D01*
X221063880Y-107654849D01*
X220752811Y-107189302D01*
X220287264Y-106878233D01*
X219738113Y-106769000D01*
X219681887Y-106769000D01*
X219493367Y-106806499D01*
X218522434Y-105835566D01*
X218461721Y-105794999D01*
X218251541Y-105654561D01*
X217932000Y-105591000D01*
X212857868Y-105591000D01*
X211954910Y-104688042D01*
X211955197Y-104359225D01*
X211852594Y-104110907D01*
X236005000Y-104110907D01*
X236005000Y-104169093D01*
X236118039Y-104737378D01*
X236439946Y-105219147D01*
X236921715Y-105541054D01*
X237490000Y-105654093D01*
X238058285Y-105541054D01*
X238540054Y-105219147D01*
X238567850Y-105177548D01*
X238576838Y-105225317D01*
X238715910Y-105441441D01*
X238928110Y-105586431D01*
X239180000Y-105637440D01*
X240880000Y-105637440D01*
X241115317Y-105593162D01*
X241331441Y-105454090D01*
X241476431Y-105241890D01*
X241527440Y-104990000D01*
X241527440Y-103290000D01*
X241483162Y-103054683D01*
X241344090Y-102838559D01*
X241131890Y-102693569D01*
X240880000Y-102642560D01*
X239180000Y-102642560D01*
X238944683Y-102686838D01*
X238728559Y-102825910D01*
X238583569Y-103038110D01*
X238569914Y-103105541D01*
X238540054Y-103060853D01*
X238058285Y-102738946D01*
X237490000Y-102625907D01*
X236921715Y-102738946D01*
X236439946Y-103060853D01*
X236118039Y-103542622D01*
X236005000Y-104110907D01*
X211852594Y-104110907D01*
X211782767Y-103941914D01*
X211463765Y-103622355D01*
X211046756Y-103449197D01*
X210595225Y-103448803D01*
X210181000Y-103619958D01*
X210181000Y-101547624D01*
X210593244Y-101718803D01*
X211044775Y-101719197D01*
X211462086Y-101546767D01*
X211781645Y-101227765D01*
X211935067Y-100858285D01*
X218578760Y-100858285D01*
X218789169Y-101367515D01*
X219178436Y-101757461D01*
X219687298Y-101968759D01*
X220238285Y-101969240D01*
X220747515Y-101758831D01*
X221137461Y-101369564D01*
X221348759Y-100860702D01*
X221348761Y-100858285D01*
X223458760Y-100858285D01*
X223669169Y-101367515D01*
X224058436Y-101757461D01*
X224567298Y-101968759D01*
X225118285Y-101969240D01*
X225627515Y-101758831D01*
X226017461Y-101369564D01*
X226228759Y-100860702D01*
X226229240Y-100309715D01*
X226018831Y-99800485D01*
X225629564Y-99410539D01*
X225120702Y-99199241D01*
X224569715Y-99198760D01*
X224060485Y-99409169D01*
X223670539Y-99798436D01*
X223459241Y-100307298D01*
X223458760Y-100858285D01*
X221348761Y-100858285D01*
X221349240Y-100309715D01*
X221138831Y-99800485D01*
X220749564Y-99410539D01*
X220240702Y-99199241D01*
X219689715Y-99198760D01*
X219180485Y-99409169D01*
X218790539Y-99798436D01*
X218579241Y-100307298D01*
X218578760Y-100858285D01*
X211935067Y-100858285D01*
X211954803Y-100810756D01*
X211955197Y-100359225D01*
X211782767Y-99941914D01*
X211463765Y-99622355D01*
X211046756Y-99449197D01*
X210595225Y-99448803D01*
X210181000Y-99619958D01*
X210181000Y-93838580D01*
X210683787Y-93335792D01*
X210683790Y-93335790D01*
X210875633Y-93048675D01*
X210915906Y-92846211D01*
X210943001Y-92710000D01*
X210943000Y-92709995D01*
X210943000Y-87588276D01*
X211019645Y-87511765D01*
X211192803Y-87094756D01*
X211193197Y-86643225D01*
X211020767Y-86225914D01*
X210701765Y-85906355D01*
X210284756Y-85733197D01*
X209833225Y-85732803D01*
X209415914Y-85905233D01*
X209096355Y-86224235D01*
X208923197Y-86641244D01*
X208922803Y-87092775D01*
X209095233Y-87510086D01*
X209173000Y-87587989D01*
X209173000Y-92343421D01*
X208929420Y-92587000D01*
X196120579Y-92587000D01*
X194230831Y-90697252D01*
X194231250Y-90217833D01*
X194011725Y-89686543D01*
X193671000Y-89345222D01*
X193671000Y-84685440D01*
X193786000Y-84685440D01*
X194021317Y-84641162D01*
X194237441Y-84502090D01*
X194382431Y-84289890D01*
X194433440Y-84038000D01*
X194433440Y-82038000D01*
X194389162Y-81802683D01*
X194250090Y-81586559D01*
X194037890Y-81441569D01*
X193786000Y-81390560D01*
X191786000Y-81390560D01*
X191550683Y-81434838D01*
X191334559Y-81573910D01*
X191189569Y-81786110D01*
X191138560Y-82038000D01*
X191138560Y-84038000D01*
X191182838Y-84273317D01*
X191321910Y-84489441D01*
X191534110Y-84634431D01*
X191786000Y-84685440D01*
X191901000Y-84685440D01*
X191901000Y-85729000D01*
X184298276Y-85729000D01*
X184221765Y-85652355D01*
X183804756Y-85479197D01*
X183353225Y-85478803D01*
X182935914Y-85651233D01*
X182616355Y-85970235D01*
X182443197Y-86387244D01*
X182442803Y-86838775D01*
X176627000Y-86838775D01*
X176627000Y-75761795D01*
X191150716Y-75761795D01*
X191399106Y-76362943D01*
X191858637Y-76823278D01*
X192459352Y-77072716D01*
X193109795Y-77073284D01*
X193710943Y-76824894D01*
X194171278Y-76365363D01*
X194420716Y-75764648D01*
X194421284Y-75114205D01*
X194172894Y-74513057D01*
X193713363Y-74052722D01*
X193112648Y-73803284D01*
X192462205Y-73802716D01*
X191861057Y-74051106D01*
X191400722Y-74510637D01*
X191151284Y-75111352D01*
X191150716Y-75761795D01*
X176627000Y-75761795D01*
X176627000Y-66528172D01*
X177332538Y-66528172D01*
X177737709Y-67508761D01*
X178487293Y-68259655D01*
X179467173Y-68666536D01*
X180528172Y-68667462D01*
X181508761Y-68262291D01*
X182259655Y-67512707D01*
X182666536Y-66532827D01*
X182667462Y-65471828D01*
X182262291Y-64491239D01*
X181945606Y-64174000D01*
X198400560Y-64174000D01*
X198400560Y-65874000D01*
X198444838Y-66109317D01*
X198583910Y-66325441D01*
X198796110Y-66470431D01*
X199048000Y-66521440D01*
X200748000Y-66521440D01*
X200983317Y-66477162D01*
X201199441Y-66338090D01*
X201344431Y-66125890D01*
X201358086Y-66058459D01*
X201387946Y-66103147D01*
X201869715Y-66425054D01*
X202438000Y-66538093D01*
X203006285Y-66425054D01*
X203488054Y-66103147D01*
X203708000Y-65773974D01*
X203927946Y-66103147D01*
X204409715Y-66425054D01*
X204978000Y-66538093D01*
X205546285Y-66425054D01*
X206028054Y-66103147D01*
X206248000Y-65773974D01*
X206467946Y-66103147D01*
X206949715Y-66425054D01*
X207518000Y-66538093D01*
X208086285Y-66425054D01*
X208568054Y-66103147D01*
X208788000Y-65773974D01*
X209007946Y-66103147D01*
X209489715Y-66425054D01*
X210058000Y-66538093D01*
X210626285Y-66425054D01*
X211108054Y-66103147D01*
X211328000Y-65773974D01*
X211547946Y-66103147D01*
X212029715Y-66425054D01*
X212598000Y-66538093D01*
X213166285Y-66425054D01*
X213648054Y-66103147D01*
X213868000Y-65773974D01*
X214087946Y-66103147D01*
X214569715Y-66425054D01*
X215138000Y-66538093D01*
X215706285Y-66425054D01*
X216188054Y-66103147D01*
X216408000Y-65773974D01*
X216627946Y-66103147D01*
X217109715Y-66425054D01*
X217678000Y-66538093D01*
X217727876Y-66528172D01*
X249332538Y-66528172D01*
X249737709Y-67508761D01*
X250487293Y-68259655D01*
X251467173Y-68666536D01*
X252528172Y-68667462D01*
X253508761Y-68262291D01*
X254259655Y-67512707D01*
X254666536Y-66532827D01*
X254667462Y-65471828D01*
X254262291Y-64491239D01*
X253512707Y-63740345D01*
X252532827Y-63333464D01*
X251471828Y-63332538D01*
X250491239Y-63737709D01*
X249740345Y-64487293D01*
X249333464Y-65467173D01*
X249332538Y-66528172D01*
X217727876Y-66528172D01*
X218246285Y-66425054D01*
X218728054Y-66103147D01*
X219049961Y-65621378D01*
X219163000Y-65053093D01*
X219163000Y-64994907D01*
X219049961Y-64426622D01*
X218728054Y-63944853D01*
X218246285Y-63622946D01*
X217678000Y-63509907D01*
X217109715Y-63622946D01*
X216627946Y-63944853D01*
X216408000Y-64274026D01*
X216188054Y-63944853D01*
X215706285Y-63622946D01*
X215138000Y-63509907D01*
X214569715Y-63622946D01*
X214087946Y-63944853D01*
X213868000Y-64274026D01*
X213648054Y-63944853D01*
X213166285Y-63622946D01*
X212598000Y-63509907D01*
X212029715Y-63622946D01*
X211547946Y-63944853D01*
X211328000Y-64274026D01*
X211108054Y-63944853D01*
X210626285Y-63622946D01*
X210058000Y-63509907D01*
X209489715Y-63622946D01*
X209007946Y-63944853D01*
X208788000Y-64274026D01*
X208568054Y-63944853D01*
X208086285Y-63622946D01*
X207518000Y-63509907D01*
X206949715Y-63622946D01*
X206467946Y-63944853D01*
X206248000Y-64274026D01*
X206028054Y-63944853D01*
X205546285Y-63622946D01*
X204978000Y-63509907D01*
X204409715Y-63622946D01*
X203927946Y-63944853D01*
X203708000Y-64274026D01*
X203488054Y-63944853D01*
X203006285Y-63622946D01*
X202438000Y-63509907D01*
X201869715Y-63622946D01*
X201387946Y-63944853D01*
X201360150Y-63986452D01*
X201351162Y-63938683D01*
X201212090Y-63722559D01*
X200999890Y-63577569D01*
X200748000Y-63526560D01*
X199048000Y-63526560D01*
X198812683Y-63570838D01*
X198596559Y-63709910D01*
X198451569Y-63922110D01*
X198400560Y-64174000D01*
X181945606Y-64174000D01*
X181512707Y-63740345D01*
X180532827Y-63333464D01*
X179471828Y-63332538D01*
X178491239Y-63737709D01*
X177740345Y-64487293D01*
X177333464Y-65467173D01*
X177332538Y-66528172D01*
X176627000Y-66528172D01*
X176627000Y-62627000D01*
X255373000Y-62627000D01*
X255373000Y-136373000D01*
M02*
