M48
;DRILL file {KiCad 4.0.7-e2-6376~58~ubuntu16.04.1} date Wed Jun 27 11:01:50 2018
;FORMAT={-:-/ absolute / inch / decimal}
FMAT,2
INCH,TZ
T1C0.020
T2C0.031
T3C0.035
T4C0.039
T5C0.043
T6C0.120
%
G90
G05
M72
T1
X7.0725Y-3.79
X7.1466Y-3.0488
X7.1725Y-4.24
X7.18Y-3.91
X7.18Y-4.1226
X7.2275Y-3.41
X7.2293Y-3.1588
X7.33Y-4.24
X7.34Y-2.54
X7.46Y-2.54
X7.58Y-2.54
X8.1Y-5.0126
X8.1125Y-3.42
X8.19Y-3.775
X8.27Y-3.42
X8.3Y-3.96
X8.3Y-4.1175
X8.4Y-5.1175
X8.42Y-4.1175
X8.4925Y-4.38
X8.5325Y-4.13
X8.56Y-2.9025
X8.6Y-5.1175
X8.6229Y-3.4344
X8.66Y-2.9025
X8.76Y-2.8225
X8.9Y-3.74
X8.9Y-5.0126
X8.9675Y-4.13
X9.025Y-3.375
X9.07Y-3.45
X9.15Y-3.79
X9.15Y-3.89
X9.17Y-4.1025
X9.1825Y-3.375
X9.3626Y-3.74
X9.3626Y-3.89
X9.515Y-5.2428
T2
X8.1Y-4.59
X8.35Y-4.26
X8.4Y-4.59
X8.6Y-4.59
X8.65Y-4.26
X8.66Y-3.96
X8.8521Y-3.96
X8.9Y-4.59
X8.99Y-2.56
X8.99Y-2.86
X9.09Y-2.56
X9.09Y-2.86
X9.19Y-2.56
X9.19Y-2.86
X9.29Y-2.56
X9.29Y-2.86
X9.39Y-2.56
X9.39Y-2.86
X9.49Y-2.56
X9.49Y-2.86
X9.59Y-2.56
X9.59Y-2.86
X9.69Y-2.56
X9.69Y-2.86
T3
X7.3931Y-3.6616
X7.4906Y-4.6
X7.4906Y-4.7
X7.4906Y-4.8
X7.4906Y-4.9
X7.59Y-3.5631
X7.59Y-3.76
X7.5906Y-4.65
X7.5906Y-4.75
X7.5906Y-4.85
X7.5906Y-4.95
X9.4138Y-4.6
X9.4138Y-4.7
X9.4138Y-4.8
X9.4138Y-4.9
X9.5138Y-4.65
X9.5138Y-4.75
X9.5138Y-4.85
X9.5138Y-4.95
T4
X7.07Y-3.55
X7.07Y-3.65
X7.59Y-2.97
X7.59Y-3.2692
X7.86Y-4.8
X7.86Y-4.9
X7.86Y-5.
X7.86Y-5.1
X7.87Y-2.56
X7.9Y-3.82
X7.9Y-3.92
X7.9Y-4.02
X7.9Y-4.12
X7.9Y-4.22
X7.97Y-2.56
X8.Y-3.82
X8.Y-3.92
X8.Y-4.02
X8.Y-4.12
X8.Y-4.22
X8.07Y-2.56
X8.17Y-2.56
X8.27Y-2.56
X8.37Y-2.56
X8.4Y-4.8
X8.47Y-2.56
X8.5Y-4.8
X8.57Y-2.56
X8.6Y-4.8
X9.14Y-4.8
X9.14Y-4.9
X9.14Y-5.
X9.14Y-5.1
X9.35Y-4.1
X9.45Y-4.1
X9.73Y-3.5
X9.73Y-3.6
X9.73Y-3.7
X9.73Y-3.8
X9.73Y-3.9
T5
X8.79Y-4.26
X8.79Y-4.4372
X9.0459Y-4.26
X9.0459Y-4.4372
T6
X7.0866Y-2.5984
X7.0866Y-5.2362
X9.9213Y-2.5984
X9.9213Y-5.2362
T0
M30
