G04 #@! TF.FileFunction,Copper,L1,Top,Signal*
%FSLAX46Y46*%
G04 Gerber Fmt 4.6, Leading zero omitted, Abs format (unit mm)*
G04 Created by KiCad (PCBNEW 4.0.7-e2-6376~58~ubuntu16.04.1) date Wed Jun 27 11:01:06 2018*
%MOMM*%
%LPD*%
G01*
G04 APERTURE LIST*
%ADD10C,0.100000*%
%ADD11R,1.700000X2.000000*%
%ADD12C,3.650000*%
%ADD13R,1.500000X1.500000*%
%ADD14C,1.500000*%
%ADD15R,2.000000X1.700000*%
%ADD16R,2.000000X1.600000*%
%ADD17R,1.600000X1.600000*%
%ADD18O,1.600000X1.600000*%
%ADD19R,1.600000X2.000000*%
%ADD20C,2.000000*%
%ADD21R,0.800000X0.900000*%
%ADD22R,1.550000X0.600000*%
%ADD23R,2.000000X2.000000*%
%ADD24R,1.600000X3.500000*%
%ADD25R,1.700000X1.700000*%
%ADD26O,1.700000X1.700000*%
%ADD27C,1.620000*%
%ADD28R,0.550000X1.500000*%
%ADD29R,1.500000X0.550000*%
%ADD30R,0.600000X1.550000*%
%ADD31R,1.800000X1.800000*%
%ADD32O,1.800000X1.800000*%
%ADD33C,4.064000*%
%ADD34C,1.000000*%
%ADD35C,0.500000*%
%ADD36C,0.400000*%
%ADD37C,1.000000*%
%ADD38C,0.254000*%
G04 APERTURE END LIST*
D10*
D11*
X210820000Y-104584000D03*
X210820000Y-100584000D03*
D12*
X248000000Y-115350000D03*
X248000000Y-127220000D03*
D13*
X241650000Y-125730000D03*
D14*
X239110000Y-124460000D03*
X241650000Y-123190000D03*
X239110000Y-121920000D03*
X241650000Y-120650000D03*
X239110000Y-119380000D03*
X241650000Y-118110000D03*
X239110000Y-116840000D03*
D12*
X183912000Y-127220000D03*
X183912000Y-115350000D03*
D13*
X190262000Y-116840000D03*
D14*
X192802000Y-118110000D03*
X190262000Y-119380000D03*
X192802000Y-120650000D03*
X190262000Y-121920000D03*
X192802000Y-123190000D03*
X190262000Y-124460000D03*
X192802000Y-125730000D03*
D15*
X219710000Y-111252000D03*
X215710000Y-111252000D03*
D16*
X220726000Y-104902000D03*
X216726000Y-104902000D03*
D17*
X212090000Y-108204000D03*
D18*
X219710000Y-108204000D03*
D19*
X213868000Y-100584000D03*
X213868000Y-104584000D03*
X232918000Y-108204000D03*
X232918000Y-104204000D03*
D16*
X223774000Y-104902000D03*
X227774000Y-104902000D03*
D20*
X229766000Y-108204000D03*
X229766000Y-112704000D03*
X223266000Y-108204000D03*
X223266000Y-112704000D03*
D14*
X219964000Y-100584000D03*
X224844000Y-100584000D03*
D21*
X179624000Y-77440000D03*
X181524000Y-77440000D03*
X180574000Y-75440000D03*
D22*
X232410000Y-94996000D03*
X232410000Y-96266000D03*
X232410000Y-97536000D03*
X232410000Y-98806000D03*
X237810000Y-98806000D03*
X237810000Y-97536000D03*
X237810000Y-96266000D03*
X237810000Y-94996000D03*
D23*
X192786000Y-83038000D03*
D20*
X192786000Y-75438000D03*
D19*
X217424000Y-77724000D03*
X217424000Y-73724000D03*
D16*
X229235000Y-85725000D03*
X233235000Y-85725000D03*
X210058000Y-86868000D03*
X206058000Y-86868000D03*
D19*
X219964000Y-77724000D03*
X219964000Y-73724000D03*
D16*
X183642000Y-96266000D03*
X179642000Y-96266000D03*
X182182000Y-107696000D03*
X186182000Y-107696000D03*
D24*
X205740000Y-121920000D03*
X205740000Y-127320000D03*
D19*
X213360000Y-125984000D03*
X213360000Y-129984000D03*
X218440000Y-125984000D03*
X218440000Y-129984000D03*
D24*
X226060000Y-121920000D03*
X226060000Y-127320000D03*
D25*
X203200000Y-107188000D03*
D26*
X200660000Y-107188000D03*
X203200000Y-104648000D03*
X200660000Y-104648000D03*
X203200000Y-102108000D03*
X200660000Y-102108000D03*
X203200000Y-99568000D03*
X200660000Y-99568000D03*
X203200000Y-97028000D03*
X200660000Y-97028000D03*
D11*
X192532000Y-64516000D03*
X192532000Y-68516000D03*
X189484000Y-64516000D03*
X189484000Y-68516000D03*
X186436000Y-64516000D03*
X186436000Y-68516000D03*
D17*
X213360000Y-116586000D03*
D18*
X205740000Y-116586000D03*
D17*
X218440000Y-116586000D03*
D18*
X226060000Y-116586000D03*
D25*
X199898000Y-65024000D03*
D26*
X202438000Y-65024000D03*
X204978000Y-65024000D03*
X207518000Y-65024000D03*
X210058000Y-65024000D03*
X212598000Y-65024000D03*
X215138000Y-65024000D03*
X217678000Y-65024000D03*
D25*
X247142000Y-99060000D03*
D26*
X247142000Y-96520000D03*
X247142000Y-93980000D03*
X247142000Y-91440000D03*
X247142000Y-88900000D03*
D25*
X179578000Y-92710000D03*
D26*
X179578000Y-90170000D03*
D25*
X199644000Y-121920000D03*
D26*
X199644000Y-124460000D03*
X199644000Y-127000000D03*
X199644000Y-129540000D03*
D25*
X232156000Y-121920000D03*
D26*
X232156000Y-124460000D03*
X232156000Y-127000000D03*
X232156000Y-129540000D03*
D25*
X240030000Y-104140000D03*
D26*
X237490000Y-104140000D03*
D11*
X222504000Y-71692000D03*
X222504000Y-75692000D03*
X205994000Y-77280000D03*
X205994000Y-81280000D03*
X203454000Y-77280000D03*
X203454000Y-81280000D03*
X200914000Y-77280000D03*
X200914000Y-81280000D03*
D15*
X247650000Y-104140000D03*
X243650000Y-104140000D03*
X183578000Y-86614000D03*
X179578000Y-86614000D03*
D11*
X188976000Y-103314000D03*
X188976000Y-99314000D03*
D15*
X179624000Y-83790000D03*
X183624000Y-83790000D03*
X179624000Y-80234000D03*
X183624000Y-80234000D03*
D27*
X192786000Y-95504000D03*
X187786000Y-93004000D03*
X192786000Y-90504000D03*
D17*
X246126000Y-72644000D03*
D18*
X228346000Y-65024000D03*
X243586000Y-72644000D03*
X230886000Y-65024000D03*
X241046000Y-72644000D03*
X233426000Y-65024000D03*
X238506000Y-72644000D03*
X235966000Y-65024000D03*
X235966000Y-72644000D03*
X238506000Y-65024000D03*
X233426000Y-72644000D03*
X241046000Y-65024000D03*
X230886000Y-72644000D03*
X243586000Y-65024000D03*
X228346000Y-72644000D03*
X246126000Y-65024000D03*
D28*
X215164000Y-92934000D03*
X215964000Y-92934000D03*
X216764000Y-92934000D03*
X217564000Y-92934000D03*
X218364000Y-92934000D03*
X219164000Y-92934000D03*
X219964000Y-92934000D03*
X220764000Y-92934000D03*
X221564000Y-92934000D03*
X222364000Y-92934000D03*
X223164000Y-92934000D03*
D29*
X224864000Y-91234000D03*
X224864000Y-90434000D03*
X224864000Y-89634000D03*
X224864000Y-88834000D03*
X224864000Y-88034000D03*
X224864000Y-87234000D03*
X224864000Y-86434000D03*
X224864000Y-85634000D03*
X224864000Y-84834000D03*
X224864000Y-84034000D03*
X224864000Y-83234000D03*
D28*
X223164000Y-81534000D03*
X222364000Y-81534000D03*
X221564000Y-81534000D03*
X220764000Y-81534000D03*
X219964000Y-81534000D03*
X219164000Y-81534000D03*
X218364000Y-81534000D03*
X217564000Y-81534000D03*
X216764000Y-81534000D03*
X215964000Y-81534000D03*
X215164000Y-81534000D03*
D29*
X213464000Y-83234000D03*
X213464000Y-84034000D03*
X213464000Y-84834000D03*
X213464000Y-85634000D03*
X213464000Y-86434000D03*
X213464000Y-87234000D03*
X213464000Y-88034000D03*
X213464000Y-88834000D03*
X213464000Y-89634000D03*
X213464000Y-90434000D03*
X213464000Y-91234000D03*
D30*
X186182000Y-99314000D03*
X184912000Y-99314000D03*
X183642000Y-99314000D03*
X182372000Y-99314000D03*
X182372000Y-104714000D03*
X183642000Y-104714000D03*
X184912000Y-104714000D03*
X186182000Y-104714000D03*
D31*
X213360000Y-121920000D03*
D32*
X215900000Y-121920000D03*
X218440000Y-121920000D03*
D33*
X252000000Y-133000000D03*
X180000000Y-133000000D03*
X180000000Y-66000000D03*
X252000000Y-66000000D03*
D34*
X210820000Y-100584000D03*
X186182000Y-107696000D03*
X183578000Y-86614000D03*
X210058000Y-86868000D03*
X222504000Y-71692000D03*
X229235000Y-85725000D03*
X237810000Y-94996000D03*
X210820000Y-104584000D03*
X213868000Y-104584000D03*
X216726000Y-104902000D03*
X215710000Y-111252000D03*
X206058000Y-86868000D03*
X219022000Y-87234000D03*
X233235000Y-85725000D03*
X237810000Y-98806000D03*
X227774000Y-104902000D03*
X232918000Y-104204000D03*
X226060000Y-127320000D03*
X218440000Y-129984000D03*
X213360000Y-129984000D03*
X205740000Y-127320000D03*
X182182000Y-107696000D03*
X182372000Y-99314000D03*
X182372000Y-104714000D03*
X179642000Y-96266000D03*
X181524000Y-77440000D03*
X183624000Y-80234000D03*
X217424000Y-73724000D03*
X219964000Y-73724000D03*
X192532000Y-64516000D03*
X189484000Y-64516000D03*
X186436000Y-64516000D03*
X208026000Y-95885000D03*
X241681000Y-133168106D03*
X226060000Y-94996000D03*
X232410000Y-98806000D03*
X232410000Y-96266000D03*
X230378000Y-87630000D03*
D35*
X224864000Y-87234000D02*
X226329000Y-87234000D01*
X226329000Y-87234000D02*
X227838000Y-85725000D01*
X227838000Y-85725000D02*
X229235000Y-85725000D01*
X186182000Y-104714000D02*
X187576000Y-104714000D01*
X187576000Y-104714000D02*
X188976000Y-103314000D01*
X186182000Y-107696000D02*
X186182000Y-104714000D01*
X210820000Y-100584000D02*
X214025252Y-100584000D01*
X214025252Y-100584000D02*
X218364000Y-96245252D01*
X218364000Y-96245252D02*
X218364000Y-92934000D01*
X226060000Y-121920000D02*
X226060000Y-119670000D01*
X226060000Y-119670000D02*
X226060000Y-116586000D01*
X218440000Y-121920000D02*
X218440000Y-125984000D01*
X218440000Y-121920000D02*
X226060000Y-121920000D01*
X232156000Y-127000000D02*
X232156000Y-129540000D01*
X232156000Y-124460000D02*
X232156000Y-127000000D01*
X232156000Y-121920000D02*
X232156000Y-124460000D01*
X226060000Y-121920000D02*
X232156000Y-121920000D01*
D36*
X213464000Y-86434000D02*
X210492000Y-86434000D01*
X210492000Y-86434000D02*
X210058000Y-86868000D01*
X180574000Y-75440000D02*
X192784000Y-75440000D01*
X192784000Y-75440000D02*
X192786000Y-75438000D01*
X205994000Y-99314000D02*
X205994000Y-102108000D01*
X205994000Y-102108000D02*
X205994000Y-103124000D01*
X203200000Y-102108000D02*
X205994000Y-102108000D01*
X217564000Y-92934000D02*
X217564000Y-96126000D01*
X217564000Y-96126000D02*
X215392000Y-98298000D01*
X215392000Y-98298000D02*
X207010000Y-98298000D01*
X207010000Y-98298000D02*
X205994000Y-99314000D01*
X205994000Y-103124000D02*
X207454000Y-104584000D01*
X207454000Y-104584000D02*
X210820000Y-104584000D01*
X229766000Y-108204000D02*
X223266000Y-108204000D01*
X219710000Y-108204000D02*
X223266000Y-108204000D01*
X232918000Y-108204000D02*
X229766000Y-108204000D01*
X219164000Y-81534000D02*
X219164000Y-86360000D01*
X219164000Y-86360000D02*
X219164000Y-87376000D01*
X224864000Y-86434000D02*
X219238000Y-86434000D01*
X219238000Y-86434000D02*
X219164000Y-86360000D01*
X219164000Y-87376000D02*
X219164000Y-92934000D01*
X213464000Y-87234000D02*
X219022000Y-87234000D01*
X219022000Y-87234000D02*
X219164000Y-87376000D01*
X219964000Y-92934000D02*
X219964000Y-100584000D01*
X219964000Y-100584000D02*
X220726000Y-101346000D01*
X220726000Y-101346000D02*
X220726000Y-104902000D01*
X224844000Y-100584000D02*
X220764000Y-96504000D01*
X220764000Y-96504000D02*
X220764000Y-92934000D01*
X224844000Y-100584000D02*
X223774000Y-101654000D01*
X223774000Y-101654000D02*
X223774000Y-104902000D01*
X218364000Y-81534000D02*
X218364000Y-78664000D01*
X218364000Y-78664000D02*
X217424000Y-77724000D01*
D35*
X219964000Y-77724000D02*
X220472000Y-77724000D01*
X220472000Y-77724000D02*
X222504000Y-75692000D01*
X219964000Y-81534000D02*
X219964000Y-77724000D01*
D36*
X179578000Y-90170000D02*
X182372000Y-90170000D01*
X182372000Y-90170000D02*
X183642000Y-91440000D01*
X183642000Y-91440000D02*
X183642000Y-94234000D01*
X183642000Y-94234000D02*
X183642000Y-96266000D01*
X183642000Y-96266000D02*
X183642000Y-99314000D01*
X179578000Y-86614000D02*
X179578000Y-90170000D01*
D37*
X213360000Y-116586000D02*
X218440000Y-116586000D01*
X213360000Y-121920000D02*
X213360000Y-125984000D01*
X213360000Y-116586000D02*
X213360000Y-121920000D01*
X205740000Y-121920000D02*
X213360000Y-121920000D01*
D36*
X214630000Y-95885000D02*
X208026000Y-95885000D01*
X215164000Y-95351000D02*
X214630000Y-95885000D01*
X215164000Y-92934000D02*
X215164000Y-95351000D01*
X216764000Y-92934000D02*
X216764000Y-96077458D01*
X216764000Y-96077458D02*
X215143468Y-97697990D01*
X215143468Y-97697990D02*
X205070009Y-97697991D01*
X205070009Y-97697991D02*
X203200000Y-99568000D01*
X203200000Y-97028000D02*
X214964916Y-97028000D01*
X214964916Y-97028000D02*
X215964000Y-96028916D01*
X215964000Y-96028916D02*
X215964000Y-92934000D01*
X192532000Y-68516000D02*
X192532000Y-69916000D01*
X200914000Y-70612000D02*
X205994000Y-75692000D01*
X192532000Y-69916000D02*
X193228000Y-70612000D01*
X193228000Y-70612000D02*
X200914000Y-70612000D01*
X205994000Y-75692000D02*
X205994000Y-77280000D01*
X189484000Y-68516000D02*
X189484000Y-69916000D01*
X189484000Y-69916000D02*
X191196000Y-71628000D01*
X191196000Y-71628000D02*
X199202000Y-71628000D01*
X199202000Y-71628000D02*
X203454000Y-75880000D01*
X203454000Y-75880000D02*
X203454000Y-77280000D01*
X189484000Y-68666000D02*
X189484000Y-68516000D01*
X193716000Y-72390000D02*
X194056000Y-72390000D01*
X186436000Y-69916000D02*
X188910000Y-72390000D01*
X194056000Y-72390000D02*
X196850000Y-72390000D01*
X186436000Y-68516000D02*
X186436000Y-69916000D01*
X188910000Y-72390000D02*
X194056000Y-72390000D01*
X196850000Y-72390000D02*
X197104000Y-72390000D01*
X200914000Y-77280000D02*
X200914000Y-75880000D01*
X200914000Y-75880000D02*
X197424000Y-72390000D01*
X197424000Y-72390000D02*
X196850000Y-72390000D01*
X186436000Y-68516000D02*
X186436000Y-68666000D01*
D37*
X241650000Y-120650000D02*
X240380000Y-120650000D01*
X240380000Y-120650000D02*
X239110000Y-121920000D01*
X239110000Y-121920000D02*
X238049340Y-121920000D01*
X238049340Y-121920000D02*
X235001340Y-124968000D01*
X235001340Y-124968000D02*
X234950000Y-124968000D01*
X192802000Y-120650000D02*
X196596000Y-120650000D01*
X190262000Y-121920000D02*
X191532000Y-121920000D01*
X191532000Y-121920000D02*
X192802000Y-120650000D01*
X205740000Y-116586000D02*
X200660000Y-116586000D01*
X200660000Y-116586000D02*
X196596000Y-120650000D01*
X196596000Y-120650000D02*
X196596000Y-130556000D01*
X234950000Y-130810000D02*
X234950000Y-124968000D01*
X196596000Y-130556000D02*
X198374000Y-132334000D01*
X198374000Y-132334000D02*
X233426000Y-132334000D01*
X233426000Y-132334000D02*
X234950000Y-130810000D01*
D36*
X210058000Y-76434000D02*
X210058000Y-84074000D01*
X210058000Y-84074000D02*
X211618000Y-85634000D01*
X211618000Y-85634000D02*
X212314000Y-85634000D01*
X212314000Y-85634000D02*
X213464000Y-85634000D01*
X199898000Y-65024000D02*
X199898000Y-66274000D01*
X199898000Y-66274000D02*
X210058000Y-76434000D01*
X211666542Y-84834000D02*
X210658010Y-83825468D01*
X210658010Y-83825468D02*
X210658010Y-73244010D01*
X210658010Y-73244010D02*
X203287999Y-65873999D01*
X203287999Y-65873999D02*
X202438000Y-65024000D01*
X213464000Y-84834000D02*
X211666542Y-84834000D01*
X211715084Y-84034000D02*
X211258020Y-83576936D01*
X205827999Y-65873999D02*
X204978000Y-65024000D01*
X211258020Y-83576936D02*
X211258020Y-71304020D01*
X211258020Y-71304020D02*
X205827999Y-65873999D01*
X213464000Y-84034000D02*
X211715084Y-84034000D01*
X211858030Y-83058000D02*
X211858030Y-69364030D01*
X211858030Y-69364030D02*
X207518000Y-65024000D01*
X212034030Y-83234000D02*
X211858030Y-83058000D01*
X213464000Y-83234000D02*
X212034030Y-83234000D01*
X215164000Y-81534000D02*
X215164000Y-80529626D01*
X215164000Y-80529626D02*
X213937980Y-79303606D01*
X213937980Y-79303606D02*
X213937980Y-68903980D01*
X213937980Y-68903980D02*
X210058000Y-65024000D01*
X214537990Y-79055074D02*
X214537990Y-66963990D01*
X214537990Y-66963990D02*
X212598000Y-65024000D01*
X215964000Y-81534000D02*
X215964000Y-80481084D01*
X215964000Y-80481084D02*
X214537990Y-79055074D01*
X216764000Y-81534000D02*
X216764000Y-80432542D01*
X216764000Y-80432542D02*
X215138000Y-78806542D01*
X215138000Y-78806542D02*
X215138000Y-66226081D01*
X215138000Y-66226081D02*
X215138000Y-65024000D01*
X215900000Y-78720000D02*
X215900000Y-66802000D01*
X215900000Y-66802000D02*
X217678000Y-65024000D01*
X217564000Y-81534000D02*
X217564000Y-80384000D01*
X217564000Y-80384000D02*
X215900000Y-78720000D01*
X223164000Y-92934000D02*
X241016000Y-92934000D01*
X241016000Y-92934000D02*
X247142000Y-99060000D01*
X224864000Y-91234000D02*
X241856000Y-91234000D01*
X241856000Y-91234000D02*
X247142000Y-96520000D01*
X224864000Y-90434000D02*
X243596000Y-90434000D01*
X243596000Y-90434000D02*
X247142000Y-93980000D01*
X224864000Y-89634000D02*
X245336000Y-89634000D01*
X245336000Y-89634000D02*
X247142000Y-91440000D01*
X224864000Y-88834000D02*
X247076000Y-88834000D01*
X247076000Y-88834000D02*
X247142000Y-88900000D01*
X243332000Y-125198000D02*
X243332000Y-113792000D01*
X243332000Y-113792000D02*
X237490000Y-107950000D01*
X241650000Y-125730000D02*
X242800000Y-125730000D01*
X242800000Y-125730000D02*
X243332000Y-125198000D01*
X239014000Y-133604000D02*
X240030000Y-132588000D01*
X240030000Y-132588000D02*
X240538000Y-132080000D01*
X241650000Y-125730000D02*
X241650000Y-130968000D01*
X241650000Y-130968000D02*
X240030000Y-132588000D01*
X190262000Y-116840000D02*
X189112000Y-116840000D01*
X189112000Y-116840000D02*
X188738000Y-117214000D01*
X188738000Y-117214000D02*
X188738000Y-129524000D01*
X188738000Y-129524000D02*
X188722000Y-129540000D01*
X188722000Y-129540000D02*
X188722000Y-131064000D01*
X191262000Y-133604000D02*
X239014000Y-133604000D01*
X188722000Y-131064000D02*
X191262000Y-133604000D01*
X237490000Y-107950000D02*
X237490000Y-104140000D01*
X237810000Y-97536000D02*
X239268000Y-97536000D01*
X239268000Y-97536000D02*
X239776000Y-98044000D01*
X239776000Y-98044000D02*
X239776000Y-100584000D01*
X239776000Y-100584000D02*
X237490000Y-102870000D01*
X237490000Y-102870000D02*
X237490000Y-104140000D01*
X238285000Y-97536000D02*
X237810000Y-97536000D01*
X237810000Y-97536000D02*
X238335002Y-97536000D01*
X241681000Y-133168106D02*
X244602000Y-130247106D01*
X239848106Y-135001000D02*
X241681000Y-133168106D01*
X239141000Y-135001000D02*
X239848106Y-135001000D01*
X247650000Y-108204000D02*
X247650000Y-104140000D01*
X244602000Y-130247106D02*
X244602000Y-111252000D01*
X244602000Y-111252000D02*
X247650000Y-108204000D01*
X191389000Y-135001000D02*
X239141000Y-135001000D01*
X192802000Y-118110000D02*
X192802000Y-116078000D01*
X192802000Y-116078000D02*
X191786000Y-115062000D01*
X187722000Y-116078000D02*
X187722000Y-131334000D01*
X191786000Y-115062000D02*
X188738000Y-115062000D01*
X188738000Y-115062000D02*
X187722000Y-116078000D01*
X187722000Y-131334000D02*
X191389000Y-135001000D01*
X247650000Y-104140000D02*
X247500000Y-104140000D01*
X247500000Y-104140000D02*
X239626000Y-96266000D01*
X239626000Y-96266000D02*
X238985000Y-96266000D01*
X238985000Y-96266000D02*
X237810000Y-96266000D01*
X239268000Y-96266000D02*
X237810000Y-96266000D01*
X240030000Y-104140000D02*
X243650000Y-104140000D01*
X179624000Y-80234000D02*
X179624000Y-83790000D01*
X179624000Y-77440000D02*
X179624000Y-80234000D01*
X223266000Y-112704000D02*
X221814000Y-111252000D01*
X221814000Y-111252000D02*
X219710000Y-111252000D01*
X223266000Y-112704000D02*
X224680213Y-112704000D01*
X224680213Y-112704000D02*
X229766000Y-112704000D01*
X223194000Y-112776000D02*
X223266000Y-112704000D01*
X204216000Y-85598000D02*
X205994000Y-83820000D01*
X205994000Y-83820000D02*
X205994000Y-81280000D01*
X204216000Y-88138000D02*
X204216000Y-85598000D01*
X204724000Y-88646000D02*
X204216000Y-88138000D01*
X213464000Y-88034000D02*
X212314000Y-88034000D01*
X212314000Y-88034000D02*
X211702000Y-88646000D01*
X211702000Y-88646000D02*
X204724000Y-88646000D01*
X204475467Y-89246009D02*
X203454000Y-88224542D01*
X203454000Y-81280000D02*
X203454000Y-88224542D01*
X213464000Y-88834000D02*
X212362542Y-88834000D01*
X212362542Y-88834000D02*
X211950532Y-89246010D01*
X211950532Y-89246010D02*
X204475467Y-89246009D01*
X200914000Y-86533084D02*
X200914000Y-81280000D01*
X213464000Y-89634000D02*
X212411084Y-89634000D01*
X212411084Y-89634000D02*
X212199063Y-89846019D01*
X212199063Y-89846019D02*
X204226934Y-89846018D01*
X204226934Y-89846018D02*
X200914000Y-86533084D01*
X201374000Y-91234000D02*
X193294000Y-99314000D01*
X188976000Y-99314000D02*
X186182000Y-99314000D01*
X193294000Y-99314000D02*
X188976000Y-99314000D01*
X213464000Y-91234000D02*
X201374000Y-91234000D01*
X183624000Y-83790000D02*
X187416374Y-83790000D01*
X201168000Y-87635626D02*
X203978401Y-90446027D01*
X187416374Y-83790000D02*
X191262000Y-87635626D01*
X203978401Y-90446027D02*
X213451972Y-90446028D01*
X191262000Y-87635626D02*
X201168000Y-87635626D01*
X213451972Y-90446028D02*
X213464000Y-90434000D01*
X184912000Y-99314000D02*
X184912000Y-98139000D01*
X187786000Y-94149512D02*
X187786000Y-93004000D01*
X184912000Y-98139000D02*
X187786000Y-95265000D01*
X187786000Y-95265000D02*
X187786000Y-94149512D01*
X229703084Y-82042000D02*
X237928000Y-82042000D01*
X224864000Y-85634000D02*
X226111084Y-85634000D01*
X226111084Y-85634000D02*
X229703084Y-82042000D01*
X246126000Y-72644000D02*
X246126000Y-73844000D01*
X246126000Y-73844000D02*
X237928000Y-82042000D01*
X243586000Y-72644000D02*
X234927971Y-81302029D01*
X234927971Y-81302029D02*
X229594512Y-81302030D01*
X229594512Y-81302030D02*
X226062542Y-84834000D01*
X226062542Y-84834000D02*
X224864000Y-84834000D01*
X224864000Y-84034000D02*
X226014000Y-84034000D01*
X240246001Y-73443999D02*
X241046000Y-72644000D01*
X226014000Y-84034000D02*
X229345980Y-80702020D01*
X229345980Y-80702020D02*
X232987980Y-80702020D01*
X232987980Y-80702020D02*
X240246001Y-73443999D01*
X228605990Y-80102010D02*
X231140000Y-80102010D01*
X238506000Y-72644000D02*
X231140000Y-80010000D01*
X231140000Y-80010000D02*
X231140000Y-80102010D01*
X224864000Y-83234000D02*
X225474000Y-83234000D01*
X225474000Y-83234000D02*
X228605990Y-80102010D01*
X224046000Y-79502000D02*
X228346000Y-79502000D01*
X235966000Y-72644000D02*
X229108000Y-79502000D01*
X229108000Y-79502000D02*
X228346000Y-79502000D01*
X223164000Y-81534000D02*
X223164000Y-80384000D01*
X223164000Y-80384000D02*
X224046000Y-79502000D01*
X223235066Y-78670020D02*
X227399980Y-78670020D01*
X227399980Y-78670020D02*
X233426000Y-72644000D01*
X222364000Y-79541086D02*
X223235066Y-78670020D01*
X222364000Y-81534000D02*
X222364000Y-79541086D01*
X222986534Y-78070010D02*
X225459990Y-78070010D01*
X225459990Y-78070010D02*
X230886000Y-72644000D01*
X221564000Y-81534000D02*
X221564000Y-79492544D01*
X221564000Y-79492544D02*
X222986534Y-78070010D01*
X228346000Y-72644000D02*
X223520000Y-77470000D01*
X223520000Y-77470000D02*
X222738002Y-77470000D01*
X222738002Y-77470000D02*
X220764000Y-79444002D01*
X220764000Y-79444002D02*
X220764000Y-81534000D01*
X221564000Y-92934000D02*
X221564000Y-94437000D01*
X221564000Y-94437000D02*
X223647000Y-96520000D01*
X223647000Y-96520000D02*
X227711000Y-96520000D01*
X227711000Y-96520000D02*
X229235000Y-94996000D01*
X229235000Y-94996000D02*
X232410000Y-94996000D01*
X226060000Y-94996000D02*
X223276000Y-94996000D01*
X222364000Y-92934000D02*
X222364000Y-94084000D01*
X222364000Y-94084000D02*
X223276000Y-94996000D01*
X227330000Y-87630000D02*
X230378000Y-87630000D01*
X226926000Y-88034000D02*
X227330000Y-87630000D01*
X224864000Y-88034000D02*
X226926000Y-88034000D01*
X232410000Y-97536000D02*
X232410000Y-96266000D01*
X183642000Y-104714000D02*
X184912000Y-104714000D01*
D38*
G36*
X223329500Y-91376500D02*
X215011000Y-91376500D01*
X215011000Y-83058000D01*
X223329500Y-83058000D01*
X223329500Y-91376500D01*
X223329500Y-91376500D01*
G37*
X223329500Y-91376500D02*
X215011000Y-91376500D01*
X215011000Y-83058000D01*
X223329500Y-83058000D01*
X223329500Y-91376500D01*
M02*
